<svg width="46" height="39" viewBox="0 0 46 39" fill="none" xmlns="http://www.w3.org/2000/svg">
<path d="M0.5 0.559998H42C43.933 0.559998 45.5 2.127 45.5 4.06V34.06C45.5 35.993 43.933 37.56 42 37.56H0.5V0.559998Z" fill="#7258DB"/>
<path d="M19.6615 17.58C19.8482 17.7933 19.9415 18.0333 19.9415 18.3V26.24C19.9415 26.3866 19.9949 26.51 20.1015 26.61C20.2082 26.71 20.3349 26.7633 20.4815 26.77C20.6282 26.7766 20.7615 26.7266 20.8815 26.62L23.1815 24C23.3415 23.8133 23.4415 23.68 23.4815 23.6C23.5482 23.48 23.5815 23.3466 23.5815 23.2V18.3C23.5815 18.0333 23.6749 17.7933 23.8615 17.58L30.3015 10.7C30.4615 10.5266 30.5349 10.3333 30.5215 10.12C30.5082 9.90665 30.4249 9.72331 30.2715 9.56998C30.1182 9.41665 29.9282 9.33998 29.7015 9.33998H13.8415C13.6149 9.33998 13.4215 9.41665 13.2615 9.56998C13.1015 9.72331 13.0149 9.90665 13.0015 10.12C12.9882 10.3333 13.0615 10.5266 13.2215 10.7L19.6615 17.58Z" fill="white"/>
<path d="M0.5 0.559998H42C43.933 0.559998 45.5 2.127 45.5 4.06V34.06C45.5 35.993 43.933 37.56 42 37.56H0.5V0.559998Z" stroke="#7258DB"/>
</svg>
