<svg width="35" height="34" viewBox="0 0 35 34" fill="none" xmlns="http://www.w3.org/2000/svg">
<g clip-path="url(#clip0_2_1115)">
<path d="M4.716 17.374C4.62533 17.2607 4.58 17.1303 4.58 16.983C4.58 16.8357 4.62533 16.7167 4.716 16.626L9.136 12.206C9.24933 12.0927 9.306 11.9623 9.306 11.815C9.306 11.6677 9.24933 11.5373 9.136 11.424L7.844 10.166C7.75333 10.0527 7.63433 9.996 7.487 9.996C7.33967 9.996 7.20933 10.0527 7.096 10.166L0.636 16.626C0.545333 16.7167 0.5 16.8357 0.5 16.983C0.5 17.1303 0.545333 17.2607 0.636 17.374L7.096 23.834C7.20933 23.9247 7.33967 23.97 7.487 23.97C7.63433 23.97 7.75333 23.9247 7.844 23.834L9.136 22.542C9.24933 22.4287 9.306 22.2983 9.306 22.151C9.306 22.0037 9.24933 21.8847 9.136 21.794L4.716 17.374ZM12.774 17C12.774 17.7707 12.502 18.4337 11.958 18.989C11.414 19.5443 10.751 19.822 9.969 19.822C9.187 19.822 8.51833 19.5443 7.963 18.989C7.40767 18.4337 7.13 17.765 7.13 16.983C7.13 16.201 7.40767 15.538 7.963 14.994C8.51833 14.45 9.187 14.178 9.969 14.178C10.751 14.178 11.414 14.45 11.958 14.994C12.502 15.538 12.774 16.2067 12.774 17ZM17.398 17C17.398 17.5667 17.1997 18.0483 16.803 18.445C16.4063 18.8417 15.9247 19.04 15.358 19.04C14.7913 19.04 14.3097 18.8417 13.913 18.445C13.5163 18.0483 13.318 17.5667 13.318 17C13.318 16.4333 13.5163 15.9517 13.913 15.555C14.3097 15.1583 14.7913 14.96 15.358 14.96C15.9247 14.96 16.4063 15.1583 16.803 15.555C17.1997 15.9517 17.398 16.4333 17.398 17ZM20.866 17C20.866 17.408 20.7243 17.7537 20.441 18.037C20.1577 18.3203 19.812 18.462 19.404 18.462C18.996 18.462 18.6447 18.3203 18.35 18.037C18.0553 17.7537 17.908 17.408 17.908 17C17.908 16.592 18.0553 16.2463 18.35 15.963C18.6447 15.6797 18.996 15.538 19.404 15.538C19.812 15.538 20.1577 15.6797 20.441 15.963C20.7243 16.2463 20.866 16.592 20.866 17Z" fill="#F8F9FA"/>
</g>
<defs>
<clipPath id="clip0_2_1115">
<rect width="34" height="34" fill="white" transform="matrix(1 0 0 -1 0.5 34)"/>
</clipPath>
</defs>
</svg>
