<svg width="53" height="48" viewBox="0 0 53 48" fill="none" xmlns="http://www.w3.org/2000/svg">
<path d="M0.900024 0.5H48.18C50.5548 0.5 52.48 2.42518 52.48 4.8V43.2C52.48 45.5748 50.5549 47.5 48.18 47.5H0.900024V0.5Z" fill="#EEEEEE"/>
<g clip-path="url(#clip0_2_20)">
<path d="M28.7938 26.8181C28.7938 26.8181 29.0384 26.5735 29.5276 26.0843C30.0168 25.5951 30.2615 24.6622 30.2615 23.2857C30.2615 21.9092 29.7722 20.7318 28.7938 19.7533C27.8154 18.7749 26.6379 18.2857 25.2615 18.2857C23.885 18.2857 22.7075 18.7749 21.7291 19.7533C20.7507 20.7318 20.2615 21.9092 20.2615 23.2857C20.2615 24.6622 20.7507 25.8397 21.7291 26.8181C22.7075 27.7965 23.885 28.2857 25.2615 28.2857C26.6379 28.2857 27.8154 27.7965 28.7938 26.8181ZM35.9757 32.5714C35.9757 32.9583 35.8344 33.2932 35.5516 33.5759C35.2689 33.8586 34.9341 34 34.5472 34C34.1454 34 33.8106 33.8586 33.5427 33.5759L29.7146 29.7589C28.3827 30.6815 26.8984 31.1429 25.2615 31.1429C24.1975 31.1429 23.18 30.9364 22.209 30.5234C21.238 30.1105 20.401 29.5525 19.6978 28.8493C18.9947 28.1462 18.4367 27.3092 18.0237 26.3382C17.6108 25.3672 17.4043 24.3497 17.4043 23.2857C17.4043 22.2217 17.6108 21.2042 18.0237 20.2333C18.4367 19.2623 18.9947 18.4252 19.6978 17.7221C20.401 17.019 21.238 16.4609 22.209 16.048C23.18 15.635 24.1975 15.4286 25.2615 15.4286C26.3254 15.4286 27.3429 15.635 28.3139 16.048C29.2849 16.4609 30.1219 17.019 30.8251 17.7221C31.5282 18.4252 32.0862 19.2623 32.4992 20.2333C32.9121 21.2042 33.1186 22.2217 33.1186 23.2857C33.1186 24.9226 32.6573 26.407 31.7347 27.7388L35.5628 31.567C35.8381 31.8423 35.9757 32.1771 35.9757 32.5714Z" fill="#212529"/>
</g>
<path d="M0.900024 0.5H48.18C50.5548 0.5 52.48 2.42518 52.48 4.8V43.2C52.48 45.5748 50.5549 47.5 48.18 47.5H0.900024V0.5Z" stroke="#F0F0F0"/>
<defs>
<clipPath id="clip0_2_20">
<rect width="18.58" height="20" fill="white" transform="matrix(1 0 0 -1 17.4 34)"/>
</clipPath>
</defs>
</svg>
