<svg width="56" height="56" viewBox="0 0 56 56" fill="none" xmlns="http://www.w3.org/2000/svg">
<rect x="0.5" y="0.5" width="55" height="55" rx="27.5" fill="white"/>
<path d="M12.8363 54.9062C12.8363 54.9062 12.1127 45.0638 21.3763 44.1452H25.5296V42.2319C25.5296 42.2319 28.4512 43.4867 31.4096 42.3719L31.503 44.1452H36.3563C36.3563 44.1452 44.6671 44.4717 44.2896 54.9995L12.8363 54.9062Z" fill="#FAD4B2"/>
<path d="M44.2613 55.2986H13.1424H12.5389L12.6895 52.725C12.9837 47.7001 16.9428 43.8652 21.4734 43.8652H24.9214V44.3786H21.7485C17.3819 44.3786 13.5661 48.0698 13.2826 52.9065L13.178 54.6919H44.1791L44.1211 52.9065C43.8376 48.0698 40.0219 44.3786 35.6553 44.3786H31.4081V43.8652H35.9027C40.4333 43.8652 44.3924 47.7001 44.6866 52.725L44.8372 55.2986H44.2613Z" fill="#3B434F"/>
<path d="M28.1881 49.6519C25.6882 49.6519 23.6614 47.6253 23.6614 45.1252C23.6614 44.6878 23.7248 44.2654 23.8405 43.8652H23.8481H24.3285H25.1548V44.3786H24.198C24.1526 44.6206 24.1281 44.87 24.1281 45.1252C24.1281 47.3675 25.9458 49.1852 28.1881 49.1852C30.4304 49.1852 32.2481 47.3675 32.2481 45.1252C32.2481 44.87 32.2236 44.6206 32.1783 44.3786H31.2214V43.8652H32.0478H32.5281H32.5358C32.6515 44.2654 32.7148 44.6878 32.7148 45.1252C32.7148 47.6253 30.6881 49.6519 28.1881 49.6519Z" fill="#3B434F"/>
<path d="M25.5281 42.016V44.8942C25.5281 46.3878 26.7399 47.5986 28.2348 47.5986C29.7297 47.5986 30.9414 46.3878 30.9414 44.8942V42.0754C31.0985 42.0276 31.2541 41.9756 31.4081 41.9195V44.9138C31.4081 46.6801 29.977 48.1119 28.2114 48.1119C26.446 48.1119 25.0148 46.6801 25.0148 44.9138V41.8309C25.1839 41.8978 25.3551 41.9592 25.5281 42.016Z" fill="#3B434F"/>
<path d="M28.3516 12.7386C34.157 12.7386 38.7392 18.1637 38.5902 24.6821L38.4318 31.61C38.2915 37.751 33.7799 42.6052 28.3516 42.6052C22.9232 42.6052 18.4117 37.751 18.2713 31.61L18.113 24.6821C17.964 18.1637 22.5462 12.7386 28.3516 12.7386Z" fill="white"/>
<path fill-rule="evenodd" clip-rule="evenodd" d="M39.0566 24.4673L38.8907 31.6767C38.7437 38.0672 34.0163 43.1186 28.3282 43.1186C22.6402 43.1186 17.9129 38.0672 17.7658 31.6767L17.5998 24.4673C17.4438 17.6841 22.2451 12.0386 28.3282 12.0386C34.4113 12.0386 39.2128 17.6841 39.0566 24.4673ZM28.3049 12.7852C22.5789 12.7852 18.0593 18.1679 18.2063 24.6354L18.3625 31.5093C18.501 37.6024 22.9508 42.4186 28.3049 42.4186C33.6591 42.4186 38.109 37.6024 38.2474 31.5093L38.4036 24.6354C38.5505 18.1679 34.031 12.7852 28.3049 12.7852Z" fill="#3B434F"/>
<path opacity="0.058824" fill-rule="evenodd" clip-rule="evenodd" d="M38.7654 25.6652L38.2987 33.3186C38.2987 33.3186 36.2261 42.1529 28.2187 43.1988V43.2119C28.203 43.2099 28.1878 43.2074 28.172 43.2054C28.1564 43.2074 28.1412 43.2099 28.1254 43.2119V43.1988C20.1181 42.1529 18.0454 33.3186 18.0454 33.3186L17.5787 25.6652C19.6566 34.8884 21.4054 35.4652 21.4054 35.4652C21.0515 32.6683 23.9254 32.9452 23.9254 32.9452C25.677 33.241 27.0713 33.3841 28.172 33.4375C29.2729 33.3841 30.6672 33.241 32.4187 32.9452C32.4187 32.9452 35.2927 32.6683 34.9387 35.4652C34.9387 35.4652 36.6875 34.8884 38.7654 25.6652ZM33.5763 36.4138C33.4404 34.7687 32.4484 34.9081 32.4484 34.9081C30.6847 35.4271 29.3003 35.7154 28.2187 35.8619V35.8511C27.1448 35.7058 25.77 35.4199 24.0187 34.9052C24.0187 34.9052 23.0336 34.7668 22.8987 36.3986C22.8987 36.3986 22.5031 38.0333 23.832 38.7319L25.512 40.5052C25.512 40.5052 26.6601 40.8691 26.632 39.4786C26.632 39.4786 26.5152 38.4415 27.192 38.2652H28.2187V38.2959H29.2527C29.9343 38.4736 29.8166 39.5193 29.8166 39.5193C29.7884 40.9213 30.9445 40.5544 30.9445 40.5544L32.6364 38.7664C33.9746 38.0622 33.5763 36.4138 33.5763 36.4138Z" fill="#3B434F"/>
<path d="M33.3682 35.8013C32.5199 36.5378 30.604 37.2386 28.3749 37.2386C26.1456 37.2386 24.2298 36.5378 23.3814 35.8013C23.3814 35.8013 23.2947 35.5625 23.422 35.4351C23.5517 35.3055 23.7549 35.3337 23.7549 35.3337C24.6022 36.0707 26.1448 36.6786 28.3749 36.6786C30.6049 36.6786 32.1475 36.0707 32.9949 35.3337C32.9949 35.3337 33.2021 35.2567 33.3027 35.3573C33.4967 35.5514 33.3682 35.8013 33.3682 35.8013Z" fill="#3B434F"/>
<path d="M26.8348 38.3586H29.8214V38.8252H26.8348V38.3586Z" fill="#3B434F"/>
<path d="M17.5883 25.5186C17.587 25.5187 17.4738 25.4283 17.2598 25.3609C17.1529 25.3273 17.02 25.2996 16.8685 25.2928C16.8306 25.2911 16.7917 25.2907 16.7519 25.2919C16.7121 25.293 16.6713 25.2956 16.6299 25.3001C16.547 25.3089 16.4615 25.3248 16.3754 25.3495C16.0308 25.4486 15.6792 25.6895 15.4727 26.1865C15.3691 26.435 15.3007 26.7477 15.2827 27.1388C15.2781 27.2366 15.2767 27.3393 15.2787 27.4471C15.2807 27.555 15.286 27.6678 15.295 27.7862C15.3128 28.0229 15.3451 28.2809 15.3932 28.5622C15.3921 28.5619 15.3484 29.412 15.6522 30.3889C15.938 31.3439 16.6241 32.5171 17.8908 32.8523C17.7451 30.4265 17.7406 27.9552 17.5883 25.5186Z" fill="white"/>
<path d="M17.7327 25.6164C17.7327 25.6164 15.5259 24.9327 15.6036 27.2014C15.6036 27.2014 15.9321 30.491 16.0748 30.7942C16.0748 30.7942 16.9415 32.7096 18.3718 32.7945L18.3892 33.4119C18.3892 33.4119 15.8752 33.0896 15.3897 30.1925L15.0064 27.5607C15.0064 27.5607 14.7088 24.0776 17.5952 24.9632L17.7327 25.6164Z" fill="#3B434F"/>
<path d="M17.0043 30.187C17.0043 30.187 16.8808 30.2803 16.7747 30.2803C16.6686 30.2803 16.5467 30.187 16.5467 30.187L16.319 27.892C16.319 27.892 16.6331 26.7618 17.9665 27.359L17.9981 28.0152C17.9981 28.0152 16.8282 27.6004 16.8524 28.1169C16.8757 28.6143 17.0043 30.187 17.0043 30.187Z" fill="#3B434F"/>
<path d="M39.0264 25.5239C39.0277 25.5241 39.1416 25.4336 39.3564 25.3663C39.4638 25.3328 39.5973 25.3051 39.7494 25.2983C39.7875 25.2966 39.8265 25.2962 39.8665 25.2973C39.9066 25.2984 39.9475 25.3012 39.989 25.3055C40.0723 25.3144 40.1581 25.3302 40.2447 25.355C40.5908 25.4539 40.9439 25.6947 41.1514 26.1914C41.2554 26.4397 41.3241 26.7521 41.3422 27.143C41.3468 27.2407 41.3483 27.3434 41.3462 27.4511C41.3442 27.5589 41.3388 27.6717 41.3299 27.79C41.3119 28.0264 41.2795 28.2844 41.2312 28.5654C41.2322 28.5651 41.2763 29.4147 40.971 30.3909C40.684 31.3453 39.995 32.5177 38.7226 32.8527C38.8689 30.4285 38.8735 27.9589 39.0264 25.5239Z" fill="white"/>
<path d="M38.8809 25.6218C38.8809 25.6218 41.0973 24.9384 41.0193 27.2056C41.0193 27.2056 40.6893 30.493 40.5461 30.7961C40.5461 30.7961 39.6755 32.7101 38.239 32.7949L38.2216 33.4119C38.2216 33.4119 40.7465 33.0898 41.2342 30.1946L41.6191 27.5646C41.6191 27.5646 41.9179 24.084 39.019 24.9689L38.8809 25.6218Z" fill="#3B434F"/>
<path d="M39.6124 30.1891C39.6124 30.1891 39.7365 30.2824 39.8431 30.2824C39.9496 30.2824 40.0721 30.1891 40.0721 30.1891L40.3009 27.8957C40.3009 27.8957 39.9853 26.7663 38.6461 27.3631L38.6144 28.0189C38.6144 28.0189 39.7894 27.6043 39.7651 28.1205C39.7417 28.6175 39.6124 30.1891 39.6124 30.1891Z" fill="#3B434F"/>
<path fill-rule="evenodd" clip-rule="evenodd" d="M29.1914 30.0052C29.2459 30.0052 29.3004 30.0052 29.3548 30.0052C29.6925 30.4638 29.8298 31.1686 30.0081 31.7786C30.0634 31.9676 30.0098 32.2982 29.9614 32.4319C29.7846 32.9215 29.2289 32.9126 28.7714 33.1319C28.6486 33.1907 28.5573 33.2925 28.3981 33.3186C28.2944 33.2272 28.1692 33.2092 28.1181 33.0619C27.9921 32.8883 28.1546 32.7799 28.2814 32.7119C28.5119 32.5883 29.2229 32.4666 29.3081 32.2452C29.4135 32.1254 29.3435 31.765 29.3081 31.6386C29.2177 31.3146 29.1744 31.0441 29.0514 30.7519C28.9698 30.5578 28.8266 30.3531 28.9114 30.1219C28.9819 30.0917 29.1339 30.0574 29.1914 30.0052Z" fill="#F3E3D5"/>
<path d="M22.7281 26.4119H23.3814C23.7423 26.4119 24.0348 26.7043 24.0348 27.0652C24.0348 27.426 23.7423 27.7186 23.3814 27.7186H22.7281C22.3673 27.7186 22.0748 27.426 22.0748 27.0652C22.0748 26.7043 22.3673 26.4119 22.7281 26.4119Z" fill="#3B434F"/>
<path d="M33.3681 26.4119H34.0214C34.3823 26.4119 34.6748 26.7043 34.6748 27.0652C34.6748 27.426 34.3823 27.7186 34.0214 27.7186H33.3681C33.0073 27.7186 32.7148 27.426 32.7148 27.0652C32.7148 26.7043 33.0073 26.4119 33.3681 26.4119Z" fill="#3B434F"/>
<path d="M33.9748 29.4919C34.6191 29.4919 35.1414 30.0143 35.1414 30.6586C35.1414 31.3029 34.6191 31.8252 33.9748 31.8252C33.3305 31.8252 32.8081 31.3029 32.8081 30.6586C32.8081 30.0143 33.3305 29.4919 33.9748 29.4919Z" fill="#EDF1F1"/>
<path d="M22.6814 29.4919C23.3258 29.4919 23.8481 30.0143 23.8481 30.6586C23.8481 31.3029 23.3258 31.8252 22.6814 31.8252C22.0371 31.8252 21.5148 31.3029 21.5148 30.6586C21.5148 30.0143 22.0371 29.4919 22.6814 29.4919Z" fill="#EDF1F1"/>
<path d="M31.317 24.767C31.317 24.767 34.111 23.1696 36.1069 24.9295L36.6348 25.0113C36.6348 25.0113 35.9586 22.5507 31.0349 24.1506L31.1719 24.6094L31.317 24.767ZM31.2813 24.6094C31.2813 24.6094 34.1236 22.9768 35.9975 25.0389L36.963 25.0113C36.963 25.0113 35.7589 22.3828 30.8161 24.0413L31.2813 24.7187" fill="#3B434F"/>
<path d="M25.3135 24.7763C25.3135 24.7763 22.529 23.193 20.5398 24.9373L20.0136 25.0185C20.0136 25.0185 20.6875 22.5796 25.5949 24.1654L25.4582 24.62L25.3135 24.7763ZM25.3492 24.62C25.3492 24.62 22.5164 23.0019 20.6487 25.0458L19.6865 25.0185C19.6865 25.0185 20.8866 22.4133 25.8128 24.0571L25.3492 24.7285" fill="#3B434F"/>
<path d="M18.2656 30.4062C18.2656 30.4062 13.5564 28.5546 12.9257 25.7567C12.2952 22.9589 12.8347 21.1977 13.6168 20.6214C13.6168 20.6214 13.2805 16.3141 14.8999 14.9259C14.8999 14.9259 15.6306 11.7984 19.342 10.8177C19.342 10.8177 25.1051 4.739 35.5307 8.95032C35.5307 8.95032 38.0984 11.4334 39.6458 12.3322C39.6898 12.3578 39.733 12.3821 39.7752 12.405C41.3039 13.2334 42.7456 14.9583 43.0327 18.2873C43.0327 18.2873 43.004 21.2663 44.5134 23.2358C44.5134 23.2358 46.1843 28.4226 38.2946 30.2384L37.9984 23.049C37.9984 23.049 34.3485 21.7949 33.9513 18.474C33.9513 18.474 28.6188 20.1546 25.2646 18.3805C25.2646 18.3805 23.1819 17.7525 23.093 18.6607C23.093 18.6607 22.3954 22.4178 18.6511 23.4225L18.2656 30.4062Z" fill="#3B434F"/>
<rect x="0.5" y="0.5" width="55" height="55" rx="27.5" stroke="#DEE2E6"/>
</svg>
