<svg width="40" height="41" viewBox="0 0 40 41" fill="none" xmlns="http://www.w3.org/2000/svg">
<rect y="0.280029" width="40" height="40" rx="4" fill="#198754"/>
<g clip-path="url(#clip0_2_69)">
<path d="M24.3818 22.7914C24.3818 23.8542 24.0362 24.7694 23.345 25.537C22.6538 26.3046 21.756 26.7787 20.6514 26.9593V28.7828C20.6514 28.8801 20.6202 28.96 20.5577 29.0225C20.4952 29.085 20.4153 29.1163 20.318 29.1163H18.9113C18.821 29.1163 18.7429 29.0833 18.6769 29.0173C18.6109 28.9513 18.5779 28.8731 18.5779 28.7828V26.9593C18.1194 26.8968 17.6766 26.7892 17.2493 26.6363C16.8221 26.4835 16.4696 26.3289 16.1917 26.1726C15.9139 26.0163 15.6568 25.8496 15.4206 25.6725C15.1845 25.4953 15.023 25.3651 14.9361 25.2817C14.8493 25.1984 14.7885 25.1359 14.7538 25.0942C14.6357 24.9483 14.6287 24.8059 14.7329 24.667L15.8062 23.2603C15.8548 23.1908 15.9347 23.1491 16.0458 23.1352C16.15 23.1213 16.2334 23.1526 16.2959 23.229C16.2959 23.229 16.3029 23.236 16.3168 23.2499C17.1017 23.9376 17.9457 24.3717 18.8488 24.5523C19.1058 24.6079 19.3629 24.6357 19.6199 24.6357C20.1826 24.6357 20.6775 24.4864 21.1047 24.1876C21.5319 23.8889 21.7455 23.4652 21.7455 22.9164C21.7455 22.7219 21.6934 22.5378 21.5892 22.3642C21.485 22.1905 21.3687 22.0446 21.2402 21.9265C21.1117 21.8084 20.9085 21.6782 20.6306 21.5358C20.3527 21.3934 20.1235 21.2822 19.9429 21.2023C19.7623 21.1225 19.4844 21.0096 19.1093 20.8637C18.8384 20.7525 18.6248 20.6657 18.4685 20.6032C18.3122 20.5407 18.0986 20.4486 17.8276 20.3271C17.5567 20.2055 17.3397 20.0978 17.1764 20.0041C17.0132 19.9103 16.8169 19.787 16.5877 19.6341C16.3584 19.4813 16.1726 19.3337 16.0302 19.1913C15.8878 19.0489 15.7367 18.8787 15.5769 18.6807C15.4172 18.4827 15.2939 18.2813 15.207 18.0764C15.1202 17.8714 15.0473 17.6405 14.9882 17.3834C14.9292 17.1264 14.8997 16.8555 14.8997 16.5707C14.8997 15.6121 15.24 14.7715 15.9208 14.0491C16.6016 13.3266 17.4873 12.8612 18.5779 12.6528V10.7772C18.5779 10.6869 18.6109 10.6088 18.6769 10.5428C18.7429 10.4768 18.821 10.4438 18.9113 10.4438H20.318C20.4153 10.4438 20.4952 10.475 20.5577 10.5376C20.6202 10.6001 20.6514 10.68 20.6514 10.7772V12.6111C21.0474 12.6528 21.4312 12.7327 21.8029 12.8508C22.1745 12.9689 22.4767 13.0852 22.7094 13.1998C22.9421 13.3145 23.1627 13.4447 23.371 13.5906C23.5794 13.7365 23.7149 13.8372 23.7774 13.8928C23.8399 13.9483 23.892 13.997 23.9337 14.0386C24.0518 14.1637 24.0692 14.2957 23.9858 14.4346L23.1418 15.9559C23.0862 16.0601 23.0064 16.1157 22.9022 16.1226C22.8049 16.1435 22.7111 16.1192 22.6208 16.0497C22.6 16.0288 22.5496 15.9872 22.4697 15.9247C22.3898 15.8621 22.2544 15.7701 22.0633 15.6485C21.8723 15.527 21.6691 15.4158 21.4538 15.3151C21.2384 15.2144 20.9797 15.1241 20.6775 15.0442C20.3753 14.9643 20.0784 14.9243 19.7866 14.9243C19.1267 14.9243 18.5883 15.0737 18.1715 15.3724C17.7547 15.6711 17.5463 16.0566 17.5463 16.529C17.5463 16.7096 17.5758 16.8763 17.6349 17.0292C17.6939 17.182 17.7964 17.3261 17.9423 17.4616C18.0881 17.597 18.2253 17.7117 18.3539 17.8054C18.4824 17.8992 18.6769 18.0069 18.9374 18.1285C19.1979 18.25 19.408 18.3438 19.5678 18.4098C19.7275 18.4758 19.9707 18.5713 20.2972 18.6964C20.6653 18.8353 20.9467 18.9447 21.1412 19.0246C21.3357 19.1045 21.5997 19.226 21.9331 19.3893C22.2665 19.5525 22.5288 19.7001 22.7198 19.8321C22.9108 19.9641 23.1262 20.1378 23.3658 20.3531C23.6055 20.5685 23.7896 20.789 23.9181 21.0148C24.0466 21.2405 24.156 21.5063 24.2463 21.8119C24.3366 22.1176 24.3818 22.444 24.3818 22.7914Z" fill="#F8F9FA"/>
</g>
<defs>
<clipPath id="clip0_2_69">
<rect width="10.67" height="19" fill="white" transform="matrix(1 0 0 -1 14.66 29.28)"/>
</clipPath>
</defs>
</svg>
