<svg width="40" height="41" viewBox="0 0 40 41" fill="none" xmlns="http://www.w3.org/2000/svg">
<rect y="0.280029" width="40" height="40" rx="4" fill="#FFC107"/>
<g clip-path="url(#clip0_2_85)">
<path d="M23.8125 21.6446C23.5556 22.4849 23.0764 23.162 22.375 23.6759C21.6736 24.1898 20.8819 24.4467 20 24.4467C19.1181 24.4467 18.3264 24.1898 17.625 23.6759C16.9236 23.162 16.4444 22.4849 16.1875 21.6446C16.1319 21.471 16.1458 21.3026 16.2292 21.1394C16.3125 20.9762 16.4444 20.8668 16.625 20.8113C16.7986 20.7557 16.967 20.7696 17.1302 20.8529C17.2934 20.9363 17.4028 21.0682 17.4583 21.2488C17.6319 21.8043 17.9531 22.254 18.4219 22.5977C18.8906 22.9415 19.4167 23.1134 20 23.1134C20.5833 23.1134 21.1094 22.9415 21.5781 22.5977C22.0469 22.254 22.3681 21.8043 22.5417 21.2488C22.5972 21.0682 22.7083 20.9363 22.875 20.8529C23.0417 20.7696 23.2118 20.7557 23.3854 20.8113C23.559 20.8668 23.6875 20.9762 23.7708 21.1394C23.8542 21.3026 23.8681 21.471 23.8125 21.6446ZM18.276 16.1707C18.276 16.1707 18.3411 16.2358 18.4714 16.366C18.6016 16.4962 18.6667 16.7453 18.6667 17.1134C18.6667 17.4814 18.5365 17.7957 18.276 18.0561C18.0156 18.3165 17.7014 18.4467 17.3333 18.4467C16.9653 18.4467 16.651 18.3165 16.3906 18.0561C16.1302 17.7957 16 17.4814 16 17.1134C16 16.7453 16.1302 16.4311 16.3906 16.1707C16.651 15.9102 16.9653 15.78 17.3333 15.78C17.7014 15.78 18.0156 15.9102 18.276 16.1707ZM23.6094 16.1707C23.6094 16.1707 23.6745 16.2358 23.8047 16.366C23.9349 16.4962 24 16.7453 24 17.1134C24 17.4814 23.8698 17.7957 23.6094 18.0561C23.349 18.3165 23.0347 18.4467 22.6667 18.4467C22.2986 18.4467 21.9844 18.3165 21.724 18.0561C21.4635 17.7957 21.3333 17.4814 21.3333 17.1134C21.3333 16.7453 21.4635 16.4311 21.724 16.1707C21.9844 15.9102 22.2986 15.78 22.6667 15.78C23.0347 15.78 23.349 15.9102 23.6094 16.1707ZM26.1354 22.3686C26.1354 22.3686 26.224 22.1628 26.401 21.7514C26.5781 21.3399 26.6667 20.6828 26.6667 19.78C26.6667 18.8773 26.4896 18.0144 26.1354 17.1915C25.7812 16.3686 25.3073 15.6602 24.7135 15.0665C24.1198 14.4727 23.4115 13.9988 22.5885 13.6446C21.7656 13.2904 20.9028 13.1134 20 13.1134C19.0972 13.1134 18.2344 13.2904 17.4115 13.6446C16.5885 13.9988 15.8802 14.4727 15.2865 15.0665C14.6927 15.6602 14.2188 16.3686 13.8646 17.1915C13.5104 18.0144 13.3333 18.8773 13.3333 19.78C13.3333 20.6828 13.5104 21.5457 13.8646 22.3686C14.2188 23.1915 14.6927 23.8998 15.2865 24.4936C15.8802 25.0873 16.5885 25.5613 17.4115 25.9154C18.2344 26.2696 19.0972 26.4467 20 26.4467C20.9028 26.4467 21.7656 26.2696 22.5885 25.9154C23.4115 25.5613 24.1198 25.0873 24.7135 24.4936C25.3073 23.8998 25.7812 23.1915 26.1354 22.3686ZM26.9271 15.7644C26.9271 15.7644 27.1059 16.0708 27.4635 16.6837C27.8212 17.2965 28 18.3286 28 19.78C28 21.2314 27.6424 22.57 26.9271 23.7957C26.2118 25.0213 25.2413 25.9918 24.0156 26.7071C22.7899 27.4224 21.4514 27.78 20 27.78C18.5486 27.78 17.2101 27.4224 15.9844 26.7071C14.7587 25.9918 13.7882 25.0213 13.0729 23.7957C12.3576 22.57 12 21.2314 12 19.78C12 18.3286 12.3576 16.9901 13.0729 15.7644C13.7882 14.5387 14.7587 13.5682 15.9844 12.8529C17.2101 12.1377 18.5486 11.78 20 11.78C21.4514 11.78 22.7899 12.1377 24.0156 12.8529C25.2413 13.5682 26.2118 14.5387 26.9271 15.7644Z" fill="#F8F9FA"/>
</g>
<defs>
<clipPath id="clip0_2_85">
<rect width="16" height="19" fill="white" transform="matrix(1 0 0 -1 12 29.28)"/>
</clipPath>
</defs>
</svg>
