<svg width="40" height="41" viewBox="0 0 40 41" fill="none" xmlns="http://www.w3.org/2000/svg">
<rect y="0.280029" width="40" height="40" rx="4" fill="#0DCAF0"/>
<g clip-path="url(#clip0_2_93)">
<path d="M26.7266 24.28L27 26.7253C27.0156 26.8712 26.974 27.0014 26.875 27.116C26.7761 27.2253 26.6511 27.28 26.5 27.28H13.5C13.349 27.28 13.224 27.2253 13.125 27.116C13.0261 27.0014 12.9844 26.8712 13 26.7253L13.2735 24.28H26.7266ZM26 17.7253L26.6719 23.78H13.3281L14 17.7253C14.0156 17.6003 14.0703 17.4949 14.1641 17.4089C14.2578 17.323 14.3698 17.28 14.5 17.28H16.5V18.28C16.5 18.5561 16.5977 18.7917 16.793 18.9871C16.9883 19.1824 17.224 19.28 17.5 19.28C17.7761 19.28 18.0117 19.1824 18.2071 18.9871C18.4024 18.7917 18.5 18.5561 18.5 18.28V17.28H21.5V18.28C21.5 18.5561 21.5977 18.7917 21.793 18.9871C21.9883 19.1824 22.224 19.28 22.5 19.28C22.7761 19.28 23.0117 19.1824 23.2071 18.9871C23.4024 18.7917 23.5 18.5561 23.5 18.28V17.28H25.5C25.6302 17.28 25.7422 17.323 25.836 17.4089C25.9297 17.4949 25.9844 17.6003 26 17.7253ZM23 16.28V18.28C23 18.4154 22.9505 18.5326 22.8516 18.6316C22.7526 18.7305 22.6354 18.78 22.5 18.78C22.3646 18.78 22.2474 18.7305 22.1485 18.6316C22.0495 18.5326 22 18.4154 22 18.28V16.28C22 15.7279 21.8047 15.2566 21.4141 14.866C21.0235 14.4753 20.5521 14.28 20 14.28C19.4479 14.28 18.9766 14.4753 18.586 14.866C18.1953 15.2566 18 15.7279 18 16.28V18.28C18 18.4154 17.9505 18.5326 17.8516 18.6316C17.7526 18.7305 17.6354 18.78 17.5 18.78C17.3646 18.78 17.2474 18.7305 17.1485 18.6316C17.0495 18.5326 17 18.4154 17 18.28V16.28C17 15.4519 17.293 14.7449 17.8789 14.1589C18.4649 13.573 19.1719 13.28 20 13.28C20.8281 13.28 21.5352 13.573 22.1211 14.1589C22.7071 14.7449 23 15.4519 23 16.28Z" fill="#F8F9FA"/>
</g>
<defs>
<clipPath id="clip0_2_93">
<rect width="14" height="14" fill="white" transform="matrix(1 0 0 -1 13 27.28)"/>
</clipPath>
</defs>
</svg>
