<svg width="40" height="41" viewBox="0 0 40 41" fill="none" xmlns="http://www.w3.org/2000/svg">
<rect y="0.280029" width="40" height="40" rx="4" fill="#DC3545"/>
<g clip-path="url(#clip0_2_77)">
<path d="M28.3333 11.78C28.7917 11.78 29.184 11.9432 29.5104 12.2696C29.8368 12.596 30 12.9884 30 13.4467V26.1134C30 26.5717 29.8368 26.9641 29.5104 27.2904C29.184 27.6168 28.7917 27.78 28.3333 27.78H11.6667C11.2083 27.78 10.816 27.6168 10.4896 27.2904C10.1632 26.9641 10 26.5717 10 26.1134V13.4467C10 12.9884 10.1632 12.596 10.4896 12.2696C10.816 11.9432 11.2083 11.78 11.6667 11.78H28.3333ZM11.6667 13.1134C11.5764 13.1134 11.4983 13.1463 11.4323 13.2123C11.3663 13.2783 11.3333 13.3564 11.3333 13.4467V15.78H28.6667V13.4467C28.6667 13.3564 28.6337 13.2783 28.5677 13.2123C28.5017 13.1463 28.4236 13.1134 28.3333 13.1134H11.6667ZM28.3333 26.4467C28.4236 26.4467 28.5017 26.4137 28.5677 26.3477C28.6337 26.2818 28.6667 26.2036 28.6667 26.1134V19.78H11.3333V26.1134C11.3333 26.2036 11.3663 26.2818 11.4323 26.3477C11.4983 26.4137 11.5764 26.4467 11.6667 26.4467H28.3333ZM12.6667 25.1134V23.78H15.3333V25.1134H12.6667ZM16.6667 25.1134V23.78H20.6667V25.1134H16.6667Z" fill="#F8F9FA"/>
</g>
<defs>
<clipPath id="clip0_2_77">
<rect width="20" height="19" fill="white" transform="matrix(1 0 0 -1 10 29.28)"/>
</clipPath>
</defs>
</svg>
