<svg width="153" height="18" viewBox="0 0 153 18" fill="none" xmlns="http://www.w3.org/2000/svg">
<g clip-path="url(#clip0_2_4)">
<path d="M11.519 3.35752C11.0865 3.11752 9.84702 3.26602 8.35802 3.72652C5.75202 5.50752 3.55302 8.13202 3.39952 12.3455C3.37152 12.4465 3.11452 12.332 3.06352 12.3005C2.36002 10.952 2.08102 9.53152 2.66852 7.48302C2.77802 7.30052 2.42002 7.07602 2.35552 7.14052C2.22652 7.26952 1.68902 7.84252 1.33202 8.46152C-0.437979 11.532 0.719521 15.466 3.81602 17.188C6.91202 18.9125 10.8215 17.8 12.5455 14.703C14.54 11.129 12.688 4.01052 11.519 3.35752Z" fill="#81B441"/>
<path d="M22.601 5.07249C18.93 5.07249 16.2655 7.80149 16.2655 11.5615C16.2655 15.3525 18.923 18 22.729 18C24.6515 18 26.173 17.399 27.3835 16.1615C27.745 15.771 27.784 15.395 27.784 15.251C27.784 14.638 27.328 14.1925 26.7 14.1925C26.3835 14.1925 26.1185 14.312 25.815 14.593C25.1295 15.2315 24.227 15.884 22.729 15.884C20.646 15.884 18.952 14.32 18.845 12.3115H27.1355C28.037 12.3115 28.475 11.89 28.475 11.0235C28.475 10.7685 28.475 10.584 28.4235 10.221C27.977 6.99749 25.8005 5.07249 22.601 5.07249ZM22.601 7.08549C24.5915 7.08549 25.869 8.35399 25.9475 10.4015H18.8475C19.034 8.50699 20.636 7.08549 22.601 7.08549ZM36.3925 5.07249C34.725 5.07249 33.074 6.03149 32.429 7.36299V6.53999C32.429 5.26499 31.441 5.20049 31.243 5.20049C30.6575 5.20049 30.0315 5.55249 30.0315 6.53999V16.4805C30.0315 17.8045 31.0835 17.8715 31.294 17.8715C31.5045 17.8715 32.557 17.8045 32.557 16.4805V11.152C32.557 8.83349 33.871 7.21399 35.752 7.21399C37.574 7.21399 38.46 8.40949 38.46 10.87V16.481C38.46 17.805 39.5125 17.872 39.723 17.872C39.9335 17.872 40.9855 17.805 40.9855 16.481V10.076C40.9855 7.65699 39.7785 5.07249 36.3925 5.07249ZM52.4125 5.20099C51.829 5.20099 51.4055 5.54149 51.1535 6.21099L47.698 14.9L44.269 6.21099C44.0005 5.53099 43.5805 5.20099 42.9845 5.20099C42.288 5.20099 41.7215 5.74449 41.7215 6.41249C41.7215 6.57799 41.7405 6.79199 41.88 7.12699L45.851 16.5035C46.324 17.6345 47.1025 17.872 47.6725 17.872C48.242 17.872 49.0205 17.6345 49.495 16.504L53.492 7.07549C53.6285 6.74449 53.6495 6.50199 53.6495 6.38699C53.6495 5.71099 53.117 5.20099 52.4125 5.20099ZM59.7565 5.07249C58.141 5.07249 56.6365 5.52249 55.5205 6.33849C55.142 6.59949 54.958 6.92549 54.958 7.33499C54.958 7.89899 55.3885 8.34099 55.9395 8.34099C56.1775 8.34099 56.4445 8.24599 56.689 8.07499C57.6485 7.43549 58.55 7.13699 59.5255 7.13699C61.393 7.13699 62.465 8.08649 62.465 9.74299V10.0175C58.273 10.022 54.01 10.5285 54.01 14.175C54.01 16.7995 56.253 17.9745 58.476 17.9745C60.246 17.9745 61.66 17.273 62.567 15.945V16.5835C62.567 17.5345 63.2055 17.8715 63.7535 17.8715C63.869 17.8715 64.888 17.8355 64.888 16.5835V9.89699C64.887 6.87599 62.9685 5.07249 59.7565 5.07249ZM61.9335 11.877H62.465V12.459C62.465 14.587 61.11 15.962 59.0135 15.962C58.4445 15.962 56.5875 15.8295 56.5875 14.124C56.587 12.1095 59.638 11.877 61.9335 11.877ZM71.464 7.49549C72.569 7.49549 72.625 6.63549 72.625 6.46349C72.625 5.95199 72.32 5.40549 71.464 5.40549H69.1915V3.10749C69.1915 2.08099 68.5255 1.71649 67.9545 1.71649C67.744 1.71649 66.692 1.78349 66.692 3.10749V14.022C66.692 16.5405 67.9345 17.872 70.2855 17.872C70.894 17.872 71.4865 17.7645 71.8745 17.584C72.319 17.362 72.5735 16.9975 72.5735 16.584C72.5735 16.0005 72.15 15.577 71.5665 15.577C71.454 15.577 71.2935 15.605 71.1165 15.656C70.9 15.71 70.7535 15.731 70.5935 15.731C69.637 15.731 69.1915 15.1065 69.1915 13.7655V7.49549H71.464ZM79.8155 5.07249C75.9955 5.07249 73.224 7.77999 73.224 11.51C73.224 13.326 73.8955 14.981 75.114 16.1705C76.3235 17.35 77.993 18 79.815 18C83.587 18 86.432 15.21 86.432 11.5105C86.4325 7.77999 83.649 5.07249 79.8155 5.07249ZM79.8155 15.859C77.196 15.859 75.826 13.6715 75.826 11.5105C75.826 8.54099 77.894 7.18849 79.8155 7.18849C81.737 7.18849 83.805 8.54099 83.805 11.5105C83.805 14.498 81.737 15.859 79.8155 15.859Z" fill="white"/>
<path d="M106.277 5.9685C105.908 5.566 105.449 5.267 104.914 5.08C103.939 4.74 102.605 4.7125 101.545 5.0495C101.048 5.2075 100.59 5.4265 100.184 5.7005C99.7765 5.9765 99.419 6.304 99.121 6.674C99.0275 6.7895 98.9395 6.909 98.8575 7.0315C98.5975 6.3895 98.215 5.89 97.7135 5.5425C97.013 5.0565 96.111 4.81 95.032 4.81C94.481 4.81 93.959 4.898 93.4795 5.071C93.006 5.242 92.568 5.4785 92.1775 5.773C91.794 6.0625 91.4535 6.4095 91.166 6.8035V5.41C91.166 5.201 90.9965 5.0315 90.7875 5.0315H90.178C89.969 5.0315 89.7995 5.201 89.7995 5.41V17.4C89.7995 17.609 89.969 17.7785 90.178 17.7785H90.7875C90.9965 17.7785 91.166 17.609 91.166 17.4V9.8565C91.236 9.502 91.3635 9.1055 91.5455 8.677C91.7295 8.2445 91.9825 7.8315 92.2975 7.4515C92.606 7.0795 92.991 6.765 93.4415 6.516C93.8775 6.2755 94.4015 6.1535 94.9985 6.1535C95.435 6.1535 95.8435 6.2045 96.2115 6.306C96.556 6.401 96.8445 6.5615 97.093 6.797C97.3395 7.0315 97.536 7.358 97.6775 7.767C97.8255 8.194 97.9005 8.7505 97.9005 9.4215V17.4C97.9005 17.609 98.07 17.7785 98.279 17.7785H98.8775C99.0865 17.7785 99.256 17.609 99.256 17.4L99.255 9.447C99.2675 9.2665 99.3135 9.058 99.391 8.828C99.471 8.5915 99.5845 8.3495 99.7285 8.108C99.8745 7.863 100.055 7.6205 100.267 7.3855C100.472 7.157 100.718 6.9495 100.999 6.769C101.279 6.589 101.6 6.4415 101.954 6.3295C102.307 6.219 102.705 6.16 103.138 6.153L103.216 6.1525C103.619 6.1525 103.997 6.203 104.34 6.304C104.684 6.405 104.972 6.5745 105.22 6.824C105.468 7.0715 105.666 7.422 105.809 7.864C105.958 8.3265 106.035 8.9245 106.035 9.6425V17.4C106.035 17.609 106.204 17.7785 106.413 17.7785H107.011C107.22 17.7785 107.39 17.609 107.39 17.4V9.6425C107.39 8.8105 107.297 8.087 107.113 7.4915C106.924 6.8795 106.642 6.367 106.277 5.9685ZM118.41 16.78C118.375 16.6115 118.345 16.4315 118.321 16.2385C118.296 16.0425 118.276 15.8365 118.262 15.619C118.248 15.402 118.241 15.1905 118.241 14.984V8.978C118.241 8.3005 118.124 7.6915 117.893 7.168C117.659 6.6405 117.328 6.1955 116.908 5.845C116.494 5.5005 115.996 5.2375 115.429 5.0645C114.296 4.72 112.839 4.7195 111.704 5.1135C111.124 5.314 110.611 5.5925 110.182 5.9415C109.747 6.2955 109.405 6.7125 109.164 7.182C108.92 7.6585 108.796 8.166 108.796 8.6895C108.796 8.893 108.957 9.06 109.16 9.0675L109.759 9.0895C109.86 9.0975 109.961 9.055 110.035 8.984C110.109 8.913 110.151 8.8145 110.151 8.7115C110.151 8.359 110.232 8.0395 110.398 7.735C110.568 7.425 110.806 7.152 111.105 6.9235C111.413 6.6885 111.782 6.502 112.203 6.368C112.629 6.233 113.102 6.1645 113.607 6.1645C114.682 6.1645 115.51 6.4125 116.067 6.9015C116.618 7.385 116.885 8.0565 116.885 8.9555V10.328H114.394C113.502 10.328 112.687 10.4235 111.97 10.612C111.245 10.8035 110.619 11.0745 110.109 11.418C109.585 11.772 109.178 12.2055 108.899 12.7055C108.617 13.211 108.474 13.769 108.474 14.3635C108.474 14.894 108.572 15.3885 108.766 15.833C108.96 16.2805 109.242 16.671 109.603 16.9945C109.961 17.3155 110.396 17.566 110.895 17.74C111.388 17.912 111.942 17.9995 112.543 17.9995C113.17 17.9995 113.752 17.93 114.269 17.7925C114.784 17.6565 115.258 17.467 115.677 17.23C116.097 16.9925 116.47 16.7135 116.787 16.4L116.924 16.2595L116.937 16.417C116.972 16.8355 117.034 17.201 117.122 17.5045C117.169 17.6665 117.317 17.778 117.485 17.778H118.173C118.382 17.778 118.551 17.6085 118.551 17.3995V17.3C118.551 17.248 118.54 17.196 118.519 17.1485C118.478 17.055 118.442 16.931 118.41 16.78ZM112.543 16.656C112.13 16.656 111.753 16.595 111.42 16.4735C111.09 16.354 110.802 16.188 110.565 15.98C110.332 15.7755 110.149 15.5345 110.02 15.265C109.893 14.9995 109.83 14.7115 109.83 14.408C109.83 14.024 109.925 13.6805 110.119 13.357C110.317 13.028 110.608 12.74 110.984 12.4995C111.376 12.25 111.864 12.052 112.435 11.911C113.016 11.7675 113.686 11.6945 114.427 11.6945H116.885V14.0815C116.707 14.462 116.486 14.8075 116.228 15.1105C115.955 15.431 115.633 15.7095 115.271 15.9395C114.91 16.169 114.498 16.3475 114.046 16.47C113.589 16.593 113.083 16.656 112.543 16.656ZM125.799 4.9565C125.677 4.9095 125.536 4.8735 125.368 4.8475C125.208 4.822 125.025 4.8095 124.822 4.8095C123.76 4.8095 122.86 5.0815 122.146 5.617C121.824 5.858 121.538 6.14 121.288 6.461V5.41C121.288 5.201 121.118 5.0315 120.91 5.0315H120.311C120.102 5.0315 119.933 5.201 119.933 5.41V17.4C119.933 17.609 120.102 17.7785 120.311 17.7785H120.91C121.118 17.7785 121.288 17.609 121.288 17.4V9.577C121.378 9.084 121.521 8.623 121.714 8.205C121.905 7.7885 122.151 7.423 122.445 7.119C122.735 6.82 123.081 6.582 123.476 6.411C123.869 6.2405 124.322 6.154 124.822 6.154C124.947 6.154 125.067 6.1605 125.183 6.1735L125.55 6.2175C125.649 6.2295 125.75 6.202 125.829 6.141C125.908 6.0795 125.96 5.989 125.973 5.8895L126.039 5.3575C126.06 5.184 125.962 5.019 125.799 4.9565ZM130.821 10.5495L136.063 5.687C136.177 5.581 136.215 5.4165 136.158 5.271C136.101 5.1265 135.961 5.031 135.806 5.031H134.952C134.857 5.031 134.765 5.067 134.696 5.132L129.24 10.177L128.471 10.904V0.3785C128.471 0.1695 128.302 0 128.093 0H127.494C127.285 0 127.116 0.1695 127.116 0.3785V17.4C127.116 17.609 127.285 17.7785 127.494 17.7785H128.093C128.302 17.7785 128.471 17.609 128.471 17.4V12.609L129.815 11.454L135.085 17.6455C135.157 17.73 135.263 17.7785 135.374 17.7785H136.16C136.369 17.7785 136.538 17.609 136.538 17.4C136.538 17.278 136.481 17.1695 136.391 17.1005L130.821 10.5495ZM144.749 6.354C144.312 5.866 143.785 5.4815 143.18 5.2135C141.943 4.6645 140.358 4.667 139.072 5.2905C138.418 5.607 137.841 6.0545 137.354 6.6205C136.872 7.181 136.485 7.858 136.204 8.6325C135.925 9.406 135.783 10.2605 135.783 11.172V11.6595C135.783 12.573 135.929 13.425 136.217 14.1915C136.506 14.961 136.909 15.6355 137.415 16.1955C137.923 16.759 138.525 17.205 139.204 17.521C139.887 17.8385 140.631 17.9995 141.415 17.9995C141.922 17.9995 142.396 17.9475 142.822 17.845C143.249 17.742 143.645 17.5975 143.999 17.4145C144.355 17.23 144.679 17.0055 144.961 16.748C145.239 16.4935 145.489 16.2075 145.704 15.8975C145.821 15.727 145.781 15.494 145.612 15.374L145.191 15.075C145.026 14.957 144.797 14.9905 144.673 15.152C144.442 15.4505 144.2 15.6975 143.954 15.887C143.709 16.0765 143.45 16.23 143.184 16.3425C142.918 16.456 142.637 16.5365 142.347 16.583C141.485 16.722 140.531 16.663 139.743 16.274C139.222 16.017 138.764 15.6625 138.383 15.2195C137.998 14.773 137.691 14.239 137.471 13.631C137.251 13.0215 137.139 12.3575 137.139 11.6595V11.384H145.749C145.958 11.384 146.127 11.2145 146.127 11.0055V10.3075C146.127 9.5065 146.005 8.7625 145.766 8.0965C145.524 7.4255 145.182 6.8395 144.749 6.354ZM142.654 6.4855C143.092 6.7015 143.47 6.9975 143.778 7.364C144.09 7.7375 144.336 8.179 144.508 8.6755C144.657 9.1045 144.743 9.559 144.764 10.029H137.225C137.303 9.5735 137.428 9.1415 137.6 8.739C137.822 8.2205 138.113 7.762 138.467 7.378C138.816 6.9985 139.226 6.698 139.684 6.4835C140.582 6.0645 141.779 6.056 142.654 6.4855ZM152.337 16.8575C152.302 16.657 152.114 16.527 151.911 16.549C151.71 16.578 151.523 16.602 151.35 16.6195C151.023 16.654 150.562 16.673 150.191 16.5655C150.04 16.522 149.908 16.438 149.788 16.3065C149.663 16.1705 149.559 15.965 149.48 15.697C149.395 15.4085 149.352 15.0155 149.352 14.5295V6.3975H151.699C151.908 6.3975 152.078 6.228 152.078 6.019V5.4095C152.078 5.2005 151.908 5.031 151.699 5.031H149.352V2.1735C149.352 1.9645 149.182 1.795 148.973 1.795H148.363C148.154 1.795 147.985 1.9645 147.985 2.1735V5.031H146.147C145.938 5.031 145.768 5.2005 145.768 5.4095V6.019C145.768 6.228 145.938 6.3975 146.147 6.3975H147.985V14.53C147.985 15.16 148.045 15.6975 148.165 16.1275C148.291 16.581 148.481 16.952 148.729 17.231C148.985 17.5175 149.3 17.7225 149.667 17.8385C150.006 17.946 150.391 18.0005 150.812 18.0005L151.104 17.9945C151.221 17.9905 151.341 17.9825 151.47 17.971L151.827 17.931C151.964 17.9125 152.088 17.8835 152.194 17.845C152.367 17.782 152.469 17.6045 152.438 17.4235L152.337 16.8575Z" fill="#81B441"/>
</g>
<defs>
<clipPath id="clip0_2_4">
<rect width="152" height="18" fill="white" transform="translate(0.5)"/>
</clipPath>
</defs>
</svg>
