<svg width="33" height="33" viewBox="0 0 33 33" fill="none" xmlns="http://www.w3.org/2000/svg">
<g clip-path="url(#clip0_2_124)">
<path d="M21.1681 31.982C21.1681 31.9393 21.1681 31.854 21.1681 31.726L21.1361 31.438C21.1147 31.4167 21.1041 31.3527 21.1041 31.246C21.0401 29.006 20.9014 26.9153 20.6881 24.974C20.5174 23.502 20.2721 21.9127 19.9521 20.206C19.8667 19.694 19.6907 19.2727 19.4241 18.942C19.1574 18.6113 18.7894 18.35 18.3201 18.158L16.6561 17.486C16.4854 17.4433 16.3574 17.438 16.2721 17.47C16.1867 17.502 16.1121 17.5927 16.0481 17.742C15.6001 18.7873 14.9387 19.662 14.0641 20.366C13.4667 20.8993 12.6774 21.4433 11.6961 21.998C11.5041 22.1047 11.3654 22.2327 11.2801 22.382C11.1947 22.5313 11.1521 22.734 11.1521 22.99C11.1734 24.2273 11.1734 26.0833 11.1521 28.558V31.406H10.1921V22.766C10.1921 22.4673 10.0854 22.2647 9.87206 22.158L8.33605 21.198C7.86672 20.8567 7.49339 20.5793 7.21605 20.366C6.83206 20.046 6.51739 19.7207 6.27206 19.39C6.02672 19.0593 5.71205 18.542 5.32805 17.838L5.20006 17.646C5.15739 17.5393 5.11472 17.47 5.07205 17.438C5.02939 17.406 4.95472 17.4007 4.84805 17.422L4.52805 17.55C3.52539 17.9127 2.80005 18.2327 2.35205 18.51C1.88272 18.83 1.60539 19.2033 1.52005 19.63C1.24272 20.7393 1.01872 21.9447 0.848054 23.246C0.698721 24.2487 0.570721 25.4753 0.464054 26.926C0.293388 28.8887 0.208054 30.382 0.208054 31.406L0.176054 31.982C0.154721 32.6007 0.453388 32.91 1.07205 32.91H20.2721C20.8907 32.91 21.1894 32.6007 21.1681 31.982ZM5.61606 11.502C5.87206 11.6513 6.07472 11.918 6.22405 12.302C6.80006 13.774 7.46139 14.8833 8.20806 15.63C8.91206 16.3127 9.68539 16.6593 10.5281 16.67C11.3707 16.6807 12.1441 16.3553 12.8481 15.694C13.8081 14.862 14.5974 13.646 15.2161 12.046C15.3014 11.8327 15.4401 11.6513 15.6321 11.502C16.0587 11.2247 16.3041 10.8887 16.3681 10.494C16.4321 10.0993 16.3147 9.69934 16.0161 9.294C15.9521 9.23 15.9414 9.134 15.9841 9.006L16.0161 8.974C16.2294 8.29134 16.3361 7.76867 16.3361 7.406C16.3574 6.14734 15.8774 4.98467 14.8961 3.918C14.7894 3.79 14.7254 3.67267 14.7041 3.566C14.6827 3.45934 14.7041 3.342 14.7681 3.214C14.8321 3.086 14.9281 2.90467 15.0561 2.67L15.3121 2.254C14.8854 2.27534 14.4374 2.42467 13.9681 2.702C13.8614 2.766 13.7814 2.78734 13.7281 2.766C13.6747 2.74467 13.6054 2.68067 13.5201 2.574C13.4134 2.33934 13.2961 1.966 13.1681 1.454L13.0401 0.910004C12.8267 1.102 12.6454 1.39 12.4961 1.774C12.4321 1.902 12.3681 1.97134 12.3041 1.982C12.2401 1.99267 12.1441 1.95534 12.0161 1.87L11.7601 1.614C11.4827 1.358 11.2587 1.17667 11.0881 1.07L11.0241 1.262C11.0027 1.326 11.0134 1.44333 11.0561 1.614C11.0774 1.72067 11.0881 1.806 11.0881 1.87C11.0881 1.934 11.0401 1.99267 10.9441 2.046C10.8481 2.09933 10.6507 2.11534 10.3521 2.094H10.1281C7.88805 2.37134 6.26672 3.534 5.26405 5.582C5.00805 6.07267 4.88005 6.606 4.88005 7.182C4.88005 7.65134 4.96539 8.206 5.13605 8.846L5.16806 8.942C5.21072 9.02734 5.23739 9.09667 5.24805 9.15C5.25872 9.20334 5.23205 9.262 5.16806 9.326C4.84805 9.71 4.74672 10.11 4.86405 10.526C4.98139 10.942 5.23205 11.2673 5.61606 11.502ZM6.76805 9.134C8.04806 9.17667 9.16805 9.07 10.1281 8.814C11.3441 8.51534 12.3787 7.93933 13.2321 7.086C13.5094 8.06734 14.0107 8.86734 14.7361 9.486C14.8427 9.59267 14.8747 9.71 14.8321 9.838C14.5334 10.8833 14.2241 11.7367 13.9041 12.398C13.4774 13.294 12.9654 14.0513 12.3681 14.67C11.9627 15.118 11.5361 15.4007 11.0881 15.518C10.6401 15.6353 10.2134 15.598 9.80805 15.406C9.46672 15.278 9.11472 15.022 8.75205 14.638C8.34672 14.19 7.99472 13.646 7.69605 13.006C7.48272 12.5793 7.24805 11.982 6.99205 11.214C6.92805 11.022 6.84272 10.7287 6.73605 10.334C6.62939 9.93934 6.54405 9.646 6.48005 9.454C6.43739 9.30467 6.43739 9.20867 6.48005 9.166C6.52272 9.12334 6.61872 9.11267 6.76805 9.134ZM13.7121 16.782C13.5627 16.7393 13.4667 16.7713 13.4241 16.878C13.2534 17.3473 12.9654 17.774 12.5601 18.158C12.3041 18.3927 11.8987 18.7127 11.3441 19.118L10.8001 19.502C10.7147 19.566 10.6187 19.566 10.5121 19.502L10.0321 19.15C9.47739 18.7447 9.07205 18.4247 8.81605 18.19C8.41072 17.806 8.11206 17.39 7.92005 16.942L7.88805 16.878C7.82406 16.7713 7.76006 16.7287 7.69605 16.75C7.48272 16.814 7.16272 16.878 6.73605 16.942L6.22405 17.038C6.07472 17.0593 6.04272 17.1447 6.12806 17.294L6.28805 17.55C6.71472 18.2753 7.07739 18.8033 7.37606 19.134C7.67472 19.4647 8.03739 19.79 8.46406 20.11C8.74139 20.302 9.15739 20.5793 9.71205 20.942L10.5121 21.454C10.6187 21.518 10.7361 21.5073 10.8641 21.422L12.6561 20.238C13.6374 19.598 14.4694 18.6273 15.1521 17.326C15.2161 17.2407 15.2427 17.1767 15.2321 17.134C15.2214 17.0913 15.1627 17.0593 15.0561 17.038C14.7574 16.9953 14.3094 16.91 13.7121 16.782Z" fill="#FFAA8A"/>
</g>
<defs>
<clipPath id="clip0_2_124">
<rect width="32.31" height="32" fill="white" transform="matrix(1 0 0 -1 0.019989 32.91)"/>
</clipPath>
</defs>
</svg>
