<svg width="33" height="33" viewBox="0 0 33 33" fill="none" xmlns="http://www.w3.org/2000/svg">
<g clip-path="url(#clip0_2_166)">
<path d="M25.3929 9.35801C25.3929 8.86734 25.2222 8.45134 24.8809 8.11001C24.5395 7.76867 24.1342 7.59801 23.6649 7.59801H21.5849C21.5635 7.55534 21.5315 7.48067 21.4889 7.37401L21.3929 7.18201C20.9022 6.30734 20.2355 5.55001 19.3929 4.91001C18.5502 4.27001 17.5902 3.77401 16.5129 3.42201C15.4355 3.07001 14.3155 2.89401 13.1529 2.89401C11.9902 2.89401 10.8702 3.07001 9.79287 3.42201C8.71554 3.77401 7.76087 4.27001 6.92887 4.91001C6.07554 5.59268 5.4142 6.36068 4.94487 7.21401C4.88087 7.29934 4.8062 7.42734 4.72087 7.59801H2.67287C2.20354 7.59801 1.7982 7.77401 1.45687 8.12601C1.11554 8.47801 0.94487 8.89934 0.94487 9.39001V12.398H25.3929V9.35801ZM7.47287 7.59801C7.66487 7.36334 7.9422 7.09668 8.30487 6.79801C8.94487 6.30734 9.68087 5.92867 10.5129 5.66201C11.3449 5.39534 12.2249 5.26201 13.1529 5.26201C14.0809 5.26201 14.9662 5.39534 15.8089 5.66201C16.6515 5.92867 17.3929 6.30734 18.0329 6.79801C18.3102 7.01134 18.5875 7.27801 18.8649 7.59801H7.47287ZM25.9689 25.326H0.36887L0.94487 13.07H25.3929L25.9689 25.326ZM26.0649 27.47H0.24087L0.33687 25.838H26.0009L26.0649 27.47ZM26.1609 29.038C26.1822 29.55 26.0222 29.9927 25.6809 30.366C25.3395 30.7393 24.9235 30.926 24.4329 30.926H1.90487C1.4142 30.926 0.998204 30.7393 0.65687 30.366C0.315537 29.9927 0.155537 29.55 0.17687 29.038L0.24087 28.014H26.0969L26.1609 29.038Z" fill="#FFAA8A"/>
</g>
<defs>
<clipPath id="clip0_2_166">
<rect width="32.31" height="32" fill="white" transform="matrix(1 0 0 -1 0.019989 32.91)"/>
</clipPath>
</defs>
</svg>
