<svg width="21" height="21" viewBox="0 0 21 21" fill="none" xmlns="http://www.w3.org/2000/svg">
<g opacity="0.3" clip-path="url(#clip0_2_1057)">
<path d="M10.06 10.05C9.87333 10.05 9.71333 9.98336 9.58 9.85003C9.44667 9.71669 9.38 9.55669 9.38 9.37003C9.38 9.18336 9.44667 9.02336 9.58 8.89003C9.71333 8.75669 9.87333 8.69003 10.06 8.69003C10.2467 8.69003 10.4067 8.75669 10.54 8.89003C10.6733 9.02336 10.74 9.18336 10.74 9.37003C10.74 9.55669 10.6733 9.71669 10.54 9.85003C10.4067 9.98336 10.2467 10.05 10.06 10.05ZM6.5 10.05C6.31333 10.05 6.15333 9.98336 6.02 9.85003C5.88667 9.71669 5.82 9.55669 5.82 9.37003C5.82 9.18336 5.88667 9.02336 6.02 8.89003C6.15333 8.75669 6.31333 8.69003 6.5 8.69003C6.68667 8.69003 6.84667 8.75669 6.98 8.89003C7.11333 9.02336 7.18 9.18336 7.18 9.37003C7.18 9.55669 7.11333 9.71669 6.98 9.85003C6.84667 9.98336 6.68667 10.05 6.5 10.05ZM4.74 10.05C4.55333 10.05 4.39333 9.98336 4.26 9.85003C4.12667 9.71669 4.06 9.55669 4.06 9.37003C4.06 9.18336 4.12667 9.02336 4.26 8.89003C4.39333 8.75669 4.55333 8.69003 4.74 8.69003C4.92667 8.69003 5.08333 8.75669 5.21 8.89003C5.33667 9.02336 5.4 9.18336 5.4 9.37003C5.4 9.55669 5.33667 9.71669 5.21 9.85003C5.08333 9.98336 4.92667 10.05 4.74 10.05ZM2.94 10.05C2.75333 10.05 2.59667 9.98336 2.47 9.85003C2.34333 9.71669 2.28 9.55669 2.28 9.37003C2.28 9.18336 2.34333 9.02336 2.47 8.89003C2.59667 8.75669 2.75333 8.69003 2.94 8.69003C3.12667 8.69003 3.28667 8.75669 3.42 8.89003C3.55333 9.02336 3.62 9.18336 3.62 9.37003C3.62 9.55669 3.55333 9.71669 3.42 9.85003C3.28667 9.98336 3.12667 10.05 2.94 10.05ZM4.74 11.81C4.55333 11.81 4.39333 11.7467 4.26 11.62C4.12667 11.4934 4.06 11.3367 4.06 11.15C4.06 10.9634 4.12667 10.8034 4.26 10.67C4.39333 10.5367 4.55333 10.47 4.74 10.47C4.92667 10.47 5.08333 10.5367 5.21 10.67C5.33667 10.8034 5.4 10.96 5.4 11.14C5.4 11.32 5.33667 11.4767 5.21 11.61C5.08333 11.7434 4.92667 11.81 4.74 11.81ZM8.28 11.81C8.09333 11.81 7.93333 11.7434 7.8 11.61C7.66667 11.4767 7.6 11.32 7.6 11.14C7.6 10.96 7.66667 10.8034 7.8 10.67C7.93333 10.5367 8.09333 10.47 8.28 10.47C8.46667 10.47 8.62333 10.5367 8.75 10.67C8.87667 10.8034 8.94 10.96 8.94 11.14C8.94 11.32 8.87667 11.4767 8.75 11.61C8.62333 11.7434 8.46667 11.81 8.28 11.81ZM1.18 8.27003C0.993333 8.27003 0.833333 8.20336 0.7 8.07003C0.566667 7.93669 0.5 7.77669 0.5 7.59003C0.5 7.40336 0.566667 7.24336 0.7 7.11003C0.833333 6.97669 0.993333 6.91003 1.18 6.91003C1.36667 6.91003 1.52667 6.97669 1.66 7.11003C1.79333 7.24336 1.86 7.40336 1.86 7.59003C1.86 7.77669 1.79333 7.93669 1.66 8.07003C1.52667 8.20336 1.36667 8.27003 1.18 8.27003ZM6.5 13.59C6.31333 13.59 6.15333 13.5234 6.02 13.39C5.88667 13.2567 5.82 13.0967 5.82 12.91C5.82 12.7234 5.88667 12.5634 6.02 12.43C6.15333 12.2967 6.31333 12.23 6.5 12.23C6.68667 12.23 6.84667 12.2967 6.98 12.43C7.11333 12.5634 7.18 12.7234 7.18 12.91C7.18 13.0967 7.11333 13.2567 6.98 13.39C6.84667 13.5234 6.68667 13.59 6.5 13.59ZM6.5 11.81C6.31333 11.81 6.15333 11.7467 6.02 11.62C5.88667 11.4934 5.82 11.3367 5.82 11.15C5.82 10.9634 5.88667 10.8034 6.02 10.67C6.15333 10.5367 6.31333 10.47 6.5 10.47C6.68667 10.47 6.84667 10.5367 6.98 10.67C7.11333 10.8034 7.18 10.9634 7.18 11.15C7.18 11.3367 7.11333 11.4934 6.98 11.62C6.84667 11.7467 6.68667 11.81 6.5 11.81ZM8.28 10.05C8.09333 10.05 7.93333 9.98336 7.8 9.85003C7.66667 9.71669 7.6 9.55669 7.6 9.37003C7.6 9.18336 7.66667 9.02336 7.8 8.89003C7.93333 8.75669 8.09333 8.69003 8.28 8.69003C8.46667 8.69003 8.62333 8.75669 8.75 8.89003C8.87667 9.02336 8.94 9.18336 8.94 9.37003C8.94 9.55669 8.87667 9.71669 8.75 9.85003C8.62333 9.98336 8.46667 10.05 8.28 10.05ZM11.82 8.27003C11.6333 8.27003 11.4733 8.20336 11.34 8.07003C11.2067 7.93669 11.14 7.77669 11.14 7.59003C11.14 7.40336 11.2067 7.24336 11.34 7.11003C11.4733 6.97669 11.6333 6.91003 11.82 6.91003C12.0067 6.91003 12.1667 6.97669 12.3 7.11003C12.4333 7.24336 12.5 7.40336 12.5 7.59003C12.5 7.77669 12.4333 7.93669 12.3 8.07003C12.1667 8.20336 12.0067 8.27003 11.82 8.27003ZM2.94 8.27003C2.75333 8.27003 2.59667 8.20336 2.47 8.07003C2.34333 7.93669 2.28 7.77669 2.28 7.59003C2.28 7.40336 2.34667 7.24336 2.48 7.11003C2.61333 6.97669 2.77 6.91003 2.95 6.91003C3.13 6.91003 3.28667 6.97669 3.42 7.11003C3.55333 7.24336 3.62 7.40336 3.62 7.59003C3.62 7.77669 3.55333 7.93669 3.42 8.07003C3.28667 8.20336 3.12667 8.27003 2.94 8.27003ZM10.06 8.27003C9.87333 8.27003 9.71333 8.20336 9.58 8.07003C9.44667 7.93669 9.38 7.77669 9.38 7.59003C9.38 7.40336 9.44667 7.24336 9.58 7.11003C9.71333 6.97669 9.87333 6.91003 10.06 6.91003C10.2467 6.91003 10.4067 6.97669 10.54 7.11003C10.6733 7.24336 10.74 7.40336 10.74 7.59003C10.74 7.77669 10.6733 7.93669 10.54 8.07003C10.4067 8.20336 10.2467 8.27003 10.06 8.27003ZM6.5 8.27003C6.31333 8.27003 6.15333 8.20336 6.02 8.07003C5.88667 7.93669 5.82 7.77669 5.82 7.59003C5.82 7.40336 5.88667 7.24336 6.02 7.11003C6.15333 6.97669 6.31333 6.91003 6.5 6.91003C6.68667 6.91003 6.84667 6.97669 6.98 7.11003C7.11333 7.24336 7.18 7.40336 7.18 7.59003C7.18 7.77669 7.11333 7.93669 6.98 8.07003C6.84667 8.20336 6.68667 8.27003 6.5 8.27003ZM8.28 8.27003C8.09333 8.27003 7.93333 8.20336 7.8 8.07003C7.66667 7.93669 7.6 7.77669 7.6 7.59003C7.6 7.40336 7.67 7.24336 7.81 7.11003C7.95 6.97669 8.10667 6.91003 8.28 6.91003C8.45333 6.91003 8.60667 6.97669 8.74 7.11003C8.87333 7.24336 8.94 7.40336 8.94 7.59003C8.94 7.77669 8.87667 7.93669 8.75 8.07003C8.62333 8.20336 8.46667 8.27003 8.28 8.27003ZM4.74 8.27003C4.55333 8.27003 4.39333 8.20336 4.26 8.07003C4.12667 7.93669 4.06 7.77669 4.06 7.59003C4.06 7.40336 4.12667 7.24336 4.26 7.11003C4.39333 6.97669 4.55 6.91003 4.73 6.91003C4.91 6.91003 5.06667 6.97669 5.2 7.11003C5.33333 7.24336 5.4 7.40336 5.4 7.59003C5.4 7.77669 5.33667 7.93669 5.21 8.07003C5.08333 8.20336 4.92667 8.27003 4.74 8.27003Z" fill="white"/>
</g>
<defs>
<clipPath id="clip0_2_1057">
<rect width="20" height="20" fill="white" transform="matrix(1 0 0 -1 0.5 20.25)"/>
</clipPath>
</defs>
</svg>
