<svg width="21" height="21" viewBox="0 0 21 21" fill="none" xmlns="http://www.w3.org/2000/svg">
<g clip-path="url(#clip0_2_1054)">
<path d="M5.68 12.55C5.25333 12.55 4.89 12.7 4.59 13C4.29 13.3 4.14 13.6633 4.14 14.09C4.14 14.5167 4.29 14.88 4.59 15.18C4.89 15.48 5.25333 15.63 5.68 15.63C6.10667 15.63 6.47 15.48 6.77 15.18C7.07 14.88 7.22 14.5167 7.22 14.09C7.22 13.6633 7.07 13.3 6.77 13C6.47 12.7 6.10667 12.55 5.68 12.55ZM5.68 14.85C5.46667 14.85 5.28333 14.7767 5.13 14.63C4.97667 14.4833 4.9 14.3033 4.9 14.09C4.9 13.8767 4.97667 13.6933 5.13 13.54C5.28333 13.3867 5.46667 13.31 5.68 13.31C5.89333 13.31 6.07333 13.3867 6.22 13.54C6.36667 13.6933 6.44 13.8767 6.44 14.09C6.44 14.3033 6.36667 14.4833 6.22 14.63C6.07333 14.7767 5.89333 14.85 5.68 14.85ZM4.34 12.55H0.9C0.833333 12.55 0.773333 12.5733 0.72 12.62C0.666667 12.6667 0.64 12.7233 0.64 12.79V13.55C0.64 13.6167 0.666667 13.6733 0.72 13.72C0.773333 13.7667 0.833333 13.79 0.9 13.79H3.66C3.74 13.2967 3.96667 12.8833 4.34 12.55ZM13.74 12.55C13.3133 12.55 12.95 12.7 12.65 13C12.35 13.3 12.2 13.6633 12.2 14.09C12.2 14.5167 12.35 14.88 12.65 15.18C12.95 15.48 13.3133 15.63 13.74 15.63C14.1667 15.63 14.53 15.48 14.83 15.18C15.13 14.88 15.2767 14.5167 15.27 14.09C15.2633 13.6633 15.1133 13.3 14.82 13C14.5267 12.7 14.1667 12.55 13.74 12.55ZM13.74 14.85C13.5267 14.85 13.3433 14.7767 13.19 14.63C13.0367 14.4833 12.96 14.3033 12.96 14.09C12.96 13.8767 13.0367 13.6933 13.19 13.54C13.3433 13.3867 13.5267 13.31 13.74 13.31C13.9533 13.31 14.1333 13.3867 14.28 13.54C14.4267 13.6933 14.5 13.8767 14.5 14.09C14.5 14.3033 14.4267 14.4833 14.28 14.63C14.1333 14.7767 13.9533 14.85 13.74 14.85ZM17.74 12.55H17.14V9.19C17.14 8.79001 17.0267 8.41667 16.8 8.07L15.3 5.85001C15.1133 5.57001 14.8733 5.35334 14.58 5.20001C14.2867 5.04667 13.98 4.97001 13.66 4.97001H11.32C11.1867 4.97001 11.07 5.01667 10.97 5.11001C10.87 5.20334 10.82 5.32334 10.82 5.47001V12.55H7C7.4 12.8967 7.62667 13.31 7.68 13.79H11.72C11.7867 13.2967 12.01 12.8833 12.39 12.55C12.77 12.2167 13.22 12.05 13.74 12.05C14.26 12.05 14.7067 12.2167 15.08 12.55C15.4533 12.8833 15.6733 13.2967 15.74 13.79H17.74C17.8067 13.79 17.8667 13.7667 17.92 13.72C17.9733 13.6733 18 13.6167 18 13.55V12.79C18 12.7233 17.9733 12.6667 17.92 12.62C17.8667 12.5733 17.8067 12.55 17.74 12.55ZM15.28 8.53H12.2C12.1333 8.53 12.0733 8.50334 12.02 8.45001C11.9667 8.39667 11.94 8.33667 11.94 8.27001V6.57001C11.94 6.50334 11.9667 6.44334 12.02 6.39001C12.0733 6.33667 12.1333 6.31001 12.2 6.31001H14.08C14.1733 6.31001 14.24 6.35001 14.28 6.43001L15.48 8.13C15.5467 8.21001 15.5567 8.29667 15.51 8.39001C15.4633 8.48334 15.3867 8.53 15.28 8.53ZM9.64 12.05H0.98C0.846667 12.05 0.733333 12 0.64 11.9C0.546667 11.8 0.5 11.6833 0.5 11.55V9.33001C0.5 9.19667 0.546667 9.08001 0.64 8.98001C0.733333 8.88 0.846667 8.83001 0.98 8.83001H9.64C9.78667 8.83001 9.90667 8.87667 10 8.97001C10.0933 9.06334 10.14 9.18334 10.14 9.33001V11.55C10.14 11.6833 10.0933 11.8 10 11.9C9.90667 12 9.78667 12.05 9.64 12.05ZM4.46 8.09H0.98C0.846667 8.09 0.733333 8.04334 0.64 7.95001C0.546667 7.85667 0.5 7.74334 0.5 7.61001V5.37C0.5 5.23667 0.546667 5.12 0.64 5.02001C0.733333 4.92 0.846667 4.87 0.98 4.87H4.44C4.58667 4.87 4.70667 4.91667 4.8 5.01C4.89333 5.10334 4.94 5.22334 4.94 5.37V7.59C4.94 7.72334 4.89333 7.84 4.8 7.94C4.70667 8.04001 4.59333 8.09 4.46 8.09ZM9.64 8.09H6.18C6.04667 8.09 5.93 8.04334 5.83 7.95001C5.73 7.85667 5.68 7.74334 5.68 7.61001V5.37C5.68 5.23667 5.73 5.12 5.83 5.02001C5.93 4.92 6.04667 4.87 6.18 4.87H9.64C9.77333 4.87 9.89 4.92 9.99 5.02001C10.09 5.12 10.14 5.23667 10.14 5.37V7.61001C10.14 7.74334 10.09 7.85667 9.99 7.95001C9.89 8.04334 9.77333 8.09 9.64 8.09Z" fill="white"/>
</g>
<defs>
<clipPath id="clip0_2_1054">
<rect width="20" height="20" fill="white" transform="matrix(1 0 0 -1 0.5 20.25)"/>
</clipPath>
</defs>
</svg>
