<svg width="33" height="33" viewBox="0 0 33 33" fill="none" xmlns="http://www.w3.org/2000/svg">
<g clip-path="url(#clip0_2_180)">
<path d="M5.20907 16.366H2.07307C1.73174 16.366 1.43841 16.4833 1.19307 16.718C0.94774 16.9527 0.825073 17.2407 0.825073 17.582V29.454C0.825073 29.7953 0.94774 30.0887 1.19307 30.334C1.43841 30.5793 1.73174 30.702 2.07307 30.702H5.20907C5.57174 30.702 5.87574 30.5793 6.12107 30.334C6.36641 30.0887 6.48907 29.7953 6.48907 29.454V17.614C6.46774 17.2513 6.33441 16.9527 6.08907 16.718C5.84374 16.4833 5.55041 16.366 5.20907 16.366ZM12.6331 20.11H9.52907C9.16641 20.11 8.86241 20.2327 8.61707 20.478C8.37174 20.7233 8.24907 21.0167 8.24907 21.358V29.454C8.24907 29.7953 8.37174 30.0887 8.61707 30.334C8.86241 30.5793 9.16641 30.702 9.52907 30.702H12.6651C13.0277 30.702 13.3264 30.5793 13.5611 30.334C13.7957 30.0887 13.9131 29.7953 13.9131 29.454V21.358C13.9131 21.0167 13.7904 20.7233 13.5451 20.478C13.2997 20.2327 12.9957 20.11 12.6331 20.11ZM20.0891 20.11H16.9851C16.6224 20.11 16.3184 20.2327 16.0731 20.478C15.8277 20.7233 15.7051 21.0167 15.7051 21.358V29.454C15.7051 29.7953 15.8277 30.0887 16.0731 30.334C16.3184 30.5793 16.6224 30.702 16.9851 30.702H20.0891C20.4517 30.702 20.7557 30.5793 21.0011 30.334C21.2464 30.0887 21.3691 29.7953 21.3691 29.454V21.358C21.3691 21.0167 21.2464 20.7233 21.0011 20.478C20.7557 20.2327 20.4517 20.11 20.0891 20.11ZM27.5451 16.366H24.4091C24.0677 16.366 23.7744 16.4833 23.5291 16.718C23.2837 16.9527 23.1611 17.2407 23.1611 17.582V29.454C23.1611 29.7953 23.2837 30.0887 23.5291 30.334C23.7744 30.5793 24.0677 30.702 24.4091 30.702H27.5451C27.9077 30.702 28.2117 30.5793 28.4571 30.334C28.7024 30.0887 28.8251 29.7953 28.8251 29.454V17.614C28.8251 17.2727 28.7024 16.9793 28.4571 16.734C28.2117 16.4887 27.9077 16.366 27.5451 16.366ZM18.1691 5.61401C18.0837 5.57134 18.0304 5.53934 18.0091 5.51801L14.3611 4.39801C13.7211 4.20601 13.1237 4.21668 12.5691 4.43001C12.2491 4.55801 11.9611 4.75001 11.7051 5.00601C11.5557 5.13401 11.4384 5.27268 11.3531 5.42201L9.75307 9.16601C9.66774 9.37934 9.68907 9.64601 9.81707 9.96601C10.0517 10.3927 10.4037 10.6593 10.8731 10.766C11.1077 10.83 11.3531 10.8247 11.6091 10.75C11.8651 10.6753 12.0891 10.5313 12.2811 10.318C12.3451 10.2753 12.4197 10.19 12.5051 10.062L13.0811 9.00601C13.1877 8.83534 13.3051 8.68601 13.4331 8.55801C13.7531 8.23801 14.0197 8.18468 14.2331 8.39801C14.5744 8.71801 15.5237 9.64601 17.0811 11.182L19.3211 13.39C19.4064 13.454 19.4437 13.5447 19.4331 13.662C19.4224 13.7793 19.3637 13.8913 19.2571 13.998C19.1504 14.1047 19.0384 14.1633 18.9211 14.174C18.8037 14.1847 18.7024 14.1473 18.6171 14.062L17.4331 12.878C17.3477 12.7927 17.2517 12.75 17.1451 12.75C17.0384 12.75 16.9477 12.7927 16.8731 12.878C16.7984 12.9633 16.7611 13.054 16.7611 13.15C16.7611 13.246 16.7931 13.3367 16.8571 13.422L18.0731 14.606C18.1584 14.6913 18.1957 14.7927 18.1851 14.91C18.1744 15.0273 18.1211 15.1287 18.0251 15.214C17.9291 15.2993 17.8171 15.3527 17.6891 15.374C17.5611 15.3953 17.4544 15.374 17.3691 15.31L16.1851 14.126C16.0997 14.0407 16.0037 13.998 15.8971 13.998C15.7904 13.998 15.6944 14.0353 15.6091 14.11C15.5237 14.1847 15.4811 14.2753 15.4811 14.382C15.4811 14.4887 15.5237 14.5847 15.6091 14.67L16.8251 15.854C16.8891 15.9393 16.9104 16.0407 16.8891 16.158C16.8677 16.2753 16.8091 16.382 16.7131 16.478C16.6171 16.574 16.5104 16.6273 16.3931 16.638C16.2757 16.6487 16.1851 16.6113 16.1211 16.526L14.9051 15.374C14.8197 15.2887 14.7237 15.246 14.6171 15.246C14.5104 15.246 14.4197 15.2833 14.3451 15.358C14.2704 15.4327 14.2331 15.5233 14.2331 15.63C14.2331 15.7367 14.2757 15.8327 14.3611 15.918L15.5451 17.102C15.6304 17.166 15.6677 17.2567 15.6571 17.374C15.6464 17.4913 15.5877 17.6033 15.4811 17.71C15.3744 17.8167 15.2624 17.8753 15.1451 17.886C15.0277 17.8967 14.9264 17.8593 14.8411 17.774L13.3691 16.334C13.4757 16.1633 13.5131 15.982 13.4811 15.79C13.4491 15.598 13.3531 15.422 13.1931 15.262C13.0331 15.102 12.8357 15.0167 12.6011 15.006C12.3664 14.9953 12.1744 15.0647 12.0251 15.214C12.1744 15.0647 12.2437 14.8727 12.2331 14.638C12.2224 14.4033 12.1317 14.2007 11.9611 14.03C11.7904 13.8593 11.5877 13.7687 11.3531 13.758C11.1184 13.7473 10.9264 13.8167 10.7771 13.966C10.9264 13.7953 10.9904 13.598 10.9691 13.374C10.9477 13.15 10.8571 12.958 10.6971 12.798C10.5371 12.638 10.3397 12.5473 10.1051 12.526C9.87041 12.5047 9.66774 12.5687 9.49707 12.718C9.64641 12.5687 9.71574 12.382 9.70507 12.158C9.69441 11.934 9.60374 11.7367 9.43307 11.566C9.26241 11.3953 9.07041 11.2993 8.85707 11.278C8.64374 11.2567 8.46241 11.31 8.31307 11.438L5.94507 9.10201C5.85974 9.03801 5.76374 9.00601 5.65707 9.00601C5.55041 9.00601 5.45441 9.04334 5.36907 9.11801C5.28374 9.19268 5.24107 9.28334 5.24107 9.39001C5.24107 9.49668 5.28374 9.58201 5.36907 9.64601L7.73707 11.982L7.03307 12.654C6.88374 12.8033 6.81441 12.9953 6.82507 13.23C6.83574 13.4647 6.92641 13.6673 7.09707 13.838C7.26774 14.0087 7.47574 14.0993 7.72107 14.11C7.96641 14.1207 8.16374 14.0513 8.31307 13.902C8.16374 14.0513 8.09441 14.2433 8.10507 14.478C8.11574 14.7127 8.20641 14.9153 8.37707 15.086C8.54774 15.2567 8.75041 15.3473 8.98507 15.358C9.21974 15.3687 9.41174 15.2993 9.56107 15.15C9.41174 15.2993 9.34241 15.486 9.35307 15.71C9.36374 15.934 9.45441 16.1313 9.62507 16.302C9.79574 16.4727 9.99841 16.5687 10.2331 16.59C10.4677 16.6113 10.6704 16.5473 10.8411 16.398C10.6917 16.5473 10.6224 16.734 10.6331 16.958C10.6437 17.182 10.7344 17.3793 10.9051 17.55C11.0757 17.7207 11.2784 17.8113 11.5131 17.822C11.7477 17.8327 11.9397 17.7633 12.0891 17.614L12.8251 16.91L14.2971 18.318C14.5104 18.5313 14.7931 18.6327 15.1451 18.622C15.4971 18.6113 15.7904 18.4887 16.0251 18.254C16.2597 18.0193 16.3984 17.7313 16.4411 17.39C16.7611 17.39 17.0491 17.2673 17.3051 17.022C17.5611 16.7767 17.6891 16.494 17.6891 16.174C18.0517 16.1313 18.3451 15.998 18.5691 15.774C18.7931 15.55 18.9264 15.2673 18.9691 14.926C19.2891 14.8833 19.5717 14.7447 19.8171 14.51C20.0624 14.2753 20.1904 13.9873 20.2011 13.646C20.2117 13.3047 20.1104 13.0273 19.8971 12.814L19.2891 12.206L21.7851 9.74201C21.8704 9.67801 21.9131 9.59268 21.9131 9.48601C21.9131 9.37934 21.8704 9.28334 21.7851 9.19801L18.1691 5.61401ZM24.1211 6.51001L20.9211 3.34201C20.7717 3.19268 20.5904 3.11801 20.3771 3.11801C20.1637 3.11801 19.9717 3.19268 19.8011 3.34201L18.6811 4.46201C18.5317 4.61134 18.4571 4.79268 18.4571 5.00601C18.4571 5.21934 18.5317 5.40068 18.6811 5.55001L21.8811 8.68601C22.0517 8.83534 22.2437 8.91001 22.4571 8.91001C22.6704 8.91001 22.8517 8.83534 23.0011 8.68601L24.1211 7.59801C24.2917 7.44868 24.3771 7.26734 24.3771 7.05401C24.3771 6.84068 24.2917 6.65934 24.1211 6.51001ZM22.4251 8.11001C22.2544 8.11001 22.1051 8.04601 21.9771 7.91801C21.8491 7.79001 21.7851 7.64068 21.7851 7.47001C21.7851 7.29934 21.8491 7.15001 21.9771 7.02201C22.1051 6.89401 22.2544 6.83001 22.4251 6.83001C22.5957 6.83001 22.7504 6.89401 22.8891 7.02201C23.0277 7.15001 23.0971 7.29934 23.0971 7.47001C23.0971 7.64068 23.0331 7.79001 22.9051 7.91801C22.7771 8.04601 22.6171 8.11001 22.4251 8.11001Z" fill="#A883BA"/>
</g>
<defs>
<clipPath id="clip0_2_180">
<rect width="32.31" height="32" fill="white" transform="matrix(1 0 0 -1 0.670044 32.91)"/>
</clipPath>
</defs>
</svg>
