<svg width="21" height="21" viewBox="0 0 21 21" fill="none" xmlns="http://www.w3.org/2000/svg">
<g opacity="0.3" clip-path="url(#clip0_2_1081)">
<path d="M10.06 10.05C9.87333 10.05 9.71333 9.98333 9.58 9.85C9.44667 9.71666 9.38 9.55666 9.38 9.37C9.38 9.18333 9.44667 9.02333 9.58 8.89C9.71333 8.75666 9.87333 8.69 10.06 8.69C10.2467 8.69 10.4067 8.75666 10.54 8.89C10.6733 9.02333 10.74 9.18333 10.74 9.37C10.74 9.55666 10.6733 9.71666 10.54 9.85C10.4067 9.98333 10.2467 10.05 10.06 10.05ZM6.5 10.05C6.31333 10.05 6.15333 9.98333 6.02 9.85C5.88667 9.71666 5.82 9.55666 5.82 9.37C5.82 9.18333 5.88667 9.02333 6.02 8.89C6.15333 8.75666 6.31333 8.69 6.5 8.69C6.68667 8.69 6.84667 8.75666 6.98 8.89C7.11333 9.02333 7.18 9.18333 7.18 9.37C7.18 9.55666 7.11333 9.71666 6.98 9.85C6.84667 9.98333 6.68667 10.05 6.5 10.05ZM4.74 10.05C4.55333 10.05 4.39333 9.98333 4.26 9.85C4.12667 9.71666 4.06 9.55666 4.06 9.37C4.06 9.18333 4.12667 9.02333 4.26 8.89C4.39333 8.75666 4.55333 8.69 4.74 8.69C4.92667 8.69 5.08333 8.75666 5.21 8.89C5.33667 9.02333 5.4 9.18333 5.4 9.37C5.4 9.55666 5.33667 9.71666 5.21 9.85C5.08333 9.98333 4.92667 10.05 4.74 10.05ZM2.94 10.05C2.75333 10.05 2.59667 9.98333 2.47 9.85C2.34333 9.71666 2.28 9.55666 2.28 9.37C2.28 9.18333 2.34333 9.02333 2.47 8.89C2.59667 8.75666 2.75333 8.69 2.94 8.69C3.12667 8.69 3.28667 8.75666 3.42 8.89C3.55333 9.02333 3.62 9.18333 3.62 9.37C3.62 9.55666 3.55333 9.71666 3.42 9.85C3.28667 9.98333 3.12667 10.05 2.94 10.05ZM4.74 11.81C4.55333 11.81 4.39333 11.7467 4.26 11.62C4.12667 11.4933 4.06 11.3367 4.06 11.15C4.06 10.9633 4.12667 10.8033 4.26 10.67C4.39333 10.5367 4.55333 10.47 4.74 10.47C4.92667 10.47 5.08333 10.5367 5.21 10.67C5.33667 10.8033 5.4 10.96 5.4 11.14C5.4 11.32 5.33667 11.4767 5.21 11.61C5.08333 11.7433 4.92667 11.81 4.74 11.81ZM8.28 11.81C8.09333 11.81 7.93333 11.7433 7.8 11.61C7.66667 11.4767 7.6 11.32 7.6 11.14C7.6 10.96 7.66667 10.8033 7.8 10.67C7.93333 10.5367 8.09333 10.47 8.28 10.47C8.46667 10.47 8.62333 10.5367 8.75 10.67C8.87667 10.8033 8.94 10.96 8.94 11.14C8.94 11.32 8.87667 11.4767 8.75 11.61C8.62333 11.7433 8.46667 11.81 8.28 11.81ZM1.18 8.27C0.993333 8.27 0.833333 8.20333 0.7 8.07C0.566667 7.93666 0.5 7.77666 0.5 7.59C0.5 7.40333 0.566667 7.24333 0.7 7.11C0.833333 6.97666 0.993333 6.91 1.18 6.91C1.36667 6.91 1.52667 6.97666 1.66 7.11C1.79333 7.24333 1.86 7.40333 1.86 7.59C1.86 7.77666 1.79333 7.93666 1.66 8.07C1.52667 8.20333 1.36667 8.27 1.18 8.27ZM6.5 13.59C6.31333 13.59 6.15333 13.5233 6.02 13.39C5.88667 13.2567 5.82 13.0967 5.82 12.91C5.82 12.7233 5.88667 12.5633 6.02 12.43C6.15333 12.2967 6.31333 12.23 6.5 12.23C6.68667 12.23 6.84667 12.2967 6.98 12.43C7.11333 12.5633 7.18 12.7233 7.18 12.91C7.18 13.0967 7.11333 13.2567 6.98 13.39C6.84667 13.5233 6.68667 13.59 6.5 13.59ZM6.5 11.81C6.31333 11.81 6.15333 11.7467 6.02 11.62C5.88667 11.4933 5.82 11.3367 5.82 11.15C5.82 10.9633 5.88667 10.8033 6.02 10.67C6.15333 10.5367 6.31333 10.47 6.5 10.47C6.68667 10.47 6.84667 10.5367 6.98 10.67C7.11333 10.8033 7.18 10.9633 7.18 11.15C7.18 11.3367 7.11333 11.4933 6.98 11.62C6.84667 11.7467 6.68667 11.81 6.5 11.81ZM8.28 10.05C8.09333 10.05 7.93333 9.98333 7.8 9.85C7.66667 9.71666 7.6 9.55666 7.6 9.37C7.6 9.18333 7.66667 9.02333 7.8 8.89C7.93333 8.75666 8.09333 8.69 8.28 8.69C8.46667 8.69 8.62333 8.75666 8.75 8.89C8.87667 9.02333 8.94 9.18333 8.94 9.37C8.94 9.55666 8.87667 9.71666 8.75 9.85C8.62333 9.98333 8.46667 10.05 8.28 10.05ZM11.82 8.27C11.6333 8.27 11.4733 8.20333 11.34 8.07C11.2067 7.93666 11.14 7.77666 11.14 7.59C11.14 7.40333 11.2067 7.24333 11.34 7.11C11.4733 6.97666 11.6333 6.91 11.82 6.91C12.0067 6.91 12.1667 6.97666 12.3 7.11C12.4333 7.24333 12.5 7.40333 12.5 7.59C12.5 7.77666 12.4333 7.93666 12.3 8.07C12.1667 8.20333 12.0067 8.27 11.82 8.27ZM2.94 8.27C2.75333 8.27 2.59667 8.20333 2.47 8.07C2.34333 7.93666 2.28 7.77666 2.28 7.59C2.28 7.40333 2.34667 7.24333 2.48 7.11C2.61333 6.97666 2.77 6.91 2.95 6.91C3.13 6.91 3.28667 6.97666 3.42 7.11C3.55333 7.24333 3.62 7.40333 3.62 7.59C3.62 7.77666 3.55333 7.93666 3.42 8.07C3.28667 8.20333 3.12667 8.27 2.94 8.27ZM10.06 8.27C9.87333 8.27 9.71333 8.20333 9.58 8.07C9.44667 7.93666 9.38 7.77666 9.38 7.59C9.38 7.40333 9.44667 7.24333 9.58 7.11C9.71333 6.97666 9.87333 6.91 10.06 6.91C10.2467 6.91 10.4067 6.97666 10.54 7.11C10.6733 7.24333 10.74 7.40333 10.74 7.59C10.74 7.77666 10.6733 7.93666 10.54 8.07C10.4067 8.20333 10.2467 8.27 10.06 8.27ZM6.5 8.27C6.31333 8.27 6.15333 8.20333 6.02 8.07C5.88667 7.93666 5.82 7.77666 5.82 7.59C5.82 7.40333 5.88667 7.24333 6.02 7.11C6.15333 6.97666 6.31333 6.91 6.5 6.91C6.68667 6.91 6.84667 6.97666 6.98 7.11C7.11333 7.24333 7.18 7.40333 7.18 7.59C7.18 7.77666 7.11333 7.93666 6.98 8.07C6.84667 8.20333 6.68667 8.27 6.5 8.27ZM8.28 8.27C8.09333 8.27 7.93333 8.20333 7.8 8.07C7.66667 7.93666 7.6 7.77666 7.6 7.59C7.6 7.40333 7.67 7.24333 7.81 7.11C7.95 6.97666 8.10667 6.91 8.28 6.91C8.45333 6.91 8.60667 6.97666 8.74 7.11C8.87333 7.24333 8.94 7.40333 8.94 7.59C8.94 7.77666 8.87667 7.93666 8.75 8.07C8.62333 8.20333 8.46667 8.27 8.28 8.27ZM4.74 8.27C4.55333 8.27 4.39333 8.20333 4.26 8.07C4.12667 7.93666 4.06 7.77666 4.06 7.59C4.06 7.40333 4.12667 7.24333 4.26 7.11C4.39333 6.97666 4.55 6.91 4.73 6.91C4.91 6.91 5.06667 6.97666 5.2 7.11C5.33333 7.24333 5.4 7.40333 5.4 7.59C5.4 7.77666 5.33667 7.93666 5.21 8.07C5.08333 8.20333 4.92667 8.27 4.74 8.27Z" fill="white"/>
</g>
<defs>
<clipPath id="clip0_2_1081">
<rect width="20" height="20" fill="white" transform="matrix(1 0 0 -1 0.5 20.25)"/>
</clipPath>
</defs>
</svg>
