<svg width="21" height="21" viewBox="0 0 21 21" fill="none" xmlns="http://www.w3.org/2000/svg">
<g clip-path="url(#clip0_2_1078)">
<path d="M17.76 9.78999L15.62 8.16999L16.4 5.60999C16.4533 5.43665 16.4267 5.26999 16.32 5.10999C16.2667 5.04332 16.2 4.98665 16.12 4.93999C16.04 4.89332 15.96 4.86999 15.88 4.86999L13.18 4.82999L12.3 2.28999C12.26 2.11665 12.14 1.99665 11.94 1.92999C11.86 1.90332 11.7733 1.89665 11.68 1.90999C11.5867 1.92332 11.5067 1.95665 11.44 2.00999L9.24 3.54999L7.04 2.00999C6.97333 1.95665 6.89333 1.92332 6.8 1.90999C6.70667 1.89665 6.62 1.90332 6.54 1.92999C6.36667 1.98332 6.24667 2.10332 6.18 2.28999L5.3 4.82999L2.62 4.86999C2.52667 4.86999 2.44 4.89332 2.36 4.93999C2.28 4.98665 2.21333 5.04332 2.16 5.10999C2.05333 5.26999 2.02667 5.43665 2.08 5.60999L2.86 8.16999L0.72 9.78999C0.573333 9.90999 0.5 10.0667 0.5 10.26C0.5 10.4533 0.573333 10.6033 0.72 10.71L2.86 12.33L2.08 14.89C2.02667 15.0633 2.05333 15.23 2.16 15.39C2.26667 15.55 2.42 15.63 2.62 15.63L5.3 15.69L6.18 18.23C6.24667 18.4167 6.36667 18.53 6.54 18.57C6.62 18.5967 6.70667 18.6067 6.8 18.6C6.89333 18.5933 6.97333 18.5633 7.04 18.51L9.24 16.97L11.44 18.51C11.5467 18.5767 11.6533 18.61 11.76 18.61C11.8 18.61 11.86 18.5967 11.94 18.57C12.1133 18.53 12.2333 18.4167 12.3 18.23L13.18 15.69L15.86 15.63C16.0733 15.63 16.23 15.55 16.33 15.39C16.43 15.23 16.4533 15.0633 16.4 14.89L15.62 12.33L17.76 10.71C17.8267 10.6567 17.8833 10.59 17.93 10.51C17.9767 10.43 18 10.3433 18 10.25C18 10.0767 17.92 9.92332 17.76 9.78999ZM5.74 10.65C5.48667 10.5033 5.3 10.35 5.18 10.19C5.02 9.97665 4.91333 9.76999 4.86 9.56999C4.78 9.32999 4.74 9.08332 4.74 8.82999C4.74 8.57665 4.77333 8.33332 4.84 8.09999C4.90667 7.86665 5.02 7.64999 5.18 7.44999C5.3 7.27665 5.48667 7.12332 5.74 6.98999C5.99333 6.88332 6.26333 6.82999 6.55 6.82999C6.83667 6.82999 7.10667 6.88332 7.36 6.98999C7.58667 7.08332 7.77333 7.23665 7.92 7.44999C8.06667 7.60999 8.17667 7.82332 8.25 8.08999C8.32333 8.35665 8.36 8.60332 8.36 8.82999C8.36 9.05665 8.32333 9.29999 8.25 9.55999C8.17667 9.81999 8.07333 10.03 7.94 10.19C7.80667 10.35 7.61333 10.5033 7.36 10.65C7.16 10.7567 6.89333 10.81 6.56 10.81C6.26667 10.81 5.99333 10.7567 5.74 10.65ZM7.62 13.55C7.40667 13.59 7.19667 13.61 6.99 13.61C6.78333 13.61 6.56 13.59 6.32 13.55L10.86 6.92999C11.06 6.88999 11.28 6.86999 11.52 6.86999C11.7067 6.86999 11.92 6.88999 12.16 6.92999L7.62 13.55ZM13.62 12.43C13.5667 12.6567 13.46 12.8633 13.3 13.05C13.14 13.2367 12.9467 13.39 12.72 13.51C12.52 13.6167 12.2533 13.67 11.92 13.67C11.5867 13.67 11.32 13.6167 11.12 13.51C10.88 13.39 10.6933 13.25 10.56 13.09C10.4267 12.93 10.32 12.7133 10.24 12.44C10.16 12.1667 10.12 11.9167 10.12 11.69C10.12 11.4633 10.16 11.2133 10.24 10.94C10.32 10.6667 10.4267 10.4567 10.56 10.31C10.72 10.11 10.9067 9.96332 11.12 9.86999C11.3467 9.74999 11.6167 9.68999 11.93 9.68999C12.2433 9.68999 12.5067 9.74999 12.72 9.86999C12.92 9.94999 13.1133 10.0967 13.3 10.31C13.46 10.51 13.5733 10.7267 13.64 10.96C13.7067 11.1933 13.74 11.4367 13.74 11.69C13.74 11.9433 13.7 12.19 13.62 12.43ZM7.06 9.62999C7.16667 9.41665 7.22 9.14332 7.22 8.80999C7.22 8.47665 7.16667 8.21332 7.06 8.01999C6.95333 7.82665 6.78667 7.72999 6.56 7.72999C6.33333 7.72999 6.16667 7.82665 6.06 8.01999C5.95333 8.21332 5.9 8.48332 5.9 8.82999C5.9 9.12332 5.95333 9.38999 6.06 9.62999C6.16667 9.82999 6.33 9.92999 6.55 9.92999C6.77 9.92999 6.94 9.82999 7.06 9.62999ZM11.92 10.59C11.7067 10.59 11.5433 10.6933 11.43 10.9C11.3167 11.1067 11.26 11.37 11.26 11.69C11.26 12.01 11.3133 12.2733 11.42 12.48C11.5267 12.6867 11.6967 12.79 11.93 12.79C12.1633 12.79 12.33 12.6967 12.43 12.51C12.53 12.3233 12.58 12.05 12.58 11.69C12.58 11.33 12.53 11.0567 12.43 10.87C12.33 10.6833 12.16 10.59 11.92 10.59Z" fill="white"/>
</g>
<defs>
<clipPath id="clip0_2_1078">
<rect width="20" height="20" fill="white" transform="matrix(1 0 0 -1 0.5 20.25)"/>
</clipPath>
</defs>
</svg>
