<svg width="33" height="33" viewBox="0 0 33 33" fill="none" xmlns="http://www.w3.org/2000/svg">
<g clip-path="url(#clip0_2_173)">
<path d="M28.407 13.902C28.0657 14.2647 27.5324 14.8087 26.807 15.534L26.711 15.63C24.8124 17.486 23.383 18.8727 22.423 19.79C22.1244 20.0887 21.9004 20.3233 21.751 20.494C21.6657 20.5793 21.623 20.7073 21.623 20.878L23.255 30.35V30.414C23.2337 30.4353 23.127 30.3927 22.935 30.286C22.551 30.094 21.9964 29.806 21.271 29.422L14.647 25.934C14.4977 25.8487 14.3377 25.8593 14.167 25.966L10.903 27.694C8.68436 28.8673 7.00969 29.742 5.87903 30.318C5.83636 30.3607 5.79369 30.382 5.75103 30.382C5.64436 30.4247 5.61236 30.3393 5.65503 30.126L6.00703 27.918C6.56169 24.7607 6.96703 22.3927 7.22303 20.814C7.24436 20.7713 7.23903 20.7127 7.20703 20.638C7.17503 20.5633 7.13769 20.5047 7.09503 20.462L6.00703 19.406C4.57769 18.0193 3.51103 16.9633 2.80703 16.238C2.14569 15.598 1.39903 14.8087 0.567026 13.87C0.503026 13.806 0.481692 13.7473 0.503026 13.694C0.524359 13.6407 0.577692 13.6033 0.663026 13.582L8.34303 12.462C8.94036 12.3553 9.38836 12.2913 9.68703 12.27C9.81503 12.2487 9.91103 12.2167 9.97503 12.174C10.039 12.1313 10.103 12.046 10.167 11.918C11.959 8.24867 13.3137 5.49667 14.231 3.66201L14.327 3.50201C14.3484 3.45934 14.3804 3.43267 14.423 3.42201C14.4657 3.41134 14.503 3.42734 14.535 3.47001C14.567 3.51267 14.583 3.55534 14.583 3.59801L18.711 11.95C18.7964 12.142 18.9457 12.2487 19.159 12.27L28.311 13.614C28.3964 13.614 28.4497 13.6407 28.471 13.694C28.4924 13.7473 28.471 13.8167 28.407 13.902Z" fill="#FFE28C"/>
</g>
<defs>
<clipPath id="clip0_2_173">
<rect width="32.31" height="32" fill="white" transform="matrix(1 0 0 -1 0.340027 32.91)"/>
</clipPath>
</defs>
</svg>
