<svg width="21" height="21" viewBox="0 0 21 21" fill="none" xmlns="http://www.w3.org/2000/svg">
<g clip-path="url(#clip0_2_1084)">
<path d="M4.76 12.65C4.58667 12.8367 4.32667 13.1233 3.98 13.51C3.3 14.2567 2.79333 14.8167 2.46 15.19C2.3 15.3633 2.16333 15.45 2.05 15.45C1.93667 15.45 1.79333 15.37 1.62 15.21L1.12 14.71C1.01333 14.6033 0.883333 14.58 0.73 14.64C0.576667 14.7 0.5 14.81 0.5 14.97V20.39C0.5 20.4833 0.536667 20.5667 0.61 20.64C0.683333 20.7133 0.766667 20.75 0.86 20.75H5.04C5.14667 20.75 5.23333 20.7133 5.3 20.64C5.36667 20.5667 5.4 20.4833 5.4 20.39V12.89C5.4 12.7167 5.32 12.6033 5.16 12.55C5 12.4967 4.86667 12.53 4.76 12.65ZM11 12.31C10.9067 12.4033 10.7733 12.55 10.6 12.75C10.2267 13.15 9.94667 13.4567 9.76 13.67C9.58667 13.8433 9.44333 13.9333 9.33 13.94C9.21667 13.9467 9.07333 13.8633 8.9 13.69L7.5 12.39C7.36667 12.27 7.22 12.2433 7.06 12.31C6.9 12.3767 6.82 12.4967 6.82 12.67V20.35C6.82 20.4567 6.86 20.55 6.94 20.63C7.02 20.71 7.11333 20.75 7.22 20.75H11.3C11.4067 20.75 11.5 20.71 11.58 20.63C11.66 20.55 11.7 20.4567 11.7 20.35V12.59C11.7 12.4033 11.6167 12.2767 11.45 12.21C11.2833 12.1433 11.1333 12.1767 11 12.31ZM17.78 8.77C17.7667 8.75667 17.74 8.74333 17.7 8.73L17.64 8.67L16.26 7.29C16.18 7.19667 16.0733 7.15 15.94 7.15C15.82 7.15 15.7133 7.19667 15.62 7.29L13.22 9.89C13.1533 9.98333 13.12 10.0833 13.12 10.19V20.31C13.12 20.43 13.16 20.5333 13.24 20.62C13.32 20.7067 13.42 20.75 13.54 20.75H17.58C17.7 20.75 17.8 20.7067 17.88 20.62C17.96 20.5333 18 20.43 18 20.31V9.13C18.0133 8.98333 17.94 8.86333 17.78 8.77ZM9.72 11.69C11 10.29 12.92 8.20333 15.48 5.43C15.5467 5.36333 15.6033 5.32667 15.65 5.32C15.6967 5.31333 15.7533 5.35 15.82 5.43C16.0333 5.65667 16.36 5.98333 16.8 6.41L17.28 6.89C17.3867 6.99667 17.5067 7.04667 17.64 7.04C17.7733 7.03333 17.8733 6.97 17.94 6.85C17.98 6.74333 18 6.63667 18 6.53V1.21C18 0.903334 17.84 0.75 17.52 0.75H12.16C11.9333 0.75 11.79 0.833334 11.73 1C11.67 1.16667 11.7133 1.32333 11.86 1.47L12.56 2.17C12.9733 2.58333 13.2867 2.89 13.5 3.09C13.5667 3.15667 13.6033 3.21667 13.61 3.27C13.6167 3.32333 13.5867 3.39 13.52 3.47C11.9333 5.21667 10.5133 6.80333 9.26 8.23C9.19333 8.29667 9.13667 8.33 9.09 8.33C9.04333 8.33 8.98667 8.29667 8.92 8.23L8.04 7.43C7.28 6.73667 6.70667 6.21667 6.32 5.87C6.18667 5.75 6.06667 5.69 5.96 5.69C5.85333 5.69 5.74 5.75667 5.62 5.89C4.87333 6.69 3.76 7.89667 2.28 9.51L0.68 11.25C0.573333 11.3833 0.52 11.5 0.52 11.6C0.52 11.7 0.58 11.81 0.7 11.93L1.94 13.15C2.1 13.31 2.23667 13.39 2.35 13.39C2.46333 13.39 2.59333 13.3033 2.74 13.13L6.12 9.41C6.18667 9.34333 6.24 9.31 6.28 9.31C6.32 9.31 6.37333 9.34333 6.44 9.41C7.53333 10.4233 8.35333 11.19 8.9 11.71C9.07333 11.8567 9.21667 11.93 9.33 11.93C9.44333 11.93 9.57333 11.85 9.72 11.69Z" fill="white"/>
</g>
<defs>
<clipPath id="clip0_2_1084">
<rect width="20" height="20" fill="white" transform="matrix(1 0 0 -1 0.5 20.75)"/>
</clipPath>
</defs>
</svg>
