<svg width="21" height="21" viewBox="0 0 21 21" fill="none" xmlns="http://www.w3.org/2000/svg">
<g clip-path="url(#clip0_2_1060)">
<path d="M5.68 14.75C7.56 14.75 9.43333 14.75 11.3 14.75C11.3667 14.75 11.4167 14.7633 11.45 14.79C11.4833 14.8167 11.5067 14.8633 11.52 14.93C11.5733 15.1833 11.69 15.3833 11.87 15.53C12.05 15.6767 12.2667 15.75 12.52 15.75H15.42C15.74 15.75 15.9967 15.6567 16.19 15.47C16.3833 15.2833 16.4867 15.0367 16.5 14.73V13.77C16.4867 13.4633 16.39 13.2167 16.21 13.03C16.03 12.8433 15.7933 12.75 15.5 12.75C14.5 12.7233 13.5 12.7233 12.5 12.75C12.2333 12.75 12.0167 12.8233 11.85 12.97C11.6833 13.1167 11.5733 13.3233 11.52 13.59C11.4933 13.6567 11.4667 13.7 11.44 13.72C11.4133 13.74 11.3733 13.75 11.32 13.75H5.68C5.61333 13.75 5.56667 13.74 5.54 13.72C5.51333 13.7 5.5 13.6567 5.5 13.59C5.52667 12.3633 5.52667 11.1433 5.5 9.93C5.5 9.81 5.56 9.75 5.68 9.75C7.56 9.76333 9.44 9.76333 11.32 9.75C11.44 9.75 11.5067 9.81 11.52 9.93C11.56 10.1833 11.67 10.3833 11.85 10.53C12.03 10.6767 12.2467 10.75 12.5 10.75H15.5C15.7667 10.75 15.9933 10.6667 16.18 10.5C16.3667 10.3333 16.4667 10.1233 16.48 9.87C16.52 9.45667 16.52 9.04333 16.48 8.63C16.4533 8.37667 16.3467 8.16667 16.16 8C15.9733 7.83333 15.7533 7.75 15.5 7.75H12.52C12.2667 7.75 12.05 7.82333 11.87 7.97C11.69 8.11667 11.5733 8.32333 11.52 8.59C11.5067 8.69667 11.44 8.75 11.32 8.75H5.68C5.61333 8.75 5.57 8.73667 5.55 8.71C5.53 8.68333 5.52 8.63667 5.52 8.57C5.52 7.86333 5.51333 7.33667 5.5 6.99C5.5 6.89667 5.51667 6.83667 5.55 6.81C5.58333 6.78333 5.64667 6.77 5.74 6.77H7.52C8.08 6.74333 8.55 6.54 8.93 6.16C9.31 5.78 9.5 5.30333 9.5 4.73V4.11C9.48667 3.57667 9.48667 3.17 9.5 2.89C9.52667 2.53 9.45333 2.18333 9.28 1.85C9.10667 1.51667 8.85667 1.25 8.53 1.05C8.20333 0.85 7.82667 0.75 7.4 0.75C7.18667 0.763334 6.86 0.763334 6.42 0.75H5.04C3.84 0.736668 2.94 0.743334 2.34 0.77C1.83333 0.783335 1.40333 0.983334 1.05 1.37C0.696667 1.75667 0.513333 2.21667 0.5 2.75V4.63C0.5 4.83 0.513333 4.98333 0.54 5.09C0.633333 5.58333 0.863333 5.98333 1.23 6.29C1.59667 6.59667 2.03333 6.75667 2.54 6.77H4.26C4.35333 6.75667 4.41667 6.76667 4.45 6.8C4.48333 6.83333 4.5 6.90333 4.5 7.01V17.53C4.5 17.6233 4.48667 17.6833 4.46 17.71C4.43333 17.7367 4.37333 17.75 4.28 17.75C4.12 17.7367 3.88333 17.7333 3.57 17.74C3.25667 17.7467 3.00333 17.8433 2.81 18.03C2.61667 18.2167 2.51333 18.4633 2.5 18.77V19.65C2.5 19.9967 2.59667 20.2667 2.79 20.46C2.98333 20.6533 3.25333 20.75 3.6 20.75H6.4C6.70667 20.75 6.95 20.68 7.13 20.54C7.31 20.4 7.43333 20.1767 7.5 19.87C7.51333 19.8167 7.53333 19.7833 7.56 19.77C7.58667 19.7567 7.63333 19.75 7.7 19.75H11.32C11.3867 19.75 11.4333 19.76 11.46 19.78C11.4867 19.8 11.5067 19.8433 11.52 19.91C11.56 20.1633 11.66 20.3633 11.82 20.51C11.98 20.6567 12.1867 20.73 12.44 20.73C13.48 20.7433 14.52 20.7433 15.56 20.73C15.8133 20.73 16.0267 20.6433 16.2 20.47C16.3733 20.2967 16.4733 20.0767 16.5 19.81C16.5267 19.45 16.5267 19.0767 16.5 18.69C16.4733 18.4233 16.3667 18.2 16.18 18.02C15.9933 17.84 15.7667 17.75 15.5 17.75C14.5 17.7233 13.5 17.7233 12.5 17.75C12.2467 17.75 12.03 17.8267 11.85 17.98C11.67 18.1333 11.56 18.33 11.52 18.57C11.5067 18.6367 11.4867 18.6833 11.46 18.71C11.4333 18.7367 11.3867 18.75 11.32 18.75C10.7867 18.7367 9.98667 18.7367 8.92 18.75H7.72C7.65333 18.75 7.6 18.7367 7.56 18.71C7.52 18.6833 7.49333 18.6367 7.48 18.57C7.44 18.3167 7.33 18.1167 7.15 17.97C6.97 17.8233 6.75333 17.7433 6.5 17.73C6.14 17.73 5.87333 17.7367 5.7 17.75C5.62 17.75 5.57 17.7367 5.55 17.71C5.53 17.6833 5.52 17.63 5.52 17.55V14.93C5.50667 14.8633 5.51333 14.8167 5.54 14.79C5.56667 14.7633 5.61333 14.75 5.68 14.75Z" fill="white"/>
</g>
<defs>
<clipPath id="clip0_2_1060">
<rect width="20" height="20" fill="white" transform="matrix(1 0 0 -1 0.5 20.75)"/>
</clipPath>
</defs>
</svg>
