<svg width="21" height="21" viewBox="0 0 21 21" fill="none" xmlns="http://www.w3.org/2000/svg">
<g opacity="0.3" clip-path="url(#clip0_2_1063)">
<path d="M10.06 10.55C9.87333 10.55 9.71333 10.4834 9.58 10.35C9.44667 10.2167 9.38 10.0567 9.38 9.87003C9.38 9.68336 9.44667 9.52336 9.58 9.39003C9.71333 9.25669 9.87333 9.19003 10.06 9.19003C10.2467 9.19003 10.4067 9.25669 10.54 9.39003C10.6733 9.52336 10.74 9.68336 10.74 9.87003C10.74 10.0567 10.6733 10.2167 10.54 10.35C10.4067 10.4834 10.2467 10.55 10.06 10.55ZM6.5 10.55C6.31333 10.55 6.15333 10.4834 6.02 10.35C5.88667 10.2167 5.82 10.0567 5.82 9.87003C5.82 9.68336 5.88667 9.52336 6.02 9.39003C6.15333 9.25669 6.31333 9.19003 6.5 9.19003C6.68667 9.19003 6.84667 9.25669 6.98 9.39003C7.11333 9.52336 7.18 9.68336 7.18 9.87003C7.18 10.0567 7.11333 10.2167 6.98 10.35C6.84667 10.4834 6.68667 10.55 6.5 10.55ZM4.74 10.55C4.55333 10.55 4.39333 10.4834 4.26 10.35C4.12667 10.2167 4.06 10.0567 4.06 9.87003C4.06 9.68336 4.12667 9.52336 4.26 9.39003C4.39333 9.25669 4.55333 9.19003 4.74 9.19003C4.92667 9.19003 5.08333 9.25669 5.21 9.39003C5.33667 9.52336 5.4 9.68336 5.4 9.87003C5.4 10.0567 5.33667 10.2167 5.21 10.35C5.08333 10.4834 4.92667 10.55 4.74 10.55ZM2.94 10.55C2.75333 10.55 2.59667 10.4834 2.47 10.35C2.34333 10.2167 2.28 10.0567 2.28 9.87003C2.28 9.68336 2.34333 9.52336 2.47 9.39003C2.59667 9.25669 2.75333 9.19003 2.94 9.19003C3.12667 9.19003 3.28667 9.25669 3.42 9.39003C3.55333 9.52336 3.62 9.68336 3.62 9.87003C3.62 10.0567 3.55333 10.2167 3.42 10.35C3.28667 10.4834 3.12667 10.55 2.94 10.55ZM4.74 12.31C4.55333 12.31 4.39333 12.2467 4.26 12.12C4.12667 11.9934 4.06 11.8367 4.06 11.65C4.06 11.4634 4.12667 11.3034 4.26 11.17C4.39333 11.0367 4.55333 10.97 4.74 10.97C4.92667 10.97 5.08333 11.0367 5.21 11.17C5.33667 11.3034 5.4 11.46 5.4 11.64C5.4 11.82 5.33667 11.9767 5.21 12.11C5.08333 12.2434 4.92667 12.31 4.74 12.31ZM8.28 12.31C8.09333 12.31 7.93333 12.2434 7.8 12.11C7.66667 11.9767 7.6 11.82 7.6 11.64C7.6 11.46 7.66667 11.3034 7.8 11.17C7.93333 11.0367 8.09333 10.97 8.28 10.97C8.46667 10.97 8.62333 11.0367 8.75 11.17C8.87667 11.3034 8.94 11.46 8.94 11.64C8.94 11.82 8.87667 11.9767 8.75 12.11C8.62333 12.2434 8.46667 12.31 8.28 12.31ZM1.18 8.77003C0.993333 8.77003 0.833333 8.70336 0.7 8.57003C0.566667 8.43669 0.5 8.27669 0.5 8.09003C0.5 7.90336 0.566667 7.74336 0.7 7.61003C0.833333 7.47669 0.993333 7.41003 1.18 7.41003C1.36667 7.41003 1.52667 7.47669 1.66 7.61003C1.79333 7.74336 1.86 7.90336 1.86 8.09003C1.86 8.27669 1.79333 8.43669 1.66 8.57003C1.52667 8.70336 1.36667 8.77003 1.18 8.77003ZM6.5 14.09C6.31333 14.09 6.15333 14.0234 6.02 13.89C5.88667 13.7567 5.82 13.5967 5.82 13.41C5.82 13.2234 5.88667 13.0634 6.02 12.93C6.15333 12.7967 6.31333 12.73 6.5 12.73C6.68667 12.73 6.84667 12.7967 6.98 12.93C7.11333 13.0634 7.18 13.2234 7.18 13.41C7.18 13.5967 7.11333 13.7567 6.98 13.89C6.84667 14.0234 6.68667 14.09 6.5 14.09ZM6.5 12.31C6.31333 12.31 6.15333 12.2467 6.02 12.12C5.88667 11.9934 5.82 11.8367 5.82 11.65C5.82 11.4634 5.88667 11.3034 6.02 11.17C6.15333 11.0367 6.31333 10.97 6.5 10.97C6.68667 10.97 6.84667 11.0367 6.98 11.17C7.11333 11.3034 7.18 11.4634 7.18 11.65C7.18 11.8367 7.11333 11.9934 6.98 12.12C6.84667 12.2467 6.68667 12.31 6.5 12.31ZM8.28 10.55C8.09333 10.55 7.93333 10.4834 7.8 10.35C7.66667 10.2167 7.6 10.0567 7.6 9.87003C7.6 9.68336 7.66667 9.52336 7.8 9.39003C7.93333 9.25669 8.09333 9.19003 8.28 9.19003C8.46667 9.19003 8.62333 9.25669 8.75 9.39003C8.87667 9.52336 8.94 9.68336 8.94 9.87003C8.94 10.0567 8.87667 10.2167 8.75 10.35C8.62333 10.4834 8.46667 10.55 8.28 10.55ZM11.82 8.77003C11.6333 8.77003 11.4733 8.70336 11.34 8.57003C11.2067 8.43669 11.14 8.27669 11.14 8.09003C11.14 7.90336 11.2067 7.74336 11.34 7.61003C11.4733 7.47669 11.6333 7.41003 11.82 7.41003C12.0067 7.41003 12.1667 7.47669 12.3 7.61003C12.4333 7.74336 12.5 7.90336 12.5 8.09003C12.5 8.27669 12.4333 8.43669 12.3 8.57003C12.1667 8.70336 12.0067 8.77003 11.82 8.77003ZM2.94 8.77003C2.75333 8.77003 2.59667 8.70336 2.47 8.57003C2.34333 8.43669 2.28 8.27669 2.28 8.09003C2.28 7.90336 2.34667 7.74336 2.48 7.61003C2.61333 7.47669 2.77 7.41003 2.95 7.41003C3.13 7.41003 3.28667 7.47669 3.42 7.61003C3.55333 7.74336 3.62 7.90336 3.62 8.09003C3.62 8.27669 3.55333 8.43669 3.42 8.57003C3.28667 8.70336 3.12667 8.77003 2.94 8.77003ZM10.06 8.77003C9.87333 8.77003 9.71333 8.70336 9.58 8.57003C9.44667 8.43669 9.38 8.27669 9.38 8.09003C9.38 7.90336 9.44667 7.74336 9.58 7.61003C9.71333 7.47669 9.87333 7.41003 10.06 7.41003C10.2467 7.41003 10.4067 7.47669 10.54 7.61003C10.6733 7.74336 10.74 7.90336 10.74 8.09003C10.74 8.27669 10.6733 8.43669 10.54 8.57003C10.4067 8.70336 10.2467 8.77003 10.06 8.77003ZM6.5 8.77003C6.31333 8.77003 6.15333 8.70336 6.02 8.57003C5.88667 8.43669 5.82 8.27669 5.82 8.09003C5.82 7.90336 5.88667 7.74336 6.02 7.61003C6.15333 7.47669 6.31333 7.41003 6.5 7.41003C6.68667 7.41003 6.84667 7.47669 6.98 7.61003C7.11333 7.74336 7.18 7.90336 7.18 8.09003C7.18 8.27669 7.11333 8.43669 6.98 8.57003C6.84667 8.70336 6.68667 8.77003 6.5 8.77003ZM8.28 8.77003C8.09333 8.77003 7.93333 8.70336 7.8 8.57003C7.66667 8.43669 7.6 8.27669 7.6 8.09003C7.6 7.90336 7.67 7.74336 7.81 7.61003C7.95 7.47669 8.10667 7.41003 8.28 7.41003C8.45333 7.41003 8.60667 7.47669 8.74 7.61003C8.87333 7.74336 8.94 7.90336 8.94 8.09003C8.94 8.27669 8.87667 8.43669 8.75 8.57003C8.62333 8.70336 8.46667 8.77003 8.28 8.77003ZM4.74 8.77003C4.55333 8.77003 4.39333 8.70336 4.26 8.57003C4.12667 8.43669 4.06 8.27669 4.06 8.09003C4.06 7.90336 4.12667 7.74336 4.26 7.61003C4.39333 7.47669 4.55 7.41003 4.73 7.41003C4.91 7.41003 5.06667 7.47669 5.2 7.61003C5.33333 7.74336 5.4 7.90336 5.4 8.09003C5.4 8.27669 5.33667 8.43669 5.21 8.57003C5.08333 8.70336 4.92667 8.77003 4.74 8.77003Z" fill="white"/>
</g>
<defs>
<clipPath id="clip0_2_1063">
<rect width="20" height="20" fill="white" transform="matrix(1 0 0 -1 0.5 20.75)"/>
</clipPath>
</defs>
</svg>
