<svg width="18" height="18" viewBox="0 0 18 18" fill="none" xmlns="http://www.w3.org/2000/svg">
<g clip-path="url(#clip0_2_1090)">
<path d="M13.913 13.381C13.879 13.4263 13.879 13.4717 13.913 13.517C13.913 14.6957 13.9073 15.5797 13.896 16.169C13.896 16.5657 13.7855 16.9057 13.5645 17.189C13.3435 17.4723 13.046 17.648 12.672 17.716C12.536 17.7387 12.434 17.75 12.366 17.75H1.877C1.85433 17.7387 1.82033 17.733 1.775 17.733L1.69 17.716L1.622 17.682L1.537 17.699C1.51433 17.6763 1.4775 17.6537 1.4265 17.631C1.3755 17.6083 1.33867 17.5913 1.316 17.58L1.129 17.461C1.08367 17.4157 1.01567 17.359 0.925 17.291L0.687 16.968L0.585 16.73L0.517 16.458L0.5 16.118C0.522667 16.0953 0.528333 16.067 0.517 16.033V13.126C0.517 13.0693 0.511333 13.0297 0.5 13.007V12.956C0.522667 12.9333 0.522667 12.9163 0.5 12.905V12.752C0.511333 12.7407 0.517 12.7067 0.517 12.65V8.655C0.517 8.59833 0.511333 8.553 0.5 8.519V8.468C0.522667 8.44533 0.522667 8.42833 0.5 8.417V8.349C0.522667 8.281 0.522667 8.22433 0.5 8.179V8.026C0.522667 7.94667 0.522667 7.82767 0.5 7.669V7.533L0.517 7.397V3.521C0.517 3.46433 0.511333 3.43033 0.5 3.419V3.351C0.534 3.079 0.534 2.807 0.5 2.535V2.467C0.534 2.41033 0.534 2.35933 0.5 2.314V2.246C0.522667 2.178 0.528333 2.127 0.517 2.093C0.573667 1.69633 0.740833 1.37333 1.0185 1.124C1.29617 0.874666 1.63333 0.75 2.03 0.75H12.366C12.808 0.75 13.1735 0.894499 13.4625 1.1835C13.7515 1.4725 13.896 1.838 13.896 2.28C13.9073 2.54067 13.9073 2.926 13.896 3.436V4.014C13.8847 4.02533 13.8903 4.048 13.913 4.082L13.896 4.405V13.279L13.913 13.381ZM10.071 7.958C10.0257 7.93533 9.96333 7.93533 9.884 7.958L9.833 7.975H9.782L9.595 8.026C9.459 8.06 9.35133 8.10533 9.272 8.162C8.90933 8.332 8.64017 8.62667 8.4645 9.046C8.28883 9.46533 8.269 9.86767 8.405 10.253C8.55233 10.695 8.82433 11.0293 9.221 11.256C9.61767 11.4827 10.0313 11.5507 10.462 11.46C10.802 11.3807 11.091 11.2277 11.329 11.001C11.567 10.7743 11.7285 10.5023 11.8135 10.185C11.8985 9.86767 11.8957 9.54467 11.805 9.216C11.669 8.76267 11.4027 8.42833 11.006 8.213C10.938 8.145 10.8757 8.111 10.819 8.111C10.7623 8.05433 10.6773 8.026 10.564 8.026C10.53 8.00333 10.4733 7.98633 10.394 7.975L10.343 7.958H10.241C10.1617 7.94667 10.105 7.94667 10.071 7.958ZM5.328 12.667C5.328 12.633 5.30533 12.6047 5.26 12.582H5.243C4.88033 12.3553 4.48367 12.276 4.053 12.344C3.39567 12.4573 2.94233 12.8342 2.693 13.4745C2.44367 14.1148 2.54 14.707 2.982 15.251C3.186 15.5003 3.441 15.676 3.747 15.778C4.053 15.88 4.36183 15.9027 4.6735 15.846C4.98517 15.7893 5.26 15.6533 5.498 15.438C5.75867 15.2113 5.93717 14.9422 6.0335 14.6305C6.12983 14.3188 6.14117 14.0043 6.0675 13.687C5.99383 13.3697 5.838 13.092 5.6 12.854L5.532 12.786C5.45267 12.718 5.38467 12.6783 5.328 12.667ZM7.249 2.195H3.407C2.999 2.195 2.6505 2.348 2.3615 2.654C2.0725 2.96 1.93367 3.317 1.945 3.725V4.983C1.945 5.43633 2.09233 5.81033 2.387 6.105C2.68167 6.39967 3.05567 6.547 3.509 6.547H11.091C11.329 6.547 11.5443 6.49033 11.737 6.377C11.9977 6.207 12.1903 6.0115 12.315 5.7905C12.4397 5.5695 12.4963 5.306 12.485 5L12.502 3.606C12.4907 3.232 12.3462 2.90333 12.0685 2.62C11.7908 2.33667 11.465 2.195 11.091 2.195H7.249ZM2.557 9.709C2.557 10.2077 2.72983 10.6298 3.0755 10.9755C3.42117 11.3212 3.83767 11.494 4.325 11.494C4.64233 11.494 4.937 11.4175 5.209 11.2645C5.481 11.1115 5.69917 10.899 5.8635 10.627C6.02783 10.355 6.11 10.0575 6.11 9.7345C6.11 9.4115 6.03067 9.114 5.872 8.842C5.71333 8.57 5.50367 8.35467 5.243 8.196C4.98233 8.03733 4.69333 7.958 4.376 7.958C3.87733 7.94667 3.45233 8.111 3.101 8.451C2.74967 8.791 2.56833 9.21033 2.557 9.709ZM11.89 14.112C11.89 13.6247 11.72 13.2082 11.38 12.8625C11.04 12.5168 10.632 12.3383 10.156 12.327C9.82733 12.327 9.52417 12.4035 9.2465 12.5565C8.96883 12.7095 8.75067 12.9192 8.592 13.1855C8.43333 13.4518 8.354 13.7493 8.354 14.078C8.34267 14.5653 8.507 14.9847 8.847 15.336C9.187 15.6873 9.60633 15.8687 10.105 15.88C10.411 15.88 10.7028 15.8007 10.9805 15.642C11.2582 15.4833 11.4792 15.2708 11.6435 15.0045C11.8078 14.7382 11.89 14.4407 11.89 14.112ZM3.39 13.789C3.46933 13.789 3.59967 13.789 3.781 13.789L4.189 13.772L4.257 13.789H5.226C5.464 13.789 5.583 13.891 5.583 14.095C5.583 14.197 5.549 14.2763 5.481 14.333C5.413 14.3897 5.32233 14.418 5.209 14.418H3.424C3.33333 14.418 3.25967 14.3953 3.203 14.35C3.14633 14.3047 3.11233 14.2423 3.101 14.163C3.067 13.9817 3.14633 13.857 3.339 13.789H3.39ZM4.988 10.661C4.954 10.6723 4.89167 10.644 4.801 10.576L4.427 10.236C4.40433 10.202 4.38167 10.1878 4.359 10.1935C4.33633 10.1992 4.31367 10.219 4.291 10.253C4.155 10.4117 4.05017 10.5278 3.9765 10.6015C3.90283 10.6752 3.8235 10.7177 3.7385 10.729C3.6535 10.7403 3.57417 10.7177 3.5005 10.661C3.42683 10.6043 3.39 10.5307 3.39 10.44C3.39 10.3493 3.424 10.2587 3.492 10.168C3.628 10.0093 3.73567 9.896 3.815 9.828C3.849 9.794 3.86317 9.76567 3.8575 9.743C3.85183 9.72033 3.832 9.69767 3.798 9.675C3.63933 9.539 3.52317 9.43133 3.4495 9.352C3.37583 9.27267 3.33333 9.19333 3.322 9.114C3.31067 9.03467 3.339 8.961 3.407 8.893C3.543 8.73433 3.70167 8.73433 3.883 8.893C4.04167 9.029 4.155 9.131 4.223 9.199C4.257 9.233 4.28533 9.25 4.308 9.25C4.33067 9.25 4.359 9.233 4.393 9.199C4.48367 9.07433 4.58 8.961 4.682 8.859C4.76133 8.77967 4.8435 8.73433 4.9285 8.723C5.0135 8.71167 5.09283 8.73717 5.1665 8.7995C5.24017 8.86183 5.277 8.93833 5.277 9.029C5.277 9.11967 5.23733 9.20467 5.158 9.284L4.869 9.607C4.835 9.641 4.81517 9.66933 4.8095 9.692C4.80383 9.71467 4.82367 9.743 4.869 9.777L4.92 9.811C5.06733 9.947 5.175 10.049 5.243 10.117C5.35633 10.2303 5.38183 10.3493 5.3195 10.474C5.25717 10.5987 5.14667 10.661 4.988 10.661ZM11.159 13.381C11.2497 13.4377 11.312 13.4943 11.346 13.551C11.38 13.6077 11.3857 13.6757 11.363 13.755C11.3177 13.925 11.193 14.01 10.989 14.01H9.238C9.14733 14.01 9.06517 13.9845 8.9915 13.9335C8.91783 13.8825 8.87533 13.8173 8.864 13.738C8.85267 13.5793 8.93767 13.4603 9.119 13.381H9.187C9.26633 13.381 9.32867 13.3753 9.374 13.364H9.459C9.833 13.3753 10.3997 13.381 11.159 13.381ZM10.122 14.197H10.989C11.1023 14.197 11.193 14.2253 11.261 14.282C11.329 14.3387 11.363 14.4123 11.363 14.503C11.363 14.5937 11.3318 14.6702 11.2695 14.7325C11.2072 14.7948 11.1193 14.826 11.006 14.826H9.221C9.119 14.826 9.034 14.7977 8.966 14.741C8.898 14.6843 8.864 14.6107 8.864 14.52C8.864 14.4293 8.898 14.3528 8.966 14.2905C9.034 14.2282 9.12467 14.197 9.238 14.197H10.122ZM10.275 8.502C10.3657 8.59267 10.411 8.71733 10.411 8.876V9.012C10.3997 9.182 10.411 9.31233 10.445 9.403H11.04C11.1307 9.403 11.2043 9.43133 11.261 9.488C11.3177 9.54467 11.346 9.61833 11.346 9.709C11.346 9.79967 11.3177 9.87617 11.261 9.9385C11.2043 10.0008 11.1307 10.032 11.04 10.032H10.513C10.445 10.032 10.411 10.066 10.411 10.134C10.4223 10.2927 10.4223 10.457 10.411 10.627C10.411 10.729 10.3827 10.8112 10.326 10.8735C10.2693 10.9358 10.1957 10.967 10.105 10.967C10.0143 10.967 9.93783 10.9358 9.8755 10.8735C9.81317 10.8112 9.782 10.729 9.782 10.627V10.185C9.79333 10.0717 9.748 10.0207 9.646 10.032C9.578 10.0433 9.476 10.0433 9.34 10.032H9.187C9.085 10.032 9.00567 10.0008 8.949 9.9385C8.89233 9.87617 8.864 9.79967 8.864 9.709C8.864 9.61833 8.89233 9.54467 8.949 9.488C9.00567 9.43133 9.085 9.403 9.187 9.403H9.663C9.70833 9.403 9.7395 9.3945 9.7565 9.3775C9.7735 9.3605 9.782 9.32933 9.782 9.284V8.74C9.816 8.61533 9.89533 8.519 10.02 8.451L10.105 8.468C10.1843 8.47933 10.241 8.49067 10.275 8.502Z" fill="white"/>
</g>
<defs>
<clipPath id="clip0_2_1090">
<rect width="17" height="17" fill="white" transform="matrix(1 0 0 -1 0.5 17.75)"/>
</clipPath>
</defs>
</svg>
