<svg width="21" height="21" viewBox="0 0 21 21" fill="none" xmlns="http://www.w3.org/2000/svg">
<g clip-path="url(#clip0_2_1072)">
<path d="M17.1 17.39C17.0867 17.35 17.0667 17.2833 17.04 17.19C17 17.0567 16.9667 16.9567 16.94 16.89C16.74 16.5033 16.3733 16.1067 15.84 15.7C15.3067 15.2933 14.7067 14.93 14.04 14.61C13.4667 14.3433 12.8067 14.09 12.06 13.85C11.98 13.8233 11.9067 13.8433 11.84 13.91L11.62 14.05C11.4333 14.1833 11.2867 14.2767 11.18 14.33C10.1 14.9567 8.99333 15.1433 7.86 14.89C7.15333 14.73 6.48 14.41 5.84 13.93C5.74667 13.85 5.62667 13.83 5.48 13.87C4.49333 14.2033 3.62667 14.5767 2.88 14.99C2.09333 15.4167 1.47333 15.89 1.02 16.41C0.673333 16.7967 0.5 17.2367 0.5 17.73C0.513333 18.1833 0.513333 18.8567 0.5 19.75V20.75H16.94C17.02 20.75 17.07 20.7367 17.09 20.71C17.11 20.6833 17.12 20.6367 17.12 20.57C17.1067 19.8633 17.1 18.8033 17.1 17.39ZM1.24 20.19C1.12 20.2033 1.06 20.15 1.06 20.03V19.21C1.04667 18.4767 1.04667 17.93 1.06 17.57C1.06 17.2767 1.19333 16.9967 1.46 16.73V19.51C1.44667 19.7367 1.44667 19.91 1.46 20.03C1.46 20.11 1.44667 20.1567 1.42 20.17C1.39333 20.1833 1.34667 20.19 1.28 20.19H1.24ZM2.3 20.21C2.27333 20.21 2.23333 20.21 2.18 20.21C2.1 20.21 2.05333 20.2 2.04 20.18C2.02667 20.16 2.02 20.11 2.02 20.03V19.93C2.02 18.3833 2.01333 17.2233 2 16.45L2.22 16.05L2.48 15.87V17.95C2.46667 18.87 2.46667 19.5633 2.48 20.03C2.48 20.15 2.42 20.21 2.3 20.21ZM3.3 20.17C3.28667 20.17 3.26 20.17 3.22 20.17C3.15333 20.1833 3.1 20.18 3.06 20.16C3.02 20.14 3 20.0833 3 19.99C3.01333 19.1633 3.02 17.93 3.02 16.29C3.02 16.05 3.01333 15.87 3 15.75C2.98667 15.5767 3.06 15.4633 3.22 15.41L3.28 15.37C3.36 15.33 3.42667 15.3033 3.48 15.29V19.97C3.48 20.05 3.47 20.1067 3.45 20.14C3.43 20.1733 3.38 20.1833 3.3 20.17ZM4.5 16.59V17.49V20.01C4.5 20.09 4.48333 20.14 4.45 20.16C4.41667 20.18 4.36667 20.1833 4.3 20.17H4.22C4.08667 20.1967 4.02 20.1433 4.02 20.01C4.03333 18.9433 4.04 17.3367 4.04 15.19C4.04 15.11 4.08667 15.0267 4.18 14.94C4.27333 14.8533 4.35333 14.8167 4.42 14.83C4.48667 14.8433 4.51333 14.8833 4.5 14.95V16.59ZM5.5 16.75V17.33V20.01C5.5 20.09 5.49 20.1433 5.47 20.17C5.45 20.1967 5.4 20.2033 5.32 20.19C5.29333 20.19 5.25333 20.1933 5.2 20.2C5.14667 20.2067 5.10333 20.2 5.07 20.18C5.03667 20.16 5.02 20.1033 5.02 20.01C5.03333 18.85 5.04 17.0967 5.04 14.75C5.04 14.6833 5.09667 14.6133 5.21 14.54C5.32333 14.4667 5.40333 14.4433 5.45 14.47C5.49667 14.4967 5.51333 14.5367 5.5 14.59V16.75ZM6.52 19.97C6.52 20.0633 6.50667 20.1267 6.48 20.16C6.45333 20.1933 6.39333 20.2067 6.3 20.2C6.20667 20.1933 6.14 20.1767 6.1 20.15C6.06 20.1233 6.04 20.0633 6.04 19.97C6.05333 19.5967 6.05333 19.0367 6.04 18.29V14.95C6.04 14.8433 6.04667 14.7867 6.06 14.78C6.07333 14.7733 6.12 14.7833 6.2 14.81L6.24 14.83C6.34667 14.8833 6.42 14.9467 6.46 15.02C6.5 15.0933 6.52 15.19 6.52 15.31V19.97ZM7.48 20.19C7.33333 20.2167 7.20667 20.21 7.1 20.17C7.07333 20.1567 7.06 20.1233 7.06 20.07V15.45C7.06 15.3567 7.07333 15.3 7.1 15.28C7.12667 15.26 7.18667 15.26 7.28 15.28C7.37333 15.3 7.44 15.34 7.48 15.4C7.52 15.46 7.54 15.5433 7.54 15.65C7.52667 16.29 7.52667 17.25 7.54 18.53V20.03C7.55333 20.11 7.53333 20.1633 7.48 20.19ZM8.54 19.99C8.54 20.0567 8.53 20.1067 8.51 20.14C8.49 20.1733 8.44 20.19 8.36 20.19H8.3C8.19333 20.19 8.13 20.18 8.11 20.16C8.09 20.14 8.08 20.0767 8.08 19.97V17.83C8.08 16.87 8.07333 16.15 8.06 15.67C8.06 15.59 8.07333 15.54 8.1 15.52C8.12667 15.5 8.18 15.4967 8.26 15.51C8.40667 15.5233 8.49 15.54 8.51 15.56C8.53 15.58 8.54 15.6633 8.54 15.81V19.99ZM9.54 17.85C9.54 18.57 9.54 19.29 9.54 20.01C9.54 20.0767 9.53 20.1267 9.51 20.16C9.49 20.1933 9.44 20.2033 9.36 20.19H9.26C9.20667 20.19 9.16333 20.18 9.13 20.16C9.09667 20.14 9.08 20.09 9.08 20.01V15.69C9.08 15.61 9.1 15.5567 9.14 15.53C9.28667 15.4767 9.40667 15.47 9.5 15.51C9.54 15.5233 9.55333 15.57 9.54 15.65V17.85ZM10.56 17.71C10.56 18.47 10.56 19.2367 10.56 20.01C10.56 20.09 10.5433 20.1433 10.51 20.17C10.4767 20.1967 10.42 20.2033 10.34 20.19H10.3C10.2333 20.19 10.1833 20.18 10.15 20.16C10.1167 20.14 10.1 20.09 10.1 20.01V15.53C10.1 15.4633 10.1567 15.3933 10.27 15.32C10.3833 15.2467 10.4633 15.2233 10.51 15.25C10.5567 15.2767 10.5733 15.3233 10.56 15.39V17.71ZM11.56 16.93V17.47H11.58V19.97C11.58 20.0767 11.57 20.14 11.55 20.16C11.53 20.18 11.4667 20.19 11.36 20.19H11.3C11.2067 20.2033 11.15 20.19 11.13 20.15C11.11 20.11 11.1 20.05 11.1 19.97V15.17C11.1 15.1033 11.1533 15.02 11.26 14.92C11.3667 14.82 11.4533 14.7767 11.52 14.79C11.56 14.79 11.5733 14.8233 11.56 14.89V14.93C11.5733 15.2233 11.5733 15.67 11.56 16.27V16.93ZM12.58 20.01C12.58 20.0767 12.57 20.1267 12.55 20.16C12.53 20.1933 12.48 20.2033 12.4 20.19H12.3C12.2333 20.19 12.1833 20.18 12.15 20.16C12.1167 20.14 12.1 20.09 12.1 20.01C12.1133 19.61 12.1133 19.01 12.1 18.21V14.67C12.1 14.5633 12.11 14.5033 12.13 14.49C12.15 14.4767 12.2133 14.48 12.32 14.5C12.4267 14.52 12.4967 14.56 12.53 14.62C12.5633 14.68 12.58 14.77 12.58 14.89V20.01ZM13.54 20.19C13.42 20.23 13.2933 20.23 13.16 20.19C13.12 20.1633 13.1067 20.11 13.12 20.03V15.03C13.12 14.9233 13.1267 14.8667 13.14 14.86C13.1533 14.8533 13.2 14.8567 13.28 14.87L13.32 14.89C13.4267 14.93 13.5 14.98 13.54 15.04C13.58 15.1 13.6 15.19 13.6 15.31C13.6 15.83 13.6 16.6067 13.6 17.64C13.6 18.6733 13.5933 19.45 13.58 19.97V19.99C13.6067 20.0967 13.5933 20.1633 13.54 20.19ZM14.56 20.19C14.4267 20.23 14.2933 20.23 14.16 20.19C14.1333 20.1767 14.1267 20.1433 14.14 20.09V15.49C14.14 15.3833 14.1467 15.3267 14.16 15.32C14.1733 15.3133 14.2133 15.3233 14.28 15.35L14.32 15.37C14.4267 15.41 14.5033 15.4667 14.55 15.54C14.5967 15.6133 14.62 15.7167 14.62 15.85C14.6067 16.4633 14.6067 17.3833 14.62 18.61V19.99V20.07C14.62 20.1367 14.6 20.1767 14.56 20.19ZM15.62 20.01C15.62 20.1033 15.6033 20.16 15.57 20.18C15.5367 20.2 15.4933 20.2067 15.44 20.2C15.3867 20.1933 15.3467 20.19 15.32 20.19C15.2 20.2033 15.14 20.15 15.14 20.03V15.97V15.95C15.1533 15.9233 15.16 15.8967 15.16 15.87C15.2533 15.95 15.38 16.0433 15.54 16.15C15.5933 16.19 15.62 16.2567 15.62 16.35V17.57C15.6067 18.65 15.6067 19.4633 15.62 20.01ZM16.38 20.19C16.3667 20.19 16.3533 20.19 16.34 20.19C16.2733 20.19 16.2267 20.1833 16.2 20.17C16.1733 20.1567 16.16 20.1167 16.16 20.05V16.83L16.18 16.75C16.4333 17.03 16.56 17.3233 16.56 17.63V20.05C16.56 20.1167 16.5467 20.16 16.52 20.18C16.4933 20.2 16.4467 20.2033 16.38 20.19ZM3.98 7.89C3.66 8.10333 3.49333 8.37667 3.48 8.71C3.41333 9.65667 3.78667 10.39 4.6 10.91C4.66667 10.95 4.70667 11.01 4.72 11.09C5.09333 12.1433 5.78 12.9767 6.78 13.59C7.86 14.23 8.94 14.35 10.02 13.95C11.4067 13.4567 12.3467 12.5233 12.84 11.15L12.86 11.09C12.9 10.9967 12.9467 10.9367 13 10.91C13.64 10.5367 14.0133 9.94333 14.12 9.13C14.1867 8.54333 14 8.11667 13.56 7.85C13.52 7.82333 13.5 7.77667 13.5 7.71C13.5267 7.09667 13.5 6.58333 13.42 6.17C13.5 6.23667 13.5933 6.34333 13.7 6.49L13.84 6.67L13.9 6.55C14.2067 5.84333 14.2533 5.11667 14.04 4.37C13.8267 3.62333 13.4133 3.02333 12.8 2.57C12.4133 2.27667 12.02 2.13 11.62 2.13C11.58 2.13 11.5133 2.14667 11.42 2.18C11.3267 2.21333 11.26 2.22333 11.22 2.21C11.18 2.19667 11.14 2.13667 11.1 2.03C11.06 1.95 11.0267 1.89667 11 1.87C10.4133 1.09667 9.62667 0.723333 8.64 0.75C7.94667 0.75 7.24667 0.896667 6.54 1.19C5.40667 1.61667 4.56667 2.23 4.02 3.03C3.67333 3.52333 3.50667 4.06333 3.52 4.65L3.66 4.57C3.82 4.47667 3.94667 4.41667 4.04 4.39C4.17333 4.35 4.31333 4.35 4.46 4.39C4.00667 4.69667 3.73333 5.09 3.64 5.57C3.53333 6.01 3.55333 6.49667 3.7 7.03C3.82 6.77667 3.94667 6.61 4.08 6.53C4.09333 6.55667 4.1 6.59 4.1 6.63C4.07333 7.11 4.07333 7.47 4.1 7.71C4.1 7.77667 4.06 7.83667 3.98 7.89ZM4.5 8.25C4.58 8.23667 4.63 8.21 4.65 8.17C4.67 8.13 4.67333 8.07 4.66 7.99C4.59333 7.36333 4.60667 6.79 4.7 6.27C4.71333 6.19 4.76 6.13 4.84 6.09C5.22667 5.94333 5.65333 5.81667 6.12 5.71C6.22667 5.69667 6.28 5.73667 6.28 5.83C6.33333 6.07 6.28 6.31667 6.12 6.57C6.08 6.63667 6.07 6.68333 6.09 6.71C6.11 6.73667 6.15333 6.75 6.22 6.75C6.88667 6.81667 7.6 6.64333 8.36 6.23C8.48 6.16333 8.66 6.06333 8.9 5.93L9.22 5.73C9.32667 5.66333 9.39667 5.64 9.43 5.66C9.46333 5.68 9.48667 5.74333 9.5 5.85C9.51333 5.99667 9.48667 6.13 9.42 6.25C9.36667 6.33 9.27333 6.43667 9.14 6.57L9.08 6.61C9.01333 6.66333 8.97333 6.71667 8.96 6.77C9.4 6.85 9.85333 6.82333 10.32 6.69C10.6933 6.58333 10.9933 6.42333 11.22 6.21C11.3667 6.09 11.4667 5.94333 11.52 5.77C11.5333 5.67667 11.5867 5.65 11.68 5.69C11.8933 5.78333 12.0467 5.93 12.14 6.13C12.2333 6.30333 12.3067 6.50333 12.36 6.73C12.4 6.86333 12.4467 7.07 12.5 7.35C12.5267 7.43 12.5467 7.50333 12.56 7.57C12.6133 7.46333 12.7 7.31 12.82 7.11L12.94 6.91C12.9933 7.07 13.0067 7.24333 12.98 7.43C12.98 7.56333 12.9667 7.77667 12.94 8.07C12.9267 8.12333 12.9267 8.16 12.94 8.18C12.9533 8.2 12.9867 8.21667 13.04 8.23C13.28 8.31 13.44 8.41333 13.52 8.54C13.6 8.66667 13.62 8.85667 13.58 9.11C13.5267 9.56333 13.3067 9.97 12.92 10.33C12.8533 10.3967 12.7867 10.4367 12.72 10.45C12.6133 10.4633 12.54 10.5033 12.5 10.57C12.46 10.61 12.4267 10.6767 12.4 10.77L12.38 10.85C11.8333 12.3433 10.7933 13.2567 9.26 13.59H9.16C9.29333 13.51 9.38667 13.45 9.44 13.41C9.58667 13.3167 9.66 13.2033 9.66 13.07C9.7 12.8167 9.59333 12.7133 9.34 12.76C9.08667 12.8067 8.74667 12.8033 8.32 12.75C8.2 12.7233 8.11333 12.7433 8.06 12.81C8.00667 12.8767 7.99333 12.9767 8.02 13.11C8.04667 13.2033 8.09333 13.2833 8.16 13.35C8.2 13.39 8.27333 13.4433 8.38 13.51L8.5 13.59C8.04667 13.5767 7.61333 13.4433 7.2 13.19C6.16 12.6033 5.48667 11.77 5.18 10.69C5.14 10.5833 5.06667 10.51 4.96 10.47C4.81333 10.43 4.68 10.35 4.56 10.23C4.48 10.1367 4.38667 10.0033 4.28 9.83C4.09333 9.53667 4.00667 9.22 4.02 8.88C4.03333 8.54 4.19333 8.33 4.5 8.25ZM7.28 11.75C7.29333 11.75 7.32 11.75 7.36 11.75C7.64 11.7633 7.84667 11.7633 7.98 11.75C8.20667 11.7233 8.40667 11.6567 8.58 11.55C8.71333 11.4833 8.80667 11.45 8.86 11.45C8.91333 11.45 9 11.4833 9.12 11.55C9.14667 11.5767 9.2 11.6033 9.28 11.63C9.54667 11.7367 9.82 11.7767 10.1 11.75H10.38C10.46 11.75 10.51 11.7333 10.53 11.7C10.55 11.6667 10.5467 11.6167 10.52 11.55C10.4667 11.3633 10.34 11.2167 10.14 11.11C9.9 10.9633 9.58667 10.8767 9.2 10.85C8.56 10.7833 8.02667 10.87 7.6 11.11C7.37333 11.23 7.24 11.39 7.2 11.59C7.17333 11.6833 7.2 11.7367 7.28 11.75Z" fill="white"/>
</g>
<defs>
<clipPath id="clip0_2_1072">
<rect width="20" height="20" fill="white" transform="matrix(1 0 0 -1 0.5 20.75)"/>
</clipPath>
</defs>
</svg>
