<svg width="33" height="33" viewBox="0 0 33 33" fill="none" xmlns="http://www.w3.org/2000/svg">
<g clip-path="url(#clip0_2_159)">
<path d="M20.3131 26.35C20.2704 25.326 19.9344 24.414 19.3051 23.614C18.6757 22.814 17.8597 22.2753 16.8571 21.998L16.7931 21.966C16.7077 21.9447 16.6437 21.934 16.6011 21.934C15.7477 22.446 14.8411 22.702 13.8811 22.702C12.9211 22.702 12.0251 22.4353 11.1931 21.902C10.1691 22.1153 9.31041 22.6433 8.61707 23.486C7.92374 24.3287 7.56641 25.262 7.54507 26.286V26.382C7.50241 27.7687 7.48107 28.814 7.48107 29.518V29.806C7.48107 30.1687 7.49707 30.3873 7.52907 30.462C7.56107 30.5367 7.69441 30.606 7.92907 30.67L9.04907 30.894C9.98774 31.0433 10.9371 31.1607 11.8971 31.246C13.2411 31.3527 14.5317 31.3847 15.7691 31.342C17.2837 31.2567 18.6597 31.0433 19.8971 30.702C20.1957 30.574 20.3451 30.3713 20.3451 30.094C20.3451 29.6673 20.3451 29.038 20.3451 28.206C20.3451 27.374 20.3344 26.7553 20.3131 26.35ZM9.01707 21.966C9.27307 21.774 9.66774 21.55 10.2011 21.294L10.3611 21.23C9.91307 20.782 9.55574 20.27 9.28907 19.694C9.02241 19.118 8.87841 18.51 8.85707 17.87H7.80107C6.92641 17.8487 6.26507 17.8487 5.81707 17.87C4.66507 17.8913 3.67307 18.2113 2.84107 18.83C2.41441 19.1927 2.04107 19.7047 1.72107 20.366C1.14507 21.518 0.846407 22.9473 0.825073 24.654V26.638C2.38241 27.1287 4.06774 27.4913 5.88107 27.726C6.15841 27.7687 6.35574 27.742 6.47307 27.646C6.59041 27.55 6.63841 27.3527 6.61707 27.054C6.55307 24.8993 7.35307 23.2033 9.01707 21.966ZM24.1851 18.574C23.6091 18.2327 22.9371 18.0087 22.1691 17.902C21.7211 17.8593 21.0277 17.8487 20.0891 17.87C19.5984 17.87 19.2251 17.87 18.9691 17.87C18.9477 18.51 18.8037 19.118 18.5371 19.694C18.2704 20.27 17.9131 20.782 17.4651 21.23C18.4037 21.6353 19.1077 22.1047 19.5771 22.638C20.7717 23.8967 21.3051 25.4113 21.1771 27.182C21.1557 27.3953 21.1877 27.55 21.2731 27.646C21.3584 27.742 21.5184 27.7793 21.7531 27.758C23.3104 27.6513 24.7397 27.342 26.0411 26.83C26.2117 26.766 26.3397 26.6807 26.4251 26.574C26.5104 26.4673 26.5531 26.318 26.5531 26.126L26.5211 24.622C26.5211 23.598 26.5104 22.8407 26.4891 22.35C26.4251 20.7287 25.6571 19.47 24.1851 18.574ZM13.9451 21.518C14.6277 21.518 15.2517 21.3473 15.8171 21.006C16.3824 20.6647 16.8304 20.206 17.1611 19.63C17.4917 19.054 17.6571 18.43 17.6571 17.758C17.6571 17.086 17.4917 16.462 17.1611 15.886C16.8304 15.31 16.3824 14.8513 15.8171 14.51C15.2517 14.1687 14.6277 13.998 13.9451 13.998C13.2624 13.998 12.6277 14.1633 12.0411 14.494C11.4544 14.8247 10.9904 15.278 10.6491 15.854C10.3077 16.43 10.1371 17.054 10.1371 17.726C10.1371 18.398 10.3131 19.0273 10.6651 19.614C11.0171 20.2007 11.4864 20.6647 12.0731 21.006C12.6597 21.3473 13.2837 21.518 13.9451 21.518ZM7.41707 17.646C7.60907 17.646 7.76907 17.6353 7.89707 17.614L8.12107 17.55C8.48374 17.4647 8.72907 17.3793 8.85707 17.294C8.92107 16.5047 9.14507 15.7793 9.52907 15.118C9.91307 14.4567 10.4251 13.902 11.0651 13.454L11.0331 13.166C10.9051 12.5473 10.6384 11.9927 10.2331 11.502C9.82774 11.0113 9.33707 10.6433 8.76107 10.398C8.18507 10.1527 7.59841 10.062 7.00107 10.126C5.97707 10.254 5.13441 10.686 4.47307 11.422C3.81174 12.158 3.50241 13.006 3.54507 13.966C3.60907 15.0113 4.00374 15.8807 4.72907 16.574C5.45441 17.2673 6.35041 17.6247 7.41707 17.646ZM30.8091 15.054C29.9771 14.4353 28.9851 14.1153 27.8331 14.094C27.3851 14.0727 26.7237 14.0727 25.8491 14.094H24.7931C24.7717 14.734 24.6277 15.342 24.3611 15.918C24.0944 16.494 23.7371 17.006 23.2891 17.454L23.5131 17.55C24.0464 17.806 24.4197 18.0193 24.6331 18.19C26.2971 19.3847 27.0971 21.0807 27.0331 23.278C27.0117 23.5767 27.0597 23.774 27.1771 23.87C27.2944 23.966 27.5024 23.9927 27.8011 23.95C29.5931 23.7153 31.2677 23.3527 32.8251 22.862V20.878C32.8037 19.1713 32.5051 17.742 31.9291 16.59C31.6091 15.9287 31.2357 15.4167 30.8091 15.054ZM24.7931 13.518C25.0064 13.6247 25.3371 13.7207 25.7851 13.806C25.8917 13.8487 26.0411 13.87 26.2331 13.87C27.2997 13.8487 28.1957 13.4913 28.9211 12.798C29.6464 12.1047 30.0411 11.2353 30.1051 10.19C30.1264 9.55 29.9931 8.95267 29.7051 8.398C29.4171 7.84334 29.0011 7.37934 28.4571 7.006C27.9131 6.63267 27.3104 6.414 26.6491 6.35C26.0517 6.28601 25.4651 6.37667 24.8891 6.622C24.3131 6.86734 23.8224 7.23534 23.4171 7.726C23.0117 8.21667 22.7451 8.77134 22.6171 9.39001L22.5851 9.67801C23.2251 10.126 23.7371 10.6807 24.1211 11.342C24.5051 12.0033 24.7291 12.7287 24.7931 13.518ZM16.4411 13.07C16.4411 13.0913 16.4411 13.1233 16.4411 13.166L16.4091 13.262C17.1557 13.6887 17.7637 14.27 18.2331 15.006C18.7024 15.742 18.9477 16.558 18.9691 17.454L19.1291 17.486C19.9184 17.6993 20.6811 17.6673 21.4171 17.39C22.1531 17.1127 22.7504 16.654 23.2091 16.014C23.6677 15.374 23.8971 14.6487 23.8971 13.838C23.8757 12.8567 23.5397 12.014 22.8891 11.31C22.2384 10.606 21.4117 10.2113 20.4091 10.126C19.5344 10.0193 18.7077 10.254 17.9291 10.83C17.1504 11.406 16.6544 12.1527 16.4411 13.07ZM15.7691 12.942C15.8117 12.6433 15.9077 12.3233 16.0571 11.982C16.1424 11.7473 16.2917 11.4273 16.5051 11.022C14.8624 10.8727 12.9851 10.8727 10.8731 11.022C11.3211 11.6407 11.5984 12.3233 11.7051 13.07C12.3877 12.75 13.1237 12.59 13.9131 12.59C14.5531 12.59 15.1717 12.7073 15.7691 12.942ZM13.6891 10.67H13.7211C14.3824 10.67 15.0171 10.51 15.6251 10.19C16.2331 9.87 16.7291 9.422 17.1131 8.846C17.4544 8.334 17.6677 7.822 17.7531 7.31C17.7957 6.96867 17.8171 6.71267 17.8171 6.542C17.8171 5.56067 17.5024 4.69134 16.8731 3.934C16.2437 3.17667 15.4491 2.702 14.4891 2.51H14.3931C14.0944 2.46734 13.8597 2.446 13.6891 2.446C12.9424 2.446 12.2544 2.62734 11.6251 2.99C10.9957 3.35267 10.4997 3.84867 10.1371 4.478C9.77441 5.10734 9.59307 5.79534 9.59307 6.542C9.59307 7.28867 9.77441 7.97667 10.1371 8.606C10.4997 9.23534 10.9957 9.73667 11.6251 10.11C12.2544 10.4833 12.9424 10.67 13.6891 10.67Z" fill="#A0D9B4"/>
</g>
<defs>
<clipPath id="clip0_2_159">
<rect width="32.31" height="32" fill="white" transform="matrix(1 0 0 -1 0.670044 32.91)"/>
</clipPath>
</defs>
</svg>
