<svg width="21" height="21" viewBox="0 0 21 21" fill="none" xmlns="http://www.w3.org/2000/svg">
<g clip-path="url(#clip0_2_1066)">
<path d="M11.92 2.47001C11.92 2.43001 11.92 2.37001 11.92 2.29001C11.9333 2.14334 11.9333 2.03668 11.92 1.97001C11.9067 1.82334 11.8567 1.70668 11.77 1.62001C11.6833 1.53334 11.57 1.49334 11.43 1.50001C11.29 1.50668 11.1767 1.55668 11.09 1.65001C11.0033 1.74334 10.96 1.86334 10.96 2.01001V2.45001H10.48V2.01001C10.4667 1.86334 10.4133 1.74001 10.32 1.64001C10.2267 1.54001 10.1133 1.49334 9.98 1.50001C9.84667 1.50668 9.73333 1.56001 9.64 1.66001C9.54667 1.76001 9.5 1.88334 9.5 2.03001V2.47001H9.02V2.05001C9.00667 1.89001 8.95667 1.76001 8.87 1.66001C8.78333 1.56001 8.67 1.50668 8.53 1.50001C8.39 1.49334 8.27667 1.53668 8.19 1.63001C8.10333 1.72334 8.05333 1.85668 8.04 2.03001V2.45001H7.54V2.23001C7.54 1.96334 7.50333 1.77334 7.43 1.66001C7.35667 1.54668 7.23667 1.49334 7.07 1.50001C6.90333 1.50668 6.78 1.56668 6.7 1.68001C6.62 1.79334 6.58 1.97668 6.58 2.23001V2.45001H6.1C6.1 2.23668 6.09333 2.07668 6.08 1.97001C6.06667 1.82334 6.01667 1.70668 5.93 1.62001C5.84333 1.53334 5.73333 1.49334 5.6 1.50001C5.46667 1.50668 5.35333 1.55668 5.26 1.65001C5.16667 1.74334 5.12 1.86334 5.12 2.01001V2.45001H4.64V2.07001C4.64 1.89668 4.59333 1.75668 4.5 1.65001C4.40667 1.54334 4.28667 1.49334 4.14 1.50001C3.99333 1.50668 3.87667 1.56001 3.79 1.66001C3.70333 1.76001 3.66 1.89001 3.66 2.05001V2.45001H3.18V2.07001C3.18 1.89668 3.13667 1.76001 3.05 1.66001C2.96333 1.56001 2.84667 1.50668 2.7 1.50001C2.55333 1.49334 2.43667 1.54001 2.35 1.64001C2.26333 1.74001 2.21333 1.87668 2.2 2.05001V2.47001H0.5V19.01H13.62V2.47001H11.92ZM3.34 6.65001C3.95333 6.65001 4.56667 6.65001 5.18 6.65001H10.78C10.94 6.65001 11.06 6.69668 11.14 6.79001C11.22 6.88334 11.2467 7.00334 11.22 7.15001C11.18 7.32334 11.0667 7.43001 10.88 7.47001H3.38C3.23333 7.47001 3.11667 7.43334 3.03 7.36001C2.94333 7.28668 2.9 7.18668 2.9 7.06001C2.9 6.93334 2.94 6.83334 3.02 6.76001C3.1 6.68668 3.20667 6.65001 3.34 6.65001ZM3.34 8.31001C3.96667 8.31001 4.58667 8.31001 5.2 8.31001H10.78C10.9267 8.31001 11.0433 8.35668 11.13 8.45001C11.2167 8.54334 11.2467 8.66334 11.22 8.81001C11.2067 8.90334 11.17 8.97668 11.11 9.03001C11.05 9.08334 10.9733 9.11668 10.88 9.13001H3.38C3.23333 9.13001 3.11667 9.09668 3.03 9.03001C2.94333 8.96334 2.9 8.86668 2.9 8.74001C2.9 8.61334 2.94 8.51001 3.02 8.43001C3.1 8.35001 3.20667 8.31001 3.34 8.31001ZM3.34 13.31C3.98 13.31 4.61333 13.31 5.24 13.31H10.78C10.9267 13.31 11.0433 13.36 11.13 13.46C11.2167 13.56 11.2467 13.6767 11.22 13.81C11.2067 13.9033 11.17 13.9767 11.11 14.03C11.05 14.0833 10.9733 14.1167 10.88 14.13C10.8533 14.1433 10.8067 14.15 10.74 14.15H3.38C3.23333 14.15 3.11667 14.1133 3.03 14.04C2.94333 13.9667 2.9 13.8667 2.9 13.74C2.9 13.6133 2.94 13.5133 3.02 13.44C3.1 13.3667 3.20667 13.3233 3.34 13.31ZM10.8 15.81C10.2 15.81 9.6 15.81 9 15.81H3.36C3.2 15.81 3.07667 15.76 2.99 15.66C2.90333 15.56 2.88 15.4433 2.92 15.31C2.96 15.1233 3.07333 15.0167 3.26 14.99H10.74C10.9 14.99 11.0233 15.0267 11.11 15.1C11.1967 15.1733 11.24 15.27 11.24 15.39C11.24 15.51 11.2 15.61 11.12 15.69C11.04 15.77 10.9333 15.81 10.8 15.81ZM10.8 12.47C10.1867 12.47 9.56667 12.47 8.94 12.47H3.36C3.2 12.47 3.07667 12.4267 2.99 12.34C2.90333 12.2533 2.87333 12.1367 2.9 11.99C2.92667 11.8967 2.97 11.82 3.03 11.76C3.09 11.7 3.16667 11.6633 3.26 11.65H10.74C10.9 11.65 11.0233 11.6867 11.11 11.76C11.1967 11.8333 11.24 11.9333 11.24 12.06C11.24 12.1867 11.2 12.2867 11.12 12.36C11.04 12.4333 10.9333 12.47 10.8 12.47ZM10.8 10.81C10.1867 10.81 9.56667 10.81 8.94 10.81H3.36C3.2 10.81 3.07667 10.7633 2.99 10.67C2.90333 10.5767 2.87333 10.4567 2.9 10.31C2.91333 10.2167 2.95333 10.1433 3.02 10.09C3.08667 10.0367 3.16667 10.0033 3.26 9.99001H10.74C11.0733 9.99001 11.24 10.1233 11.24 10.39C11.24 10.51 11.2 10.61 11.12 10.69C11.04 10.77 10.9333 10.81 10.8 10.81Z" fill="white"/>
</g>
<defs>
<clipPath id="clip0_2_1066">
<rect width="20" height="20" fill="white" transform="matrix(1 0 0 -1 0.5 20.25)"/>
</clipPath>
</defs>
</svg>
