<svg width="27" height="27" viewBox="0 0 27 27" fill="none" xmlns="http://www.w3.org/2000/svg">
<g clip-path="url(#clip0_2_1045)">
<path d="M16.0266 6.0952C16.0266 4.93253 15.6197 3.9588 14.8058 3.174C13.9919 2.3892 13.0327 1.9968 11.9282 1.9968C10.8237 1.9968 9.86447 2.3892 9.0506 3.174C8.23674 3.9588 7.8298 4.93253 7.8298 6.0952V6.88H16.0266V6.0952ZM17.6834 6.0952V6.88H23.3514V23.1864C23.3514 24.1165 23.0317 24.9013 22.3922 25.5408C21.7527 26.1803 20.997 26.5 20.125 26.5H3.73141C2.8594 26.5 2.10367 26.1803 1.4642 25.5408C0.824738 24.9013 0.505005 24.1456 0.505005 23.2736V6.88H6.17301V6.0952C6.17301 5.0488 6.43461 4.0896 6.95781 3.2176C7.481 2.3456 8.17861 1.648 9.0506 1.1248C9.9226 0.601601 10.8818 0.34 11.9282 0.34C12.9746 0.34 13.9338 0.601601 14.8058 1.1248C15.6778 1.648 16.3754 2.3456 16.8986 3.2176C17.4218 4.0896 17.6834 5.0488 17.6834 6.0952ZM16.637 14.8152C16.7533 14.6408 16.8114 14.4373 16.8114 14.2048C16.8114 13.9723 16.7387 13.7833 16.5934 13.638C16.4481 13.4927 16.2591 13.42 16.0266 13.42C15.7941 13.42 15.5906 13.5072 15.4162 13.6816L11.1434 17.9544L9.22501 16.1232C9.0506 15.9488 8.86167 15.8616 8.65821 15.8616C8.45474 15.8616 8.2658 15.9488 8.0914 16.1232C7.91701 16.2976 7.8298 16.4865 7.8298 16.69C7.8298 16.8935 7.91701 17.0824 8.0914 17.2568L10.533 19.6984C10.7074 19.8728 10.9109 19.96 11.1434 19.96C11.3759 19.96 11.5503 19.8728 11.6666 19.6984L16.637 14.8152Z" fill="white"/>
</g>
<defs>
<clipPath id="clip0_2_1045">
<rect width="26.17" height="26.16" fill="white" transform="matrix(1 0 0 -1 0.5 26.5)"/>
</clipPath>
</defs>
</svg>
