<svg width="21" height="21" viewBox="0 0 21 21" fill="none" xmlns="http://www.w3.org/2000/svg">
<g clip-path="url(#clip0_2_1110)">
<path d="M2.66 10.39C2.60667 10.3233 2.58 10.2733 2.58 10.24C2.58 10.2067 2.60667 10.1633 2.66 10.11L6.9 5.84999C6.94 5.79666 7 5.72999 7.08 5.64999C7.21333 5.47666 7.27 5.27666 7.25 5.04999C7.23 4.82333 7.13333 4.63666 6.96 4.48999C6.78667 4.34333 6.59 4.27999 6.37 4.29999C6.15 4.31999 5.95333 4.41666 5.78 4.58999L0.86 9.50999C0.673333 9.72333 0.553333 9.90333 0.5 10.05V10.45C0.553333 10.5967 0.68 10.77 0.88 10.97L0.94 11.03C3.07333 13.19 4.68667 14.8167 5.78 15.91C5.96667 16.0967 6.17667 16.1933 6.41 16.2C6.64333 16.2067 6.84667 16.1233 7.02 15.95C7.19333 15.7767 7.27333 15.5733 7.26 15.34C7.24667 15.1067 7.14667 14.9033 6.96 14.73C6.01333 13.7567 4.58 12.31 2.66 10.39ZM20.22 9.60999C19.9533 9.34333 19.56 8.94333 19.04 8.40999L15.18 4.54999C15.02 4.38999 14.84 4.30333 14.64 4.28999C14.44 4.27666 14.2567 4.32999 14.09 4.44999C13.9233 4.56999 13.8133 4.73666 13.76 4.94999C13.68 5.24333 13.7733 5.52333 14.04 5.78999L15.48 7.22999C16.7467 8.50999 17.7 9.46333 18.34 10.09C18.4067 10.1567 18.44 10.21 18.44 10.25C18.44 10.29 18.4067 10.3367 18.34 10.39C16.4467 12.2833 15.0333 13.7033 14.1 14.65L13.96 14.79C13.8133 14.9767 13.7433 15.18 13.75 15.4C13.7567 15.62 13.8433 15.81 14.01 15.97C14.1767 16.13 14.37 16.2067 14.59 16.2C14.81 16.1933 15.0067 16.11 15.18 15.95C15.2467 15.8833 15.3467 15.7833 15.48 15.65L20.18 10.91C20.3933 10.7233 20.5 10.5067 20.5 10.26C20.5 10.0133 20.4067 9.79666 20.22 9.60999ZM12.44 4.88999C12.2667 4.90333 12.1267 4.95999 12.02 5.05999C11.9133 5.15999 11.8267 5.29666 11.76 5.46999L8.12 14.99C8.02667 15.2567 8.05333 15.4967 8.2 15.71C8.34667 15.9233 8.55333 16.03 8.82 16.03C8.98 16.03 9.12333 15.9833 9.25 15.89C9.37667 15.7967 9.46667 15.6633 9.52 15.49C10.4933 12.97 11.54 10.2367 12.66 7.28999L12.82 6.88999C12.9933 6.44999 13.12 6.11666 13.2 5.88999C13.2933 5.62333 13.26 5.38333 13.1 5.16999C12.94 4.95666 12.72 4.86333 12.44 4.88999Z" fill="white"/>
</g>
<defs>
<clipPath id="clip0_2_1110">
<rect width="20" height="20" fill="white" transform="matrix(1 0 0 -1 0.5 20.25)"/>
</clipPath>
</defs>
</svg>
