<svg width="21" height="21" viewBox="0 0 21 21" fill="none" xmlns="http://www.w3.org/2000/svg">
<g clip-path="url(#clip0_2_1050)">
<path d="M17.7582 9.20998L15.8382 7.84998C15.8515 7.80998 15.8582 7.74998 15.8582 7.66998V4.84998C15.8582 4.71665 15.8348 4.62665 15.7882 4.57998C15.7415 4.53331 15.6515 4.50998 15.5182 4.50998H13.6782C13.5448 4.50998 13.4548 4.53331 13.4082 4.57998C13.3615 4.62665 13.3382 4.71665 13.3382 4.84998V6.08998L9.53818 3.40998C9.39151 3.31665 9.28818 3.26998 9.22818 3.26998C9.16818 3.26998 9.07818 3.31665 8.95818 3.40998L4.07818 6.82998C2.58485 7.89665 1.45818 8.69665 0.698182 9.22998C0.591515 9.30998 0.528182 9.38331 0.508182 9.44998C0.488182 9.51665 0.504848 9.59665 0.558182 9.68998L1.67818 11.29C1.69152 11.3166 1.72485 11.3466 1.77818 11.38C1.83152 11.4133 1.87152 11.4433 1.89818 11.47L2.17818 11.31L2.57818 11.01C2.56485 11.05 2.55818 11.11 2.55818 11.19V17.81C2.55818 17.9833 2.58485 18.0966 2.63818 18.15C2.69151 18.2033 2.80485 18.23 2.97818 18.23H7.13818C7.32485 18.23 7.44151 18.2033 7.48818 18.15C7.53485 18.0966 7.55818 17.9833 7.55818 17.81V11.93H10.9182V17.83C10.9182 17.99 10.9448 18.0966 10.9982 18.15C11.0515 18.2033 11.1582 18.23 11.3182 18.23H15.4982C15.6448 18.23 15.7448 18.2033 15.7982 18.15C15.8515 18.0966 15.8782 17.9966 15.8782 17.85V11.13C15.8782 11.0633 15.8715 11.0166 15.8582 10.99L16.3182 11.31C16.4515 11.4033 16.5515 11.4433 16.6182 11.43C16.6848 11.4166 16.7648 11.3433 16.8582 11.21L17.8582 9.76998C17.9515 9.63665 17.9948 9.53665 17.9882 9.46998C17.9815 9.40331 17.9048 9.31665 17.7582 9.20998Z" fill="white"/>
</g>
<defs>
<clipPath id="clip0_2_1050">
<rect width="20" height="20" fill="white" transform="matrix(1 0 0 -1 0.5 20.75)"/>
</clipPath>
</defs>
</svg>
