<svg width="21" height="21" viewBox="0 0 21 21" fill="none" xmlns="http://www.w3.org/2000/svg">
<g opacity="0.3" clip-path="url(#clip0_2_1087)">
<path d="M10.06 10.55C9.87333 10.55 9.71333 10.4833 9.58 10.35C9.44667 10.2167 9.38 10.0567 9.38 9.87C9.38 9.68333 9.44667 9.52333 9.58 9.39C9.71333 9.25666 9.87333 9.19 10.06 9.19C10.2467 9.19 10.4067 9.25666 10.54 9.39C10.6733 9.52333 10.74 9.68333 10.74 9.87C10.74 10.0567 10.6733 10.2167 10.54 10.35C10.4067 10.4833 10.2467 10.55 10.06 10.55ZM6.5 10.55C6.31333 10.55 6.15333 10.4833 6.02 10.35C5.88667 10.2167 5.82 10.0567 5.82 9.87C5.82 9.68333 5.88667 9.52333 6.02 9.39C6.15333 9.25666 6.31333 9.19 6.5 9.19C6.68667 9.19 6.84667 9.25666 6.98 9.39C7.11333 9.52333 7.18 9.68333 7.18 9.87C7.18 10.0567 7.11333 10.2167 6.98 10.35C6.84667 10.4833 6.68667 10.55 6.5 10.55ZM4.74 10.55C4.55333 10.55 4.39333 10.4833 4.26 10.35C4.12667 10.2167 4.06 10.0567 4.06 9.87C4.06 9.68333 4.12667 9.52333 4.26 9.39C4.39333 9.25666 4.55333 9.19 4.74 9.19C4.92667 9.19 5.08333 9.25666 5.21 9.39C5.33667 9.52333 5.4 9.68333 5.4 9.87C5.4 10.0567 5.33667 10.2167 5.21 10.35C5.08333 10.4833 4.92667 10.55 4.74 10.55ZM2.94 10.55C2.75333 10.55 2.59667 10.4833 2.47 10.35C2.34333 10.2167 2.28 10.0567 2.28 9.87C2.28 9.68333 2.34333 9.52333 2.47 9.39C2.59667 9.25666 2.75333 9.19 2.94 9.19C3.12667 9.19 3.28667 9.25666 3.42 9.39C3.55333 9.52333 3.62 9.68333 3.62 9.87C3.62 10.0567 3.55333 10.2167 3.42 10.35C3.28667 10.4833 3.12667 10.55 2.94 10.55ZM4.74 12.31C4.55333 12.31 4.39333 12.2467 4.26 12.12C4.12667 11.9933 4.06 11.8367 4.06 11.65C4.06 11.4633 4.12667 11.3033 4.26 11.17C4.39333 11.0367 4.55333 10.97 4.74 10.97C4.92667 10.97 5.08333 11.0367 5.21 11.17C5.33667 11.3033 5.4 11.46 5.4 11.64C5.4 11.82 5.33667 11.9767 5.21 12.11C5.08333 12.2433 4.92667 12.31 4.74 12.31ZM8.28 12.31C8.09333 12.31 7.93333 12.2433 7.8 12.11C7.66667 11.9767 7.6 11.82 7.6 11.64C7.6 11.46 7.66667 11.3033 7.8 11.17C7.93333 11.0367 8.09333 10.97 8.28 10.97C8.46667 10.97 8.62333 11.0367 8.75 11.17C8.87667 11.3033 8.94 11.46 8.94 11.64C8.94 11.82 8.87667 11.9767 8.75 12.11C8.62333 12.2433 8.46667 12.31 8.28 12.31ZM1.18 8.77C0.993333 8.77 0.833333 8.70333 0.7 8.57C0.566667 8.43666 0.5 8.27666 0.5 8.09C0.5 7.90333 0.566667 7.74333 0.7 7.61C0.833333 7.47666 0.993333 7.41 1.18 7.41C1.36667 7.41 1.52667 7.47666 1.66 7.61C1.79333 7.74333 1.86 7.90333 1.86 8.09C1.86 8.27666 1.79333 8.43666 1.66 8.57C1.52667 8.70333 1.36667 8.77 1.18 8.77ZM6.5 14.09C6.31333 14.09 6.15333 14.0233 6.02 13.89C5.88667 13.7567 5.82 13.5967 5.82 13.41C5.82 13.2233 5.88667 13.0633 6.02 12.93C6.15333 12.7967 6.31333 12.73 6.5 12.73C6.68667 12.73 6.84667 12.7967 6.98 12.93C7.11333 13.0633 7.18 13.2233 7.18 13.41C7.18 13.5967 7.11333 13.7567 6.98 13.89C6.84667 14.0233 6.68667 14.09 6.5 14.09ZM6.5 12.31C6.31333 12.31 6.15333 12.2467 6.02 12.12C5.88667 11.9933 5.82 11.8367 5.82 11.65C5.82 11.4633 5.88667 11.3033 6.02 11.17C6.15333 11.0367 6.31333 10.97 6.5 10.97C6.68667 10.97 6.84667 11.0367 6.98 11.17C7.11333 11.3033 7.18 11.4633 7.18 11.65C7.18 11.8367 7.11333 11.9933 6.98 12.12C6.84667 12.2467 6.68667 12.31 6.5 12.31ZM8.28 10.55C8.09333 10.55 7.93333 10.4833 7.8 10.35C7.66667 10.2167 7.6 10.0567 7.6 9.87C7.6 9.68333 7.66667 9.52333 7.8 9.39C7.93333 9.25666 8.09333 9.19 8.28 9.19C8.46667 9.19 8.62333 9.25666 8.75 9.39C8.87667 9.52333 8.94 9.68333 8.94 9.87C8.94 10.0567 8.87667 10.2167 8.75 10.35C8.62333 10.4833 8.46667 10.55 8.28 10.55ZM11.82 8.77C11.6333 8.77 11.4733 8.70333 11.34 8.57C11.2067 8.43666 11.14 8.27666 11.14 8.09C11.14 7.90333 11.2067 7.74333 11.34 7.61C11.4733 7.47666 11.6333 7.41 11.82 7.41C12.0067 7.41 12.1667 7.47666 12.3 7.61C12.4333 7.74333 12.5 7.90333 12.5 8.09C12.5 8.27666 12.4333 8.43666 12.3 8.57C12.1667 8.70333 12.0067 8.77 11.82 8.77ZM2.94 8.77C2.75333 8.77 2.59667 8.70333 2.47 8.57C2.34333 8.43666 2.28 8.27666 2.28 8.09C2.28 7.90333 2.34667 7.74333 2.48 7.61C2.61333 7.47666 2.77 7.41 2.95 7.41C3.13 7.41 3.28667 7.47666 3.42 7.61C3.55333 7.74333 3.62 7.90333 3.62 8.09C3.62 8.27666 3.55333 8.43666 3.42 8.57C3.28667 8.70333 3.12667 8.77 2.94 8.77ZM10.06 8.77C9.87333 8.77 9.71333 8.70333 9.58 8.57C9.44667 8.43666 9.38 8.27666 9.38 8.09C9.38 7.90333 9.44667 7.74333 9.58 7.61C9.71333 7.47666 9.87333 7.41 10.06 7.41C10.2467 7.41 10.4067 7.47666 10.54 7.61C10.6733 7.74333 10.74 7.90333 10.74 8.09C10.74 8.27666 10.6733 8.43666 10.54 8.57C10.4067 8.70333 10.2467 8.77 10.06 8.77ZM6.5 8.77C6.31333 8.77 6.15333 8.70333 6.02 8.57C5.88667 8.43666 5.82 8.27666 5.82 8.09C5.82 7.90333 5.88667 7.74333 6.02 7.61C6.15333 7.47666 6.31333 7.41 6.5 7.41C6.68667 7.41 6.84667 7.47666 6.98 7.61C7.11333 7.74333 7.18 7.90333 7.18 8.09C7.18 8.27666 7.11333 8.43666 6.98 8.57C6.84667 8.70333 6.68667 8.77 6.5 8.77ZM8.28 8.77C8.09333 8.77 7.93333 8.70333 7.8 8.57C7.66667 8.43666 7.6 8.27666 7.6 8.09C7.6 7.90333 7.67 7.74333 7.81 7.61C7.95 7.47666 8.10667 7.41 8.28 7.41C8.45333 7.41 8.60667 7.47666 8.74 7.61C8.87333 7.74333 8.94 7.90333 8.94 8.09C8.94 8.27666 8.87667 8.43666 8.75 8.57C8.62333 8.70333 8.46667 8.77 8.28 8.77ZM4.74 8.77C4.55333 8.77 4.39333 8.70333 4.26 8.57C4.12667 8.43666 4.06 8.27666 4.06 8.09C4.06 7.90333 4.12667 7.74333 4.26 7.61C4.39333 7.47666 4.55 7.41 4.73 7.41C4.91 7.41 5.06667 7.47666 5.2 7.61C5.33333 7.74333 5.4 7.90333 5.4 8.09C5.4 8.27666 5.33667 8.43666 5.21 8.57C5.08333 8.70333 4.92667 8.77 4.74 8.77Z" fill="white"/>
</g>
<defs>
<clipPath id="clip0_2_1087">
<rect width="20" height="20" fill="white" transform="matrix(1 0 0 -1 0.5 20.75)"/>
</clipPath>
</defs>
</svg>
