<svg width="33" height="33" viewBox="0 0 33 33" fill="none" xmlns="http://www.w3.org/2000/svg">
<g clip-path="url(#clip0_2_131)">
<path d="M23.951 20.782C24.4417 19.5233 25.1884 17.6567 26.191 15.182L28.399 9.58201C28.4417 9.49667 28.4684 9.42201 28.479 9.35801C28.4897 9.29401 28.4417 9.24067 28.335 9.19801C28.2284 9.15534 28.0897 9.13401 27.919 9.13401H6.47903C6.30836 9.13401 6.14303 9.07534 5.98303 8.95801C5.82303 8.84067 5.73236 8.69667 5.71103 8.52601L5.10303 5.55001C5.06036 5.37934 4.96436 5.23534 4.81503 5.11801C4.66569 5.00067 4.50569 4.94201 4.33503 4.94201H1.10303C0.932359 4.94201 0.788359 5.00601 0.671026 5.13401C0.553692 5.26201 0.495026 5.41134 0.495026 5.58201V5.90201C0.495026 6.07267 0.553692 6.21667 0.671026 6.33401C0.788359 6.45134 0.932359 6.51001 1.10303 6.51001H3.05503C3.22569 6.51001 3.38569 6.57401 3.53503 6.70201C3.68436 6.83001 3.76969 6.97934 3.79103 7.15001L7.34303 24.526C7.36436 24.6967 7.33769 24.878 7.26303 25.07C7.18836 25.262 7.08703 25.422 6.95903 25.55C6.61769 25.934 6.44703 26.3927 6.44703 26.926C6.44703 27.4593 6.64436 27.918 7.03903 28.302C7.43369 28.686 7.90836 28.878 8.46303 28.878C9.01769 28.878 9.49236 28.6807 9.88703 28.286C10.2817 27.8913 10.479 27.4273 10.479 26.894C10.479 26.6167 10.4417 26.3873 10.367 26.206C10.2924 26.0247 10.2817 25.886 10.335 25.79C10.3884 25.694 10.5004 25.646 10.671 25.646H20.623C20.7937 25.646 20.9057 25.694 20.959 25.79C21.0124 25.886 21.0017 26.0247 20.927 26.206C20.8524 26.3873 20.815 26.606 20.815 26.862C20.7937 27.3953 20.9857 27.8647 21.391 28.27C21.7964 28.6753 22.271 28.8833 22.815 28.894C23.359 28.9047 23.8284 28.718 24.223 28.334C24.6177 27.95 24.8257 27.4807 24.847 26.926C24.847 26.3073 24.6017 25.7847 24.111 25.358C23.7484 25.0807 23.567 24.814 23.567 24.558C23.567 24.43 23.503 24.3233 23.375 24.238C23.247 24.1527 23.0977 24.11 22.927 24.11H9.55103C9.38036 24.11 9.22036 24.0513 9.07103 23.934C8.92169 23.8167 8.82569 23.6727 8.78303 23.502L8.43103 21.838C8.38836 21.6673 8.39369 21.5233 8.44703 21.406C8.50036 21.2887 8.56969 21.23 8.65503 21.23H23.247C23.439 21.23 23.583 21.198 23.679 21.134C23.775 21.07 23.8657 20.9527 23.951 20.782Z" fill="#A883BA"/>
</g>
<defs>
<clipPath id="clip0_2_131">
<rect width="32.31" height="32" fill="white" transform="matrix(1 0 0 -1 0.340027 32.91)"/>
</clipPath>
</defs>
</svg>
