<svg width="18" height="18" viewBox="0 0 18 18" fill="none" xmlns="http://www.w3.org/2000/svg">
<g clip-path="url(#clip0_2_1106)">
<path d="M15.072 3.106C15.038 3.038 14.9813 2.99267 14.902 2.97C14.868 2.95867 14.8311 2.9615 14.7915 2.9785C14.7518 2.9955 14.7263 3.021 14.715 3.055C14.5903 3.225 14.4373 3.361 14.256 3.463C14.1426 3.51967 13.9613 3.59334 13.712 3.684C13.4966 3.76334 13.3323 3.82567 13.219 3.871C13.0376 3.96167 12.8676 4.06367 12.709 4.177C12.4483 4.35834 12.2641 4.56517 12.1565 4.7975C12.0488 5.02984 12.0233 5.265 12.08 5.503L12.063 5.52C11.8703 5.23667 11.6436 4.95334 11.383 4.67C10.8163 4.08067 10.1533 3.616 9.39396 3.276C8.63462 2.936 7.84696 2.749 7.03096 2.715H6.80996C5.90329 2.715 5.03346 2.9105 4.20046 3.3015C3.36746 3.6925 2.64779 4.23934 2.04146 4.942C1.43512 5.64467 1.00446 6.43517 0.749457 7.3135C0.494457 8.19184 0.434957 9.08434 0.570957 9.991C0.58229 10.1157 0.610623 10.263 0.655957 10.433C0.87129 11.419 1.25379 12.269 1.80346 12.983C2.35312 13.697 3.01329 14.2183 3.78396 14.547C4.14662 14.7057 4.52629 14.785 4.92296 14.785C5.39896 14.785 5.83246 14.666 6.22346 14.428C6.61446 14.19 6.92896 13.85 7.16696 13.408C7.35962 13.0793 7.47862 12.7393 7.52396 12.388C7.54662 12.252 7.54662 12.0537 7.52396 11.793L7.50696 11.657C7.48429 11.453 7.48429 11.3 7.50696 11.198C7.54096 10.9827 7.63162 10.8127 7.77896 10.688C7.92629 10.5633 8.11329 10.501 8.33996 10.501C8.46462 10.501 8.59496 10.518 8.73096 10.552L8.71396 10.603C8.53262 10.943 8.40229 11.1923 8.32296 11.351C8.06229 11.861 7.88662 12.2917 7.79596 12.643C7.63729 13.1303 7.68829 13.4647 7.94896 13.646C8.05096 13.7253 8.19262 13.7537 8.37396 13.731C8.75929 13.6403 9.34862 13.1473 10.142 12.252C10.4026 11.946 10.7483 11.521 11.179 10.977C11.6436 10.8183 12.046 10.5605 12.386 10.2035C12.726 9.8465 12.9413 9.44134 13.032 8.988C13.0773 8.77267 13.1 8.529 13.1 8.257C13.3493 7.86034 13.6723 7.33334 14.069 6.676C14.069 6.66467 14.0746 6.65334 14.086 6.642C14.3126 6.58534 14.5166 6.472 14.698 6.302C14.8793 6.132 15.0266 5.92234 15.14 5.673C15.2986 5.31034 15.3723 4.91084 15.361 4.4745C15.3496 4.03817 15.2533 3.582 15.072 3.106ZM10.006 6.472C9.92662 6.59667 9.82179 6.69584 9.69146 6.7695C9.56112 6.84317 9.41662 6.88 9.25796 6.88C9.07662 6.88 8.92362 6.83467 8.79896 6.744C8.59496 6.61934 8.46462 6.43517 8.40796 6.1915C8.35129 5.94784 8.39096 5.72967 8.52696 5.537C8.60629 5.41234 8.71112 5.31317 8.84146 5.2395C8.97179 5.16584 9.11629 5.129 9.27496 5.129C9.45629 5.129 9.60929 5.17434 9.73396 5.265C9.93796 5.38967 10.0683 5.57384 10.125 5.8175C10.1816 6.06117 10.142 6.27934 10.006 6.472ZM11.162 8.07C11.536 7.50334 11.9893 6.87434 12.522 6.183C12.6013 6.251 12.6806 6.31334 12.76 6.37C12.93 6.48334 13.083 6.56267 13.219 6.608C12.9016 7.152 12.4766 7.82067 11.944 8.614C11.0713 9.88334 10.2836 10.9203 9.58096 11.725C9.18429 12.167 8.84429 12.5127 8.56096 12.762C8.67429 12.3767 8.86696 11.929 9.13896 11.419C9.66029 10.3877 10.3346 9.27134 11.162 8.07ZM3.34196 8.07C3.17196 8.07 3.01329 8.02467 2.86596 7.934C2.65062 7.798 2.51746 7.611 2.46646 7.373C2.41546 7.135 2.45796 6.914 2.59396 6.71C2.67329 6.58534 2.77812 6.48617 2.90846 6.4125C3.03879 6.33884 3.18329 6.302 3.34196 6.302C3.50062 6.302 3.65362 6.34734 3.80096 6.438C4.01629 6.56267 4.14946 6.744 4.20046 6.982C4.25146 7.22 4.21462 7.44667 4.08996 7.662C3.99929 7.78667 3.88879 7.88584 3.75846 7.9595C3.62812 8.03317 3.48929 8.07 3.34196 8.07ZM2.40696 10.008C2.49762 9.88334 2.60812 9.78417 2.73846 9.7105C2.86879 9.63684 3.00762 9.6 3.15496 9.6C3.34762 9.6 3.50629 9.64534 3.63096 9.736C3.83496 9.86067 3.96246 10.0392 4.01346 10.2715C4.06446 10.5038 4.02762 10.7277 3.90296 10.943C3.82362 11.0677 3.71879 11.1668 3.58846 11.2405C3.45812 11.3142 3.31362 11.351 3.15496 11.351C2.97362 11.351 2.82062 11.3057 2.69596 11.215C2.49196 11.0903 2.36162 10.909 2.30496 10.671C2.24829 10.433 2.28229 10.212 2.40696 10.008ZM5.22896 4.772C5.31962 4.64734 5.43012 4.54817 5.56046 4.4745C5.69079 4.40084 5.83529 4.364 5.99396 4.364C6.15262 4.364 6.30562 4.40934 6.45296 4.5C6.65696 4.62467 6.78446 4.806 6.83546 5.044C6.88646 5.282 6.84962 5.503 6.72496 5.707C6.64562 5.843 6.54079 5.94784 6.41046 6.0215C6.28012 6.09517 6.13562 6.132 5.97696 6.132C5.81829 6.132 5.66529 6.08667 5.51796 5.996C5.30262 5.86 5.16946 5.673 5.11846 5.435C5.06746 5.197 5.10429 4.976 5.22896 4.772Z" fill="white"/>
</g>
<defs>
<clipPath id="clip0_2_1106">
<rect width="17" height="17" fill="white" transform="matrix(1 0 0 -1 0.5 17.25)"/>
</clipPath>
</defs>
</svg>
