<svg width="33" height="33" viewBox="0 0 33 33" fill="none" xmlns="http://www.w3.org/2000/svg">
<g clip-path="url(#clip0_2_145)">
<path d="M24.207 0.910004H1.51899C1.15632 0.910004 0.841654 1.04867 0.574988 1.326C0.308321 1.60334 0.174988 1.94467 0.174988 2.35V31.47C0.174988 31.8753 0.308321 32.2167 0.574988 32.494C0.841654 32.7713 1.15632 32.91 1.51899 32.91H24.207C24.5697 32.91 24.8843 32.7713 25.151 32.494C25.4177 32.2167 25.551 31.8753 25.551 31.47V2.35C25.551 1.94467 25.4177 1.60334 25.151 1.326C24.8843 1.04867 24.5697 0.910004 24.207 0.910004ZM8.39899 29.006C8.39899 29.198 8.34032 29.358 8.22299 29.486C8.10565 29.614 7.96165 29.678 7.79099 29.678H4.14299C3.97232 29.678 3.82299 29.614 3.69499 29.486C3.56699 29.358 3.50299 29.198 3.50299 29.006V26.478C3.50299 26.286 3.56699 26.1207 3.69499 25.982C3.82299 25.8433 3.97232 25.774 4.14299 25.774H7.79099C7.96165 25.774 8.10565 25.8433 8.22299 25.982C8.34032 26.1207 8.39899 26.286 8.39899 26.478V29.006ZM8.39899 23.502C8.39899 23.6727 8.33499 23.8273 8.20699 23.966C8.07899 24.1047 7.94032 24.174 7.79099 24.174H4.14299C3.97232 24.174 3.82299 24.1047 3.69499 23.966C3.56699 23.8273 3.50299 23.6727 3.50299 23.502V20.942C3.50299 20.75 3.56699 20.59 3.69499 20.462C3.82299 20.334 3.97232 20.27 4.14299 20.27H7.79099C7.96165 20.27 8.10565 20.334 8.22299 20.462C8.34032 20.59 8.39899 20.75 8.39899 20.942V23.502ZM8.39899 18.222C8.39899 18.3927 8.33499 18.5473 8.20699 18.686C8.07899 18.8247 7.94032 18.894 7.79099 18.894H4.14299C3.97232 18.894 3.82299 18.8247 3.69499 18.686C3.56699 18.5473 3.50299 18.3927 3.50299 18.222V15.662C3.50299 15.4913 3.56699 15.3367 3.69499 15.198C3.82299 15.0593 3.97232 14.99 4.14299 14.99H7.79099C7.94032 14.99 8.07899 15.0593 8.20699 15.198C8.33499 15.3367 8.39899 15.4913 8.39899 15.662V18.222ZM15.311 29.006C15.311 29.198 15.247 29.358 15.119 29.486C14.991 29.614 14.8417 29.678 14.671 29.678H11.023C10.8523 29.678 10.7083 29.614 10.591 29.486C10.4737 29.358 10.415 29.198 10.415 29.006V26.478C10.415 26.286 10.4737 26.1207 10.591 25.982C10.7083 25.8433 10.8523 25.774 11.023 25.774H14.671C14.8417 25.774 14.991 25.8433 15.119 25.982C15.247 26.1207 15.311 26.286 15.311 26.478V29.006ZM15.311 23.502C15.311 23.6727 15.247 23.8273 15.119 23.966C14.991 24.1047 14.8417 24.174 14.671 24.174H11.023C10.8737 24.174 10.735 24.1047 10.607 23.966C10.479 23.8273 10.415 23.6727 10.415 23.502V20.942C10.415 20.75 10.4737 20.59 10.591 20.462C10.7083 20.334 10.8523 20.27 11.023 20.27H14.671C14.8417 20.27 14.991 20.334 15.119 20.462C15.247 20.59 15.311 20.75 15.311 20.942V23.502ZM15.311 18.222C15.311 18.3927 15.247 18.5473 15.119 18.686C14.991 18.8247 14.8417 18.894 14.671 18.894H11.023C10.8737 18.894 10.735 18.8247 10.607 18.686C10.479 18.5473 10.415 18.3927 10.415 18.222V15.662C10.415 15.4913 10.479 15.3367 10.607 15.198C10.735 15.0593 10.8737 14.99 11.023 14.99H14.671C14.8417 14.99 14.991 15.0593 15.119 15.198C15.247 15.3367 15.311 15.4913 15.311 15.662V18.222ZM22.191 29.006C22.191 29.198 22.1323 29.358 22.015 29.486C21.8977 29.614 21.7537 29.678 21.583 29.678H17.935C17.7643 29.678 17.615 29.614 17.487 29.486C17.359 29.358 17.295 29.198 17.295 29.006V26.478C17.295 26.286 17.359 26.1207 17.487 25.982C17.615 25.8433 17.7643 25.774 17.935 25.774H21.583C21.7537 25.774 21.8977 25.8433 22.015 25.982C22.1323 26.1207 22.191 26.286 22.191 26.478V29.006ZM22.191 23.502C22.191 23.6727 22.127 23.8273 21.999 23.966C21.871 24.1047 21.7323 24.174 21.583 24.174H17.935C17.7643 24.174 17.615 24.1047 17.487 23.966C17.359 23.8273 17.295 23.6727 17.295 23.502V20.942C17.295 20.75 17.359 20.59 17.487 20.462C17.615 20.334 17.7643 20.27 17.935 20.27H21.583C21.7537 20.27 21.8977 20.334 22.015 20.462C22.1323 20.59 22.191 20.75 22.191 20.942V23.502ZM22.191 18.222C22.191 18.3927 22.127 18.5473 21.999 18.686C21.871 18.8247 21.7323 18.894 21.583 18.894H17.935C17.7643 18.894 17.615 18.8247 17.487 18.686C17.359 18.5473 17.295 18.3927 17.295 18.222V15.662C17.295 15.4913 17.359 15.3367 17.487 15.198C17.615 15.0593 17.7643 14.99 17.935 14.99H21.583C21.7323 14.99 21.871 15.0593 21.999 15.198C22.127 15.3367 22.191 15.4913 22.191 15.662V18.222ZM22.191 10.83C22.191 11.1073 22.1057 11.342 21.935 11.534C21.7643 11.726 21.551 11.822 21.295 11.822H4.39899C4.16432 11.822 3.95632 11.726 3.77499 11.534C3.59365 11.342 3.50299 11.1073 3.50299 10.83V5.838C3.50299 5.582 3.59365 5.358 3.77499 5.166C3.95632 4.974 4.16432 4.878 4.39899 4.878H21.295C21.551 4.878 21.7643 4.974 21.935 5.166C22.1057 5.358 22.191 5.582 22.191 5.838V10.83Z" fill="#F1C8DB"/>
</g>
<defs>
<clipPath id="clip0_2_145">
<rect width="32.31" height="32" fill="white" transform="matrix(1 0 0 -1 0.019989 32.91)"/>
</clipPath>
</defs>
</svg>
