<svg width="21" height="21" viewBox="0 0 21 21" fill="none" xmlns="http://www.w3.org/2000/svg">
<g clip-path="url(#clip0_2_1096)">
<path d="M2.66 10.89C2.60667 10.8233 2.58 10.7733 2.58 10.74C2.58 10.7067 2.60667 10.6633 2.66 10.61L6.9 6.35001C6.94 6.29668 7 6.23001 7.08 6.15001C7.21333 5.97668 7.27 5.77668 7.25 5.55001C7.23 5.32334 7.13333 5.13668 6.96 4.99001C6.78667 4.84334 6.59 4.78001 6.37 4.80001C6.15 4.82001 5.95333 4.91668 5.78 5.09001L0.86 10.01C0.673333 10.2233 0.553333 10.4033 0.5 10.55V10.95C0.553333 11.0967 0.68 11.27 0.88 11.47L0.94 11.53C3.07333 13.69 4.68667 15.3167 5.78 16.41C5.96667 16.5967 6.17667 16.6933 6.41 16.7C6.64333 16.7067 6.84667 16.6233 7.02 16.45C7.19333 16.2767 7.27333 16.0733 7.26 15.84C7.24667 15.6067 7.14667 15.4033 6.96 15.23C6.01333 14.2567 4.58 12.81 2.66 10.89ZM20.22 10.11C19.9533 9.84334 19.56 9.44334 19.04 8.91001L15.18 5.05001C15.02 4.89001 14.84 4.80334 14.64 4.79001C14.44 4.77668 14.2567 4.83001 14.09 4.95001C13.9233 5.07001 13.8133 5.23668 13.76 5.45001C13.68 5.74334 13.7733 6.02334 14.04 6.29001L15.48 7.73001C16.7467 9.01001 17.7 9.96334 18.34 10.59C18.4067 10.6567 18.44 10.71 18.44 10.75C18.44 10.79 18.4067 10.8367 18.34 10.89C16.4467 12.7833 15.0333 14.2033 14.1 15.15L13.96 15.29C13.8133 15.4767 13.7433 15.68 13.75 15.9C13.7567 16.12 13.8433 16.31 14.01 16.47C14.1767 16.63 14.37 16.7067 14.59 16.7C14.81 16.6933 15.0067 16.61 15.18 16.45C15.2467 16.3833 15.3467 16.2833 15.48 16.15L20.18 11.41C20.3933 11.2233 20.5 11.0067 20.5 10.76C20.5 10.5133 20.4067 10.2967 20.22 10.11ZM12.44 5.39001C12.2667 5.40334 12.1267 5.46001 12.02 5.56001C11.9133 5.66001 11.8267 5.79668 11.76 5.97001L8.12 15.49C8.02667 15.7567 8.05333 15.9967 8.2 16.21C8.34667 16.4233 8.55333 16.53 8.82 16.53C8.98 16.53 9.12333 16.4833 9.25 16.39C9.37667 16.2967 9.46667 16.1633 9.52 15.99C10.4933 13.47 11.54 10.7367 12.66 7.79001L12.82 7.39001C12.9933 6.95001 13.12 6.61668 13.2 6.39001C13.2933 6.12334 13.26 5.88334 13.1 5.67001C12.94 5.45668 12.72 5.36334 12.44 5.39001Z" fill="white"/>
</g>
<defs>
<clipPath id="clip0_2_1096">
<rect width="20" height="20" fill="white" transform="matrix(1 0 0 -1 0.5 20.75)"/>
</clipPath>
</defs>
</svg>
