<svg width="33" height="33" viewBox="0 0 33 33" fill="none" xmlns="http://www.w3.org/2000/svg">
<g clip-path="url(#clip0_2_138)">
<path d="M28.4411 16.174L25.0171 13.582L26.2651 9.48601C26.3504 9.20868 26.3077 8.94201 26.1371 8.68601C26.0517 8.57934 25.9451 8.48868 25.8171 8.41401C25.6891 8.33934 25.5611 8.30201 25.4331 8.30201L21.1131 8.23801L19.7051 4.17401C19.6411 3.89668 19.4491 3.70468 19.1291 3.59801C19.0011 3.55534 18.8624 3.54468 18.7131 3.56601C18.5637 3.58734 18.4357 3.64068 18.3291 3.72601L14.8091 6.19001L11.2891 3.72601C11.1824 3.64068 11.0544 3.58734 10.9051 3.56601C10.7557 3.54468 10.6171 3.55534 10.4891 3.59801C10.2117 3.68334 10.0197 3.87534 9.91307 4.17401L8.50507 8.23801L4.21707 8.30201C4.06774 8.30201 3.92907 8.33934 3.80107 8.41401C3.67307 8.48868 3.56641 8.57934 3.48107 8.68601C3.31041 8.94201 3.26774 9.20868 3.35307 9.48601L4.60107 13.582L1.17707 16.174C0.942407 16.366 0.825073 16.6167 0.825073 16.926C0.825073 17.2353 0.942407 17.4753 1.17707 17.646L4.60107 20.238L3.35307 24.334C3.26774 24.6113 3.31041 24.878 3.48107 25.134C3.65174 25.39 3.89707 25.518 4.21707 25.518L8.50507 25.614L9.91307 29.678C10.0197 29.9767 10.2117 30.158 10.4891 30.222C10.6171 30.2647 10.7557 30.2807 10.9051 30.27C11.0544 30.2593 11.1824 30.2113 11.2891 30.126L14.8091 27.662L18.3291 30.126C18.4997 30.2327 18.6704 30.286 18.8411 30.286C18.9051 30.286 19.0011 30.2647 19.1291 30.222C19.4064 30.158 19.5984 29.9767 19.7051 29.678L21.1131 25.614L25.4011 25.518C25.7424 25.518 25.9931 25.39 26.1531 25.134C26.3131 24.878 26.3504 24.6113 26.2651 24.334L25.0171 20.238L28.4411 17.646C28.5477 17.5607 28.6384 17.454 28.7131 17.326C28.7877 17.198 28.8251 17.0593 28.8251 16.91C28.8251 16.6327 28.6971 16.3873 28.4411 16.174ZM9.20907 17.55C8.80374 17.3153 8.50507 17.07 8.31307 16.814C8.05707 16.4727 7.88641 16.142 7.80107 15.822C7.67307 15.438 7.60907 15.0433 7.60907 14.638C7.60907 14.2327 7.66241 13.8433 7.76907 13.47C7.87574 13.0967 8.05707 12.75 8.31307 12.43C8.50507 12.1527 8.80374 11.9073 9.20907 11.694C9.61441 11.5233 10.0464 11.438 10.5051 11.438C10.9637 11.438 11.3957 11.5233 11.8011 11.694C12.1637 11.8433 12.4624 12.0887 12.6971 12.43C12.9317 12.686 13.1077 13.0273 13.2251 13.454C13.3424 13.8807 13.4011 14.2753 13.4011 14.638C13.4011 15.0007 13.3424 15.39 13.2251 15.806C13.1077 16.222 12.9424 16.558 12.7291 16.814C12.5157 17.07 12.2064 17.3153 11.8011 17.55C11.4811 17.7207 11.0544 17.806 10.5211 17.806C10.0517 17.806 9.61441 17.7207 9.20907 17.55ZM12.2171 22.19C11.8757 22.254 11.5397 22.286 11.2091 22.286C10.8784 22.286 10.5211 22.254 10.1371 22.19L17.4011 11.598C17.7211 11.534 18.0731 11.502 18.4571 11.502C18.7557 11.502 19.0971 11.534 19.4811 11.598L12.2171 22.19ZM21.8171 20.398C21.7317 20.7607 21.5611 21.0913 21.3051 21.39C21.0491 21.6887 20.7397 21.934 20.3771 22.126C20.0571 22.2967 19.6304 22.382 19.0971 22.382C18.5637 22.382 18.1371 22.2967 17.8171 22.126C17.4331 21.934 17.1344 21.71 16.9211 21.454C16.7077 21.198 16.5371 20.8513 16.4091 20.414C16.2811 19.9767 16.2171 19.5767 16.2171 19.214C16.2171 18.8513 16.2811 18.4513 16.4091 18.014C16.5371 17.5767 16.7077 17.2407 16.9211 17.006C17.1771 16.686 17.4757 16.4513 17.8171 16.302C18.1797 16.11 18.6117 16.014 19.1131 16.014C19.6144 16.014 20.0357 16.11 20.3771 16.302C20.6971 16.43 21.0064 16.6647 21.3051 17.006C21.5611 17.326 21.7424 17.6727 21.8491 18.046C21.9557 18.4193 22.0091 18.8087 22.0091 19.214C22.0091 19.6193 21.9451 20.014 21.8171 20.398ZM11.3211 15.918C11.4917 15.5767 11.5771 15.1393 11.5771 14.606C11.5771 14.0727 11.4917 13.6513 11.3211 13.342C11.1504 13.0327 10.8837 12.878 10.5211 12.878C10.1584 12.878 9.89174 13.0327 9.72107 13.342C9.55041 13.6513 9.46507 14.0833 9.46507 14.638C9.46507 15.1073 9.55041 15.534 9.72107 15.918C9.89174 16.238 10.1531 16.398 10.5051 16.398C10.8571 16.398 11.1291 16.238 11.3211 15.918ZM19.0971 17.454C18.7557 17.454 18.4944 17.6193 18.3131 17.95C18.1317 18.2807 18.0411 18.702 18.0411 19.214C18.0411 19.726 18.1264 20.1473 18.2971 20.478C18.4677 20.8087 18.7397 20.974 19.1131 20.974C19.4864 20.974 19.7531 20.8247 19.9131 20.526C20.0731 20.2273 20.1531 19.79 20.1531 19.214C20.1531 18.638 20.0731 18.2007 19.9131 17.902C19.7531 17.6033 19.4811 17.454 19.0971 17.454Z" fill="#B87C4C"/>
</g>
<defs>
<clipPath id="clip0_2_138">
<rect width="32.31" height="32" fill="white" transform="matrix(1 0 0 -1 0.670044 32.91)"/>
</clipPath>
</defs>
</svg>
