<svg width="33" height="33" viewBox="0 0 33 33" fill="none" xmlns="http://www.w3.org/2000/svg">
<g clip-path="url(#clip0_2_152)">
<path d="M0.495026 6.41401V15.822H9.74303V6.41401H0.495026ZM7.59903 11.47H5.48703V13.646H4.75103V11.47H2.63903V10.766H4.75103V8.59001H5.48703V10.766H7.59903V11.47ZM11.887 6.41401V15.822H21.103V6.41401H11.887ZM18.511 12.654L17.999 13.166L16.495 11.63L14.991 13.166L14.479 12.654L15.983 11.118L14.479 9.582L14.991 9.07001L16.495 10.606L17.999 9.07001L18.511 9.582L17.007 11.118L18.511 12.654ZM23.247 6.41401V27.406H32.495V6.41401H23.247ZM30.351 17.998H25.391V17.262H30.351V17.998ZM30.351 15.822H25.391V15.086H30.351V15.822ZM0.495026 17.998V27.406H9.74303V17.998H0.495026ZM7.59903 23.054H2.63903V22.35H7.59903V23.054ZM11.887 17.998V27.406H21.103V17.998H11.887ZM16.143 20.878H16.847V21.614H16.143V20.878ZM16.847 24.526H16.143V23.79H16.847V24.526ZM18.991 23.054H13.999V22.35H18.991V23.054Z" fill="#A7DAFF"/>
</g>
<defs>
<clipPath id="clip0_2_152">
<rect width="32.31" height="32" fill="white" transform="matrix(1 0 0 -1 0.340027 32.91)"/>
</clipPath>
</defs>
</svg>
