<svg width="21" height="21" viewBox="0 0 21 21" fill="none" xmlns="http://www.w3.org/2000/svg">
<g clip-path="url(#clip0_2_1102)">
<path d="M16.42 8.92999C16.2467 7.94332 15.8833 7.03999 15.33 6.21999C14.7767 5.39999 14.09 4.71332 13.27 4.15999C12.45 3.60666 11.5467 3.23666 10.56 3.04999V1.48999H7.94V3.02999C6.95333 3.20332 6.04333 3.56666 5.21 4.11999C4.37667 4.67332 3.68 5.36666 3.12 6.19999C2.56 7.03332 2.19333 7.94332 2.02 8.92999H0.5V11.57H2.02C2.19333 12.5567 2.56 13.4667 3.12 14.3C3.68 15.1333 4.37667 15.8267 5.21 16.38C6.04333 16.9333 6.95333 17.2967 7.94 17.47V18.99H10.56V17.45C11.5467 17.2633 12.45 16.8933 13.27 16.34C14.09 15.7867 14.7767 15.1 15.33 14.28C15.8833 13.46 16.2467 12.5567 16.42 11.57H17.94V8.92999H16.42ZM9.22 15.53C8.26 15.53 7.37667 15.2933 6.57 14.82C5.76333 14.3467 5.12333 13.7067 4.65 12.9C4.17667 12.0933 3.94 11.21 3.94 10.25C3.94 9.28999 4.17667 8.40666 4.65 7.59999C5.12333 6.79332 5.76333 6.15332 6.57 5.67999C7.37667 5.20666 8.26 4.96999 9.22 4.96999C10.18 4.96999 11.0633 5.20666 11.87 5.67999C12.6767 6.15332 13.3167 6.79332 13.79 7.59999C14.2633 8.40666 14.5 9.28999 14.5 10.25C14.5 11.21 14.2633 12.0933 13.79 12.9C13.3167 13.7067 12.6767 14.3467 11.87 14.82C11.0633 15.2933 10.18 15.53 9.22 15.53ZM10.7 10.25C10.7 10.6633 10.5567 11.0133 10.27 11.3C9.98333 11.5867 9.63333 11.73 9.22 11.73C8.80667 11.73 8.45667 11.5867 8.17 11.3C7.88333 11.0133 7.74 10.6633 7.74 10.25C7.74 9.83666 7.88333 9.48666 8.17 9.19999C8.45667 8.91332 8.80667 8.76999 9.22 8.76999C9.63333 8.76999 9.98333 8.91332 10.27 9.19999C10.5567 9.48666 10.7 9.83666 10.7 10.25Z" fill="white"/>
</g>
<defs>
<clipPath id="clip0_2_1102">
<rect width="20" height="20" fill="white" transform="matrix(1 0 0 -1 0.5 20.25)"/>
</clipPath>
</defs>
</svg>
