<svg width="21" height="20" viewBox="0 0 21 20" fill="none" xmlns="http://www.w3.org/2000/svg">
<g clip-path="url(#clip0_2_62)">
<path d="M16.35 15.12C16.35 15.0933 16.3167 15.0467 16.25 14.98L15.93 14.74C15.5567 14.4467 15.2833 14.22 15.11 14.06C14.2967 13.2467 13.85 12.32 13.77 11.28C13.7567 11.0267 13.7433 10.6467 13.73 10.14C13.7167 9.63334 13.7033 9.25334 13.69 9.00001C13.65 7.98668 13.51 7.08001 13.27 6.28001C12.99 5.34668 12.59 4.60001 12.07 4.04001C11.4967 3.42668 10.7767 3.01334 9.91 2.80001C9.88334 2.78668 9.86 2.76001 9.84 2.72001C9.82 2.68001 9.81 2.64668 9.81 2.62001C9.79667 2.27334 9.68667 1.97334 9.48 1.72001C9.27334 1.46668 9.01334 1.31334 8.7 1.26001C8.38667 1.20668 8.09667 1.27001 7.83 1.45001C7.56334 1.63001 7.37667 1.88001 7.27 2.20001C7.23 2.28001 7.21 2.37334 7.21 2.48001C7.19667 2.54668 7.18 2.61334 7.16 2.68001C7.14 2.74668 7.12 2.78334 7.1 2.79001C7.08 2.79668 7.06334 2.80668 7.05 2.82001C5.78334 3.14001 4.84334 3.89334 4.23 5.08001C3.84334 5.81334 3.58334 6.62334 3.45 7.51001C3.31667 8.39668 3.25 9.50001 3.25 10.82C3.26334 11.7267 3.01 12.5667 2.49 13.34C2.03667 13.98 1.47 14.52 0.790005 14.96C0.696672 15.0267 0.650005 15.08 0.650005 15.12C0.636672 15.4133 0.630005 15.8467 0.630005 16.42H16.37C16.37 15.8467 16.3633 15.4133 16.35 15.12ZM10.99 17.26H6.01C5.93 17.26 5.87667 17.2867 5.85 17.34C5.82334 17.3933 5.82334 17.4533 5.85 17.52L6.29 18.48C6.31667 18.5467 6.37 18.61 6.45 18.67C6.53 18.73 6.61 18.76 6.69 18.76H10.33C10.3967 18.76 10.47 18.7333 10.55 18.68C10.63 18.6267 10.69 18.56 10.73 18.48L11.15 17.52C11.1767 17.4533 11.1733 17.3933 11.14 17.34C11.1067 17.2867 11.0567 17.26 10.99 17.26Z" fill="#212529"/>
</g>
<defs>
<clipPath id="clip0_2_62">
<rect width="20" height="20" fill="white" transform="matrix(1 0 0 -1 0.630005 20)"/>
</clipPath>
</defs>
</svg>
