<svg width="20" height="20" viewBox="0 0 20 20" fill="none" xmlns="http://www.w3.org/2000/svg">
<path d="M14.74 7.52001C14.6867 7.41334 14.7033 7.27001 14.79 7.09001C14.8767 6.91001 15.02 6.71334 15.22 6.50001L16.18 5.54001C16.2467 5.47334 16.2967 5.40668 16.33 5.34001C16.3633 5.27334 16.3667 5.22668 16.34 5.20001L13.56 2.42001L13.44 2.44001C13.3467 2.48001 13.2733 2.52668 13.22 2.58001L12.24 3.54001C11.8933 3.88668 11.6 4.06001 11.36 4.06001C11.2667 4.06001 11.1867 4.02668 11.12 3.96001C11.0533 3.89334 11 3.79334 10.96 3.66001C10.8933 3.47334 10.86 3.24001 10.86 2.96001V1.60001C10.86 1.49334 10.8267 1.40668 10.76 1.34001C10.6933 1.27334 10.6067 1.24001 10.5 1.24001H7.02C6.92667 1.24001 6.84333 1.27334 6.77 1.34001C6.69667 1.40668 6.66 1.49334 6.66 1.60001V2.98001C6.66 3.22001 6.63333 3.42668 6.58 3.60001C6.48667 3.90668 6.34 4.06001 6.14 4.06001C6.06 4.06001 5.96 4.02668 5.84 3.96001C5.66667 3.88001 5.48 3.74001 5.28 3.54001L4.16 2.42001L4.08 2.40001C4.02667 2.40001 3.98667 2.40668 3.96 2.42001L1.2 5.20001L1.18 5.28001C1.16667 5.33334 1.17333 5.37334 1.2 5.40001L2.3 6.52001C2.71333 6.93334 2.88 7.26668 2.8 7.52001C2.74667 7.64001 2.62667 7.73334 2.44 7.80001C2.25333 7.86668 2.02 7.90001 1.74 7.90001H0.36C0.266667 7.90001 0.183333 7.93334 0.11 8.00001C0.0366667 8.06668 0 8.15334 0 8.26001V11.74C0 11.8333 0.0366667 11.9167 0.11 11.99C0.183333 12.0633 0.266667 12.1 0.36 12.1H1.74C2.02 12.1 2.25333 12.1333 2.44 12.2C2.62667 12.2667 2.74333 12.3567 2.79 12.47C2.83667 12.5833 2.81667 12.73 2.73 12.91C2.64333 13.09 2.5 13.28 2.3 13.48L1.18 14.6L1.16 14.68C1.16 14.7333 1.16667 14.7733 1.18 14.8L3.96 17.58L4.04 17.6C4.09333 17.6 4.13333 17.5933 4.16 17.58L5.28 16.46C5.48 16.26 5.66667 16.12 5.84 16.04C5.96 15.9733 6.06 15.94 6.14 15.94C6.34 15.94 6.48667 16.0867 6.58 16.38C6.63333 16.5667 6.66 16.78 6.66 17.02V18.4C6.66 18.4933 6.69667 18.5767 6.77 18.65C6.84333 18.7233 6.92667 18.76 7.02 18.76H10.5C10.6067 18.76 10.6933 18.7233 10.76 18.65C10.8267 18.5767 10.86 18.4933 10.86 18.4V17.02C10.86 16.54 10.9467 16.2133 11.12 16.04C11.1867 15.9733 11.2733 15.94 11.38 15.94C11.62 15.94 11.9067 16.1133 12.24 16.46L13.36 17.58L13.44 17.6C13.5067 17.6 13.5467 17.5933 13.56 17.58L16.34 14.8L16.36 14.72C16.36 14.6667 16.3533 14.6267 16.34 14.6L15.22 13.48C15.02 13.28 14.8767 13.09 14.79 12.91C14.7033 12.73 14.6867 12.5833 14.74 12.47C14.7933 12.3567 14.9133 12.2667 15.1 12.2C15.2867 12.1333 15.52 12.1 15.8 12.1H17.16C17.2667 12.1 17.3533 12.0633 17.42 11.99C17.4867 11.9167 17.52 11.8333 17.52 11.74V8.26001C17.52 8.15334 17.4867 8.06668 17.42 8.00001C17.3533 7.93334 17.2667 7.90001 17.16 7.90001H15.8C15.5067 7.90001 15.2667 7.86668 15.08 7.80001C14.8933 7.73334 14.78 7.64001 14.74 7.52001ZM12.72 10C12.72 10.72 12.5433 11.3833 12.19 11.99C11.8367 12.5967 11.3567 13.0767 10.75 13.43C10.1433 13.7833 9.48 13.96 8.76 13.96C8.04 13.96 7.37667 13.7833 6.77 13.43C6.16333 13.0767 5.68333 12.5967 5.33 11.99C4.97667 11.3833 4.8 10.72 4.8 10C4.8 9.28001 4.97667 8.61668 5.33 8.01001C5.68333 7.40334 6.16333 6.92334 6.77 6.57001C7.37667 6.21668 8.04 6.04001 8.76 6.04001C9.48 6.04001 10.1433 6.21668 10.75 6.57001C11.3567 6.92334 11.8367 7.40334 12.19 8.01001C12.5433 8.61668 12.72 9.28001 12.72 10Z" fill="#212529"/>
</svg>
