<svg width="21" height="20" viewBox="0 0 21 20" fill="none" xmlns="http://www.w3.org/2000/svg">
<g clip-path="url(#clip0_2_27)">
<path d="M16.83 1.25999H1.93C1.57 1.25999 1.26334 1.38332 1.01 1.62999C0.756672 1.87666 0.630005 2.17999 0.630005 2.53999V17.46C0.630005 17.82 0.756672 18.1233 1.01 18.37C1.26334 18.6167 1.57 18.74 1.93 18.74H16.83C17.19 18.74 17.4967 18.6167 17.75 18.37C18.0033 18.1233 18.13 17.82 18.13 17.46V2.53999C18.13 2.17999 18.0033 1.87666 17.75 1.62999C17.4967 1.38332 17.19 1.25999 16.83 1.25999ZM8.07 4.57999C8.17667 4.56666 8.35 4.54666 8.59 4.51999C8.72334 4.50666 8.9 4.49999 9.12 4.49999C9.34 4.49999 9.51667 4.50666 9.65 4.51999L10.17 4.57999C10.21 4.75332 10.23 4.91999 10.23 5.07999C10.2433 5.18666 10.25 5.34666 10.25 5.55999C10.25 5.77332 10.2433 5.93999 10.23 6.05999C10.23 6.20666 10.21 6.37332 10.17 6.55999L9.65 6.61999H8.61L8.07 6.55999C8.01667 6.25332 7.99 5.92332 7.99 5.56999C7.99 5.21666 8.01667 4.88666 8.07 4.57999ZM11.33 15.5H7.41C7.35667 15.2867 7.33 15.0267 7.33 14.72C7.33 14.5467 7.33667 14.4133 7.35 14.32C7.35 14.2533 7.36334 14.1533 7.39 14.02L7.41 13.92H8.37V9.41999H7.41L7.39 9.27999C7.36334 9.17332 7.35 9.08666 7.35 9.01999C7.33667 8.91332 7.33 8.77332 7.33 8.59999C7.33 8.30666 7.35667 8.05332 7.41 7.83999H10.37V13.92H11.33C11.3567 14 11.3833 14.1333 11.41 14.32L11.43 14.72C11.43 14.9733 11.3967 15.2333 11.33 15.5Z" fill="#7258DB"/>
</g>
<defs>
<clipPath id="clip0_2_27">
<rect width="20" height="20" fill="white" transform="matrix(1 0 0 -1 0.630005 20)"/>
</clipPath>
</defs>
</svg>
