<svg width="965" height="251" viewBox="0 0 965 251" fill="none" xmlns="http://www.w3.org/2000/svg">
<path d="M1.33002 1.08008H964.33" stroke="#F0F0F0"/>
<path d="M1.33002 49.5497H964.33" stroke="#F0F0F0"/>
<path d="M1.33002 98.0193H964.33" stroke="#F0F0F0"/>
<path d="M1.33002 146.489H964.33" stroke="#F0F0F0"/>
<path d="M1.33002 194.958H964.33" stroke="#F0F0F0"/>
<path d="M1.33002 243.428H964.33" stroke="#F0F0F0"/>
<path d="M1.33002 244.428V250.428" stroke="#F0F0F0"/>
<path d="M81.58 244.428V250.428" stroke="#F0F0F0"/>
<path d="M161.83 244.428V250.428" stroke="#F0F0F0"/>
<path d="M242.08 244.428V250.428" stroke="#F0F0F0"/>
<path d="M322.33 244.428V250.428" stroke="#F0F0F0"/>
<path d="M402.58 244.428V250.428" stroke="#F0F0F0"/>
<path d="M482.83 244.428V250.428" stroke="#F0F0F0"/>
<path d="M563.08 244.428V250.428" stroke="#F0F0F0"/>
<path d="M643.33 244.428V250.428" stroke="#F0F0F0"/>
<path d="M723.58 244.428V250.428" stroke="#F0F0F0"/>
<path d="M803.83 244.428V250.428" stroke="#F0F0F0"/>
<path d="M884.08 244.428V250.428" stroke="#F0F0F0"/>
<path d="M964.33 244.428V250.428" stroke="#F0F0F0"/>
<path d="M1.33002 243.428H964.33" stroke="#F0F0F0"/>
<path d="M1.33002 2.08008V243.428" stroke="#F0F0F0"/>
</svg>
