<svg width="1007" height="258" viewBox="0 0 1007 258" fill="none" xmlns="http://www.w3.org/2000/svg">
<mask id="mask0_2_387" style="mask-type:luminance" maskUnits="userSpaceOnUse" x="19" y="21" width="969" height="216">
<path d="M988 21.94H19V236.288H988V21.94Z" fill="white"/>
</mask>
<g mask="url(#mask0_2_387)">
<path d="M22 146.81C78.175 146.81 126.325 132.653 182.5 132.653C238.675 132.653 286.825 160.966 343 160.966C399.175 160.966 447.325 139.731 503.5 139.731C559.675 139.731 607.825 125.575 664 125.575C720.175 125.575 768.325 136.192 824.5 136.192C880.675 136.192 928.825 129.114 985 129.114" stroke="#008FFB" stroke-opacity="0.85" stroke-width="2"/>
</g>
<mask id="mask1_2_387" style="mask-type:luminance" maskUnits="userSpaceOnUse" x="0" y="0" width="1007" height="258">
<path d="M1007 0.940002H0V257.288H1007V0.940002Z" fill="white"/>
</mask>
<g mask="url(#mask1_2_387)">
<path d="M22 149.81C23.6569 149.81 25 148.467 25 146.81C25 145.153 23.6569 143.81 22 143.81C20.3431 143.81 19 145.153 19 146.81C19 148.467 20.3431 149.81 22 149.81Z" fill="#FFA41B" stroke="#F0F0F0" stroke-opacity="0.9" stroke-width="2"/>
<path d="M182.5 135.653C184.157 135.653 185.5 134.31 185.5 132.653C185.5 130.996 184.157 129.653 182.5 129.653C180.843 129.653 179.5 130.996 179.5 132.653C179.5 134.31 180.843 135.653 182.5 135.653Z" fill="#FFA41B" stroke="#F0F0F0" stroke-opacity="0.9" stroke-width="2"/>
</g>
<mask id="mask2_2_387" style="mask-type:luminance" maskUnits="userSpaceOnUse" x="0" y="0" width="1007" height="258">
<path d="M1007 0.940002H0V257.288H1007V0.940002Z" fill="white"/>
</mask>
<g mask="url(#mask2_2_387)">
<path d="M343 163.966C344.657 163.966 346 162.623 346 160.966C346 159.309 344.657 157.966 343 157.966C341.343 157.966 340 159.309 340 160.966C340 162.623 341.343 163.966 343 163.966Z" fill="#FFA41B" stroke="#F0F0F0" stroke-opacity="0.9" stroke-width="2"/>
</g>
<mask id="mask3_2_387" style="mask-type:luminance" maskUnits="userSpaceOnUse" x="0" y="0" width="1007" height="258">
<path d="M1007 0.940002H0V257.288H1007V0.940002Z" fill="white"/>
</mask>
<g mask="url(#mask3_2_387)">
<path d="M503.5 142.731C505.157 142.731 506.5 141.388 506.5 139.731C506.5 138.075 505.157 136.731 503.5 136.731C501.843 136.731 500.5 138.075 500.5 139.731C500.5 141.388 501.843 142.731 503.5 142.731Z" fill="#FFA41B" stroke="#F0F0F0" stroke-opacity="0.9" stroke-width="2"/>
</g>
<mask id="mask4_2_387" style="mask-type:luminance" maskUnits="userSpaceOnUse" x="0" y="0" width="1007" height="258">
<path d="M1007 0.940002H0V257.288H1007V0.940002Z" fill="white"/>
</mask>
<g mask="url(#mask4_2_387)">
<path d="M664 128.575C665.657 128.575 667 127.232 667 125.575C667 123.918 665.657 122.575 664 122.575C662.343 122.575 661 123.918 661 125.575C661 127.232 662.343 128.575 664 128.575Z" fill="#FFA41B" stroke="#F0F0F0" stroke-opacity="0.9" stroke-width="2"/>
</g>
<mask id="mask5_2_387" style="mask-type:luminance" maskUnits="userSpaceOnUse" x="0" y="0" width="1007" height="258">
<path d="M1007 0.940002H0V257.288H1007V0.940002Z" fill="white"/>
</mask>
<g mask="url(#mask5_2_387)">
<path d="M824.5 139.192C826.157 139.192 827.5 137.849 827.5 136.192C827.5 134.535 826.157 133.192 824.5 133.192C822.843 133.192 821.5 134.535 821.5 136.192C821.5 137.849 822.843 139.192 824.5 139.192Z" fill="#FFA41B" stroke="#F0F0F0" stroke-opacity="0.9" stroke-width="2"/>
</g>
<mask id="mask6_2_387" style="mask-type:luminance" maskUnits="userSpaceOnUse" x="0" y="0" width="1007" height="258">
<path d="M1007 0.940002H0V257.288H1007V0.940002Z" fill="white"/>
</mask>
<g mask="url(#mask6_2_387)">
<path d="M985 132.114C986.657 132.114 988 130.771 988 129.114C988 127.457 986.657 126.114 985 126.114C983.343 126.114 982 127.457 982 129.114C982 130.771 983.343 132.114 985 132.114Z" fill="#FFA41B" stroke="#F0F0F0" stroke-opacity="0.9" stroke-width="2"/>
</g>
<mask id="mask7_2_387" style="mask-type:luminance" maskUnits="userSpaceOnUse" x="19" y="21" width="969" height="216">
<path d="M988 21.94H19V236.288H988V21.94Z" fill="white"/>
</mask>
<g mask="url(#mask7_2_387)">
<path d="M22 157.427C78.175 157.427 126.325 146.81 182.5 146.81C238.675 146.81 286.825 150.349 343 150.349C399.175 150.349 447.325 143.271 503.5 143.271C559.675 143.271 607.825 136.192 664 136.192C720.175 136.192 768.325 153.888 824.5 153.888C880.675 153.888 928.825 139.731 985 139.731" stroke="#00E396" stroke-opacity="0.85" stroke-width="2"/>
</g>
<mask id="mask8_2_387" style="mask-type:luminance" maskUnits="userSpaceOnUse" x="0" y="0" width="1007" height="258">
<path d="M1007 0.940002H0V257.288H1007V0.940002Z" fill="white"/>
</mask>
<g mask="url(#mask8_2_387)">
<path d="M22 160.427C23.6569 160.427 25 159.084 25 157.427C25 155.77 23.6569 154.427 22 154.427C20.3431 154.427 19 155.77 19 157.427C19 159.084 20.3431 160.427 22 160.427Z" fill="#FFA41B" stroke="#F0F0F0" stroke-opacity="0.9" stroke-width="2"/>
<path d="M182.5 149.81C184.157 149.81 185.5 148.467 185.5 146.81C185.5 145.153 184.157 143.81 182.5 143.81C180.843 143.81 179.5 145.153 179.5 146.81C179.5 148.467 180.843 149.81 182.5 149.81Z" fill="#FFA41B" stroke="#F0F0F0" stroke-opacity="0.9" stroke-width="2"/>
</g>
<mask id="mask9_2_387" style="mask-type:luminance" maskUnits="userSpaceOnUse" x="0" y="0" width="1007" height="258">
<path d="M1007 0.940002H0V257.288H1007V0.940002Z" fill="white"/>
</mask>
<g mask="url(#mask9_2_387)">
<path d="M343 153.349C344.657 153.349 346 152.006 346 150.349C346 148.692 344.657 147.349 343 147.349C341.343 147.349 340 148.692 340 150.349C340 152.006 341.343 153.349 343 153.349Z" fill="#FFA41B" stroke="#F0F0F0" stroke-opacity="0.9" stroke-width="2"/>
</g>
<mask id="mask10_2_387" style="mask-type:luminance" maskUnits="userSpaceOnUse" x="0" y="0" width="1007" height="258">
<path d="M1007 0.940002H0V257.288H1007V0.940002Z" fill="white"/>
</mask>
<g mask="url(#mask10_2_387)">
<path d="M503.5 146.271C505.157 146.271 506.5 144.927 506.5 143.271C506.5 141.614 505.157 140.271 503.5 140.271C501.843 140.271 500.5 141.614 500.5 143.271C500.5 144.927 501.843 146.271 503.5 146.271Z" fill="#FFA41B" stroke="#F0F0F0" stroke-opacity="0.9" stroke-width="2"/>
</g>
<mask id="mask11_2_387" style="mask-type:luminance" maskUnits="userSpaceOnUse" x="0" y="0" width="1007" height="258">
<path d="M1007 0.940002H0V257.288H1007V0.940002Z" fill="white"/>
</mask>
<g mask="url(#mask11_2_387)">
<path d="M664 139.192C665.657 139.192 667 137.849 667 136.192C667 134.535 665.657 133.192 664 133.192C662.343 133.192 661 134.535 661 136.192C661 137.849 662.343 139.192 664 139.192Z" fill="#FFA41B" stroke="#F0F0F0" stroke-opacity="0.9" stroke-width="2"/>
</g>
<mask id="mask12_2_387" style="mask-type:luminance" maskUnits="userSpaceOnUse" x="0" y="0" width="1007" height="258">
<path d="M1007 0.940002H0V257.288H1007V0.940002Z" fill="white"/>
</mask>
<g mask="url(#mask12_2_387)">
<path d="M824.5 156.888C826.157 156.888 827.5 155.545 827.5 153.888C827.5 152.231 826.157 150.888 824.5 150.888C822.843 150.888 821.5 152.231 821.5 153.888C821.5 155.545 822.843 156.888 824.5 156.888Z" fill="#FFA41B" stroke="#F0F0F0" stroke-opacity="0.9" stroke-width="2"/>
</g>
<mask id="mask13_2_387" style="mask-type:luminance" maskUnits="userSpaceOnUse" x="0" y="0" width="1007" height="258">
<path d="M1007 0.940002H0V257.288H1007V0.940002Z" fill="white"/>
</mask>
<g mask="url(#mask13_2_387)">
<path d="M985 142.731C986.657 142.731 988 141.388 988 139.731C988 138.075 986.657 136.731 985 136.731C983.343 136.731 982 138.075 982 139.731C982 141.388 983.343 142.731 985 142.731Z" fill="#FFA41B" stroke="#F0F0F0" stroke-opacity="0.9" stroke-width="2"/>
</g>
</svg>
