<svg width="932" height="221" viewBox="0 0 932 221" fill="none" xmlns="http://www.w3.org/2000/svg">
<path d="M1.35938 1.13H931" stroke="#F0F0F0"/>
<path d="M1.35938 43.5996H931" stroke="#F0F0F0"/>
<path d="M1.35938 86.0692H931" stroke="#F0F0F0"/>
<path d="M1.35938 128.539H931" stroke="#F0F0F0"/>
<path d="M1.35938 171.008H931" stroke="#F0F0F0"/>
<path d="M1.35938 213.478H931" stroke="#F0F0F0"/>
<path d="M1.35938 214.478V220.478" stroke="#F0F0F0"/>
<path d="M78.8294 214.478V220.478" stroke="#F0F0F0"/>
<path d="M156.299 214.478V220.478" stroke="#F0F0F0"/>
<path d="M233.77 214.478V220.478" stroke="#F0F0F0"/>
<path d="M311.24 214.478V220.478" stroke="#F0F0F0"/>
<path d="M388.71 214.478V220.478" stroke="#F0F0F0"/>
<path d="M466.18 214.478V220.478" stroke="#F0F0F0"/>
<path d="M543.65 214.478V220.478" stroke="#F0F0F0"/>
<path d="M621.12 214.478V220.478" stroke="#F0F0F0"/>
<path d="M698.59 214.478V220.478" stroke="#F0F0F0"/>
<path d="M776.06 214.478V220.478" stroke="#F0F0F0"/>
<path d="M853.53 214.478V220.478" stroke="#F0F0F0"/>
<path d="M931 214.478V220.478" stroke="#F0F0F0"/>
<path d="M1.35938 213.478H931" stroke="#F0F0F0"/>
<path d="M1.35938 2.13V213.478" stroke="#F0F0F0"/>
</svg>
