<svg width="934" height="213" viewBox="0 0 934 213" fill="none" xmlns="http://www.w3.org/2000/svg">
<mask id="mask0_2_519" style="mask-type:luminance" maskUnits="userSpaceOnUse" x="0" y="0" width="934" height="213">
<path d="M934 0.130005H0.359375V212.478H934V0.130005Z" fill="white"/>
</mask>
<g mask="url(#mask0_2_519)">
<path d="M13.9799 212.478V164.7H68.2089V212.478H13.9799Z" fill="#ED5782"/>
</g>
<mask id="mask1_2_519" style="mask-type:luminance" maskUnits="userSpaceOnUse" x="0" y="0" width="934" height="213">
<path d="M934 0.130005H0.359375V212.478H934V0.130005Z" fill="white"/>
</mask>
<g mask="url(#mask1_2_519)">
<path d="M91.45 212.478V185.935H145.679V212.478H91.45Z" fill="#ED5782"/>
</g>
<mask id="mask2_2_519" style="mask-type:luminance" maskUnits="userSpaceOnUse" x="0" y="0" width="934" height="213">
<path d="M934 0.130005H0.359375V212.478H934V0.130005Z" fill="white"/>
</mask>
<g mask="url(#mask2_2_519)">
<path d="M168.92 212.478V165.761H223.149V212.478H168.92Z" fill="#ED5782"/>
</g>
<mask id="mask3_2_519" style="mask-type:luminance" maskUnits="userSpaceOnUse" x="0" y="0" width="934" height="213">
<path d="M934 0.130005H0.359375V212.478H934V0.130005Z" fill="white"/>
</mask>
<g mask="url(#mask3_2_519)">
<path d="M246.39 212.478V188.058H300.619V212.478H246.39Z" fill="#ED5782"/>
</g>
<mask id="mask4_2_519" style="mask-type:luminance" maskUnits="userSpaceOnUse" x="0" y="0" width="934" height="213">
<path d="M934 0.130005H0.359375V212.478H934V0.130005Z" fill="white"/>
</mask>
<g mask="url(#mask4_2_519)">
<path d="M323.86 212.478V185.935H378.089V212.478H323.86Z" fill="#ED5782"/>
</g>
<mask id="mask5_2_519" style="mask-type:luminance" maskUnits="userSpaceOnUse" x="0" y="0" width="934" height="213">
<path d="M934 0.130005H0.359375V212.478H934V0.130005Z" fill="white"/>
</mask>
<g mask="url(#mask5_2_519)">
<path d="M401.33 212.478V168.947C401.33 168.947 401.33 168.947 401.33 168.947H455.559V212.478H401.33Z" fill="#ED5782"/>
</g>
<mask id="mask6_2_519" style="mask-type:luminance" maskUnits="userSpaceOnUse" x="0" y="0" width="934" height="213">
<path d="M934 0.130005H0.359375V212.478H934V0.130005Z" fill="white"/>
</mask>
<g mask="url(#mask6_2_519)">
<path d="M478.8 212.478V178.502H533.029V212.478H478.8Z" fill="#ED5782"/>
</g>
<mask id="mask7_2_519" style="mask-type:luminance" maskUnits="userSpaceOnUse" x="0" y="0" width="934" height="213">
<path d="M934 0.130005H0.359375V212.478H934V0.130005Z" fill="white"/>
</mask>
<g mask="url(#mask7_2_519)">
<path d="M556.27 212.478V185.935H610.499V212.478H556.27Z" fill="#ED5782"/>
</g>
<mask id="mask8_2_519" style="mask-type:luminance" maskUnits="userSpaceOnUse" x="0" y="0" width="934" height="213">
<path d="M934 0.130005H0.359375V212.478H934V0.130005Z" fill="white"/>
</mask>
<g mask="url(#mask8_2_519)">
<path d="M633.74 212.478V189.12H687.969V212.478H633.74Z" fill="#ED5782"/>
</g>
<mask id="mask9_2_519" style="mask-type:luminance" maskUnits="userSpaceOnUse" x="0" y="0" width="934" height="213">
<path d="M934 0.130005H0.359375V212.478H934V0.130005Z" fill="white"/>
</mask>
<g mask="url(#mask9_2_519)">
<path d="M711.21 212.478V143.465H765.439V212.478H711.21Z" fill="#ED5782"/>
</g>
<mask id="mask10_2_519" style="mask-type:luminance" maskUnits="userSpaceOnUse" x="0" y="0" width="934" height="213">
<path d="M934 0.130005H0.359375V212.478H934V0.130005Z" fill="white"/>
</mask>
<g mask="url(#mask10_2_519)">
<path d="M788.68 212.478V189.12H842.909V212.478H788.68Z" fill="#ED5782"/>
</g>
<mask id="mask11_2_519" style="mask-type:luminance" maskUnits="userSpaceOnUse" x="0" y="0" width="934" height="213">
<path d="M934 0.130005H0.359375V212.478H934V0.130005Z" fill="white"/>
</mask>
<g mask="url(#mask11_2_519)">
<path d="M866.15 212.478V181.688H920.38V212.478H866.15Z" fill="#ED5782"/>
</g>
<mask id="mask12_2_519" style="mask-type:luminance" maskUnits="userSpaceOnUse" x="0" y="0" width="934" height="213">
<path d="M934 0.130005H0.359375V212.478H934V0.130005Z" fill="white"/>
</mask>
<g mask="url(#mask12_2_519)">
<path d="M13.9799 164.7V116.921H68.2089V164.7H13.9799Z" fill="#E5DF88"/>
</g>
<mask id="mask13_2_519" style="mask-type:luminance" maskUnits="userSpaceOnUse" x="0" y="0" width="934" height="213">
<path d="M934 0.130005H0.359375V212.478H934V0.130005Z" fill="white"/>
</mask>
<g mask="url(#mask13_2_519)">
<path d="M91.45 185.934V173.194H145.679V185.934H91.45Z" fill="#E5DF88"/>
</g>
<mask id="mask14_2_519" style="mask-type:luminance" maskUnits="userSpaceOnUse" x="0" y="0" width="934" height="213">
<path d="M934 0.130005H0.359375V212.478H934V0.130005Z" fill="white"/>
</mask>
<g mask="url(#mask14_2_519)">
<path d="M168.92 165.761V139.218H223.149V165.761H168.92Z" fill="#E5DF88"/>
</g>
<mask id="mask15_2_519" style="mask-type:luminance" maskUnits="userSpaceOnUse" x="0" y="0" width="934" height="213">
<path d="M934 0.130005H0.359375V212.478H934V0.130005Z" fill="white"/>
</mask>
<g mask="url(#mask15_2_519)">
<path d="M246.39 188.058V164.7H300.619V188.058H246.39Z" fill="#E5DF88"/>
</g>
<mask id="mask16_2_519" style="mask-type:luminance" maskUnits="userSpaceOnUse" x="0" y="0" width="934" height="213">
<path d="M934 0.130005H0.359375V212.478H934V0.130005Z" fill="white"/>
</mask>
<g mask="url(#mask16_2_519)">
<path d="M323.86 185.935V165.761H378.089V185.935H323.86Z" fill="#E5DF88"/>
</g>
<mask id="mask17_2_519" style="mask-type:luminance" maskUnits="userSpaceOnUse" x="0" y="0" width="934" height="213">
<path d="M934 0.130005H0.359375V212.478H934V0.130005Z" fill="white"/>
</mask>
<g mask="url(#mask17_2_519)">
<path d="M401.33 168.947V145.588C401.33 145.588 401.33 145.588 401.33 145.588H455.559V168.947H401.33Z" fill="#E5DF88"/>
</g>
<mask id="mask18_2_519" style="mask-type:luminance" maskUnits="userSpaceOnUse" x="0" y="0" width="934" height="213">
<path d="M934 0.130005H0.359375V212.478H934V0.130005Z" fill="white"/>
</mask>
<g mask="url(#mask18_2_519)">
<path d="M478.8 178.502V147.712H533.029V178.502H478.8Z" fill="#E5DF88"/>
</g>
<mask id="mask19_2_519" style="mask-type:luminance" maskUnits="userSpaceOnUse" x="0" y="0" width="934" height="213">
<path d="M934 0.130005H0.359375V212.478H934V0.130005Z" fill="white"/>
</mask>
<g mask="url(#mask19_2_519)">
<path d="M556.27 185.934V161.514H610.499V185.934H556.27Z" fill="#E5DF88"/>
</g>
<mask id="mask20_2_519" style="mask-type:luminance" maskUnits="userSpaceOnUse" x="0" y="0" width="934" height="213">
<path d="M934 0.130005H0.359375V212.478H934V0.130005Z" fill="white"/>
</mask>
<g mask="url(#mask20_2_519)">
<path d="M633.74 189.12V164.7H687.969V189.12H633.74Z" fill="#E5DF88"/>
</g>
<mask id="mask21_2_519" style="mask-type:luminance" maskUnits="userSpaceOnUse" x="0" y="0" width="934" height="213">
<path d="M934 0.130005H0.359375V212.478H934V0.130005Z" fill="white"/>
</mask>
<g mask="url(#mask21_2_519)">
<path d="M711.21 143.465V116.921H765.439V143.465H711.21Z" fill="#E5DF88"/>
</g>
<mask id="mask22_2_519" style="mask-type:luminance" maskUnits="userSpaceOnUse" x="0" y="0" width="934" height="213">
<path d="M934 0.130005H0.359375V212.478H934V0.130005Z" fill="white"/>
</mask>
<g mask="url(#mask22_2_519)">
<path d="M788.68 189.12V145.588H842.909V189.12H788.68Z" fill="#E5DF88"/>
</g>
<mask id="mask23_2_519" style="mask-type:luminance" maskUnits="userSpaceOnUse" x="0" y="0" width="934" height="213">
<path d="M934 0.130005H0.359375V212.478H934V0.130005Z" fill="white"/>
</mask>
<g mask="url(#mask23_2_519)">
<path d="M866.15 181.688V147.712H920.38V181.688H866.15Z" fill="#E5DF88"/>
</g>
<mask id="mask24_2_519" style="mask-type:luminance" maskUnits="userSpaceOnUse" x="0" y="0" width="934" height="213">
<path d="M934 0.130005H0.359375V212.478H934V0.130005Z" fill="white"/>
</mask>
<g mask="url(#mask24_2_519)">
<path d="M13.9799 116.921V69.1431H68.2089V116.921H13.9799Z" fill="#7258DB"/>
</g>
<mask id="mask25_2_519" style="mask-type:luminance" maskUnits="userSpaceOnUse" x="0" y="0" width="934" height="213">
<path d="M934 0.130005H0.359375V212.478H934V0.130005Z" fill="white"/>
</mask>
<g mask="url(#mask25_2_519)">
<path d="M91.45 173.194V146.65H145.679V173.194H91.45Z" fill="#7258DB"/>
</g>
<mask id="mask26_2_519" style="mask-type:luminance" maskUnits="userSpaceOnUse" x="0" y="0" width="934" height="213">
<path d="M934 0.130005H0.359375V212.478H934V0.130005Z" fill="white"/>
</mask>
<g mask="url(#mask26_2_519)">
<path d="M168.92 139.218V105.242C168.92 105.242 168.92 105.242 168.92 105.242H223.149C223.149 105.242 223.149 105.242 223.149 105.242V139.218H168.92Z" fill="#7258DB"/>
</g>
<mask id="mask27_2_519" style="mask-type:luminance" maskUnits="userSpaceOnUse" x="0" y="0" width="934" height="213">
<path d="M934 0.130005H0.359375V212.478H934V0.130005Z" fill="white"/>
</mask>
<g mask="url(#mask27_2_519)">
<path d="M246.39 164.7V138.156H300.619V164.7H246.39Z" fill="#7258DB"/>
</g>
<mask id="mask28_2_519" style="mask-type:luminance" maskUnits="userSpaceOnUse" x="0" y="0" width="934" height="213">
<path d="M934 0.130005H0.359375V212.478H934V0.130005Z" fill="white"/>
</mask>
<g mask="url(#mask28_2_519)">
<path d="M323.86 165.761V142.403H378.089V165.761H323.86Z" fill="#7258DB"/>
</g>
<mask id="mask29_2_519" style="mask-type:luminance" maskUnits="userSpaceOnUse" x="0" y="0" width="934" height="213">
<path d="M934 0.130005H0.359375V212.478H934V0.130005Z" fill="white"/>
</mask>
<g mask="url(#mask29_2_519)">
<path d="M401.33 145.588V76.5753C401.33 76.5753 401.33 76.5753 401.33 76.5753H455.559V145.588H401.33Z" fill="#7258DB"/>
</g>
<mask id="mask30_2_519" style="mask-type:luminance" maskUnits="userSpaceOnUse" x="0" y="0" width="934" height="213">
<path d="M934 0.130005H0.359375V212.478H934V0.130005Z" fill="white"/>
</mask>
<g mask="url(#mask30_2_519)">
<path d="M478.8 147.712V100.995C478.8 100.995 478.8 100.995 478.8 100.995H533.029C533.029 100.995 533.029 100.995 533.029 100.995V147.712H478.8Z" fill="#7258DB"/>
</g>
<mask id="mask31_2_519" style="mask-type:luminance" maskUnits="userSpaceOnUse" x="0" y="0" width="934" height="213">
<path d="M934 0.130005H0.359375V212.478H934V0.130005Z" fill="white"/>
</mask>
<g mask="url(#mask31_2_519)">
<path d="M556.27 161.514V137.094H610.499V161.514H556.27Z" fill="#7258DB"/>
</g>
<mask id="mask32_2_519" style="mask-type:luminance" maskUnits="userSpaceOnUse" x="0" y="0" width="934" height="213">
<path d="M934 0.130005H0.359375V212.478H934V0.130005Z" fill="white"/>
</mask>
<g mask="url(#mask32_2_519)">
<path d="M633.74 164.7V138.156H687.969V164.7H633.74Z" fill="#7258DB"/>
</g>
<mask id="mask33_2_519" style="mask-type:luminance" maskUnits="userSpaceOnUse" x="0" y="0" width="934" height="213">
<path d="M934 0.130005H0.359375V212.478H934V0.130005Z" fill="white"/>
</mask>
<g mask="url(#mask33_2_519)">
<path d="M711.21 116.921V73.3901H765.439V116.921H711.21Z" fill="#7258DB"/>
</g>
<mask id="mask34_2_519" style="mask-type:luminance" maskUnits="userSpaceOnUse" x="0" y="0" width="934" height="213">
<path d="M934 0.130005H0.359375V212.478H934V0.130005Z" fill="white"/>
</mask>
<g mask="url(#mask34_2_519)">
<path d="M788.68 145.588V122.23H842.909V145.588H788.68Z" fill="#7258DB"/>
</g>
<mask id="mask35_2_519" style="mask-type:luminance" maskUnits="userSpaceOnUse" x="0" y="0" width="934" height="213">
<path d="M934 0.130005H0.359375V212.478H934V0.130005Z" fill="white"/>
</mask>
<g mask="url(#mask35_2_519)">
<path d="M866.15 147.712V116.921H920.38V147.712H866.15Z" fill="#7258DB"/>
</g>
<mask id="mask36_2_519" style="mask-type:luminance" maskUnits="userSpaceOnUse" x="0" y="0" width="934" height="213">
<path d="M934 0.130005H0.359375V212.478H934V0.130005Z" fill="white"/>
</mask>
<g mask="url(#mask36_2_519)">
<path d="M13.9799 69.1431V35.1674H68.2089V69.1431H13.9799Z" fill="#A6A6A4"/>
</g>
<mask id="mask37_2_519" style="mask-type:luminance" maskUnits="userSpaceOnUse" x="0" y="0" width="934" height="213">
<path d="M934 0.130005H0.359375V212.478H934V0.130005Z" fill="white"/>
</mask>
<g mask="url(#mask37_2_519)">
<path d="M91.45 146.65V120.107H145.679V146.65H91.45Z" fill="#A6A6A4"/>
</g>
<mask id="mask38_2_519" style="mask-type:luminance" maskUnits="userSpaceOnUse" x="0" y="0" width="934" height="213">
<path d="M934 0.130005H0.359375V212.478H934V0.130005Z" fill="white"/>
</mask>
<g mask="url(#mask38_2_519)">
<path d="M168.92 105.242V81.884H223.149V105.242H168.92Z" fill="#A6A6A4"/>
</g>
<mask id="mask39_2_519" style="mask-type:luminance" maskUnits="userSpaceOnUse" x="0" y="0" width="934" height="213">
<path d="M934 0.130005H0.359375V212.478H934V0.130005Z" fill="white"/>
</mask>
<g mask="url(#mask39_2_519)">
<path d="M246.39 138.156V126.477C246.39 126.477 246.39 126.477 246.39 126.477H300.619C300.619 126.477 300.619 126.477 300.619 126.477V138.156H246.39Z" fill="#A6A6A4"/>
</g>
<mask id="mask40_2_519" style="mask-type:luminance" maskUnits="userSpaceOnUse" x="0" y="0" width="934" height="213">
<path d="M934 0.130005H0.359375V212.478H934V0.130005Z" fill="white"/>
</mask>
<g mask="url(#mask40_2_519)">
<path d="M323.86 142.403V119.045H378.089V142.403H323.86Z" fill="#A6A6A4"/>
</g>
<mask id="mask41_2_519" style="mask-type:luminance" maskUnits="userSpaceOnUse" x="0" y="0" width="934" height="213">
<path d="M934 0.130005H0.359375V212.478H934V0.130005Z" fill="white"/>
</mask>
<g mask="url(#mask41_2_519)">
<path d="M401.33 76.5753V45.7849C401.33 45.7849 401.33 45.7849 401.33 45.7849H455.559V76.5753H401.33Z" fill="#A6A6A4"/>
</g>
<mask id="mask42_2_519" style="mask-type:luminance" maskUnits="userSpaceOnUse" x="0" y="0" width="934" height="213">
<path d="M934 0.130005H0.359375V212.478H934V0.130005Z" fill="white"/>
</mask>
<g mask="url(#mask42_2_519)">
<path d="M478.8 100.995V84.0074H533.029V100.995H478.8Z" fill="#A6A6A4"/>
</g>
<mask id="mask43_2_519" style="mask-type:luminance" maskUnits="userSpaceOnUse" x="0" y="0" width="934" height="213">
<path d="M934 0.130005H0.359375V212.478H934V0.130005Z" fill="white"/>
</mask>
<g mask="url(#mask43_2_519)">
<path d="M556.27 137.094V110.551H610.499V137.094H556.27Z" fill="#A6A6A4"/>
</g>
<mask id="mask44_2_519" style="mask-type:luminance" maskUnits="userSpaceOnUse" x="0" y="0" width="934" height="213">
<path d="M934 0.130005H0.359375V212.478H934V0.130005Z" fill="white"/>
</mask>
<g mask="url(#mask44_2_519)">
<path d="M633.74 138.156V128.601H687.969V138.156H633.74Z" fill="#A6A6A4"/>
</g>
<mask id="mask45_2_519" style="mask-type:luminance" maskUnits="userSpaceOnUse" x="0" y="0" width="934" height="213">
<path d="M934 0.130005H0.359375V212.478H934V0.130005Z" fill="white"/>
</mask>
<g mask="url(#mask45_2_519)">
<path d="M711.21 73.3901V48.97H765.439V73.3901H711.21Z" fill="#A6A6A4"/>
</g>
<mask id="mask46_2_519" style="mask-type:luminance" maskUnits="userSpaceOnUse" x="0" y="0" width="934" height="213">
<path d="M934 0.130005H0.359375V212.478H934V0.130005Z" fill="white"/>
</mask>
<g mask="url(#mask46_2_519)">
<path d="M788.68 122.23V95.6866H842.909V122.23H788.68Z" fill="#A6A6A4"/>
</g>
<mask id="mask47_2_519" style="mask-type:luminance" maskUnits="userSpaceOnUse" x="0" y="0" width="934" height="213">
<path d="M934 0.130005H0.359375V212.478H934V0.130005Z" fill="white"/>
</mask>
<g mask="url(#mask47_2_519)">
<path d="M866.15 116.921V103.119H920.38V116.921H866.15Z" fill="#A6A6A4"/>
</g>
</svg>
