<svg width="968" height="243" viewBox="0 0 968 243" fill="none" xmlns="http://www.w3.org/2000/svg">
<mask id="mask0_2_845" style="mask-type:luminance" maskUnits="userSpaceOnUse" x="0" y="0" width="968" height="243">
<path d="M967.33 0.0800781H0.330017V242.428H967.33V0.0800781Z" fill="white"/>
</mask>
<g mask="url(#mask0_2_845)">
<path d="M15.4618 242.428V59.6976H76.7437V242.428H15.4618Z" fill="#E5DF88" fill-opacity="0.85"/>
</g>
<mask id="mask1_2_845" style="mask-type:luminance" maskUnits="userSpaceOnUse" x="0" y="0" width="968" height="243">
<path d="M967.33 0.0800781H0.330017V242.428H967.33V0.0800781Z" fill="white"/>
</mask>
<g mask="url(#mask1_2_845)">
<path d="M103.007 242.428V51.781H164.289V242.428H103.007Z" fill="#E5DF88" fill-opacity="0.85"/>
</g>
<mask id="mask2_2_845" style="mask-type:luminance" maskUnits="userSpaceOnUse" x="0" y="0" width="968" height="243">
<path d="M967.33 0.0800781H0.330017V242.428H967.33V0.0800781Z" fill="white"/>
</mask>
<g mask="url(#mask2_2_845)">
<path d="M190.553 242.428V62.4443H251.835V242.428H190.553Z" fill="#E5DF88" fill-opacity="0.85"/>
</g>
<mask id="mask3_2_845" style="mask-type:luminance" maskUnits="userSpaceOnUse" x="0" y="0" width="968" height="243">
<path d="M967.33 0.0800781H0.330017V242.428H967.33V0.0800781Z" fill="white"/>
</mask>
<g mask="url(#mask3_2_845)">
<path d="M278.098 242.428V63.2521H339.38V242.428H278.098Z" fill="#E5DF88" fill-opacity="0.85"/>
</g>
<mask id="mask4_2_845" style="mask-type:luminance" maskUnits="userSpaceOnUse" x="0" y="0" width="968" height="243">
<path d="M967.33 0.0800781H0.330017V242.428H967.33V0.0800781Z" fill="white"/>
</mask>
<g mask="url(#mask4_2_845)">
<path d="M365.644 242.428V62.7675H426.925V242.428H365.644Z" fill="#E5DF88" fill-opacity="0.85"/>
</g>
<mask id="mask5_2_845" style="mask-type:luminance" maskUnits="userSpaceOnUse" x="0" y="0" width="968" height="243">
<path d="M967.33 0.0800781H0.330017V242.428H967.33V0.0800781Z" fill="white"/>
</mask>
<g mask="url(#mask5_2_845)">
<path d="M453.189 242.428V78.2777H514.471V242.428H453.189Z" fill="#E5DF88" fill-opacity="0.85"/>
</g>
<mask id="mask6_2_845" style="mask-type:luminance" maskUnits="userSpaceOnUse" x="0" y="0" width="968" height="243">
<path d="M967.33 0.0800781H0.330017V242.428H967.33V0.0800781Z" fill="white"/>
</mask>
<g mask="url(#mask6_2_845)">
<path d="M540.735 242.428V29.6465H602.016V242.428H540.735Z" fill="#E5DF88" fill-opacity="0.85"/>
</g>
<mask id="mask7_2_845" style="mask-type:luminance" maskUnits="userSpaceOnUse" x="0" y="0" width="968" height="243">
<path d="M967.33 0.0800781H0.330017V242.428H967.33V0.0800781Z" fill="white"/>
</mask>
<g mask="url(#mask7_2_845)">
<path d="M628.28 242.428V46.4493H689.562V242.428H628.28Z" fill="#E5DF88" fill-opacity="0.85"/>
</g>
<mask id="mask8_2_845" style="mask-type:luminance" maskUnits="userSpaceOnUse" x="0" y="0" width="968" height="243">
<path d="M967.33 0.0800781H0.330017V242.428H967.33V0.0800781Z" fill="white"/>
</mask>
<g mask="url(#mask8_2_845)">
<path d="M715.826 242.428V78.6008H777.107V242.428H715.826Z" fill="#E5DF88" fill-opacity="0.85"/>
</g>
<mask id="mask9_2_845" style="mask-type:luminance" maskUnits="userSpaceOnUse" x="0" y="0" width="968" height="243">
<path d="M967.33 0.0800781H0.330017V242.428H967.33V0.0800781Z" fill="white"/>
</mask>
<g mask="url(#mask9_2_845)">
<path d="M803.371 242.428V48.7112H864.653V242.428H803.371Z" fill="#E5DF88" fill-opacity="0.85"/>
</g>
<mask id="mask10_2_845" style="mask-type:luminance" maskUnits="userSpaceOnUse" x="0" y="0" width="968" height="243">
<path d="M967.33 0.0800781H0.330017V242.428H967.33V0.0800781Z" fill="white"/>
</mask>
<g mask="url(#mask10_2_845)">
<path d="M890.916 242.428V40.3098H952.198V242.428H890.916Z" fill="#E5DF88" fill-opacity="0.85"/>
</g>
</svg>
