<svg width="1443" height="226" viewBox="0 0 1443 226" fill="none" xmlns="http://www.w3.org/2000/svg">
<mask id="mask0_2_231" style="mask-type:luminance" maskUnits="userSpaceOnUse" x="0" y="0" width="1443" height="226">
<path d="M1442.5 0.25H0.640625V225.598H1442.5V0.25Z" fill="white"/>
</mask>
<g mask="url(#mask0_2_231)">
<path d="M721.57 2.47575H779.045V15.2818H721.57V2.47575Z" fill="#E5DF88" stroke="white" stroke-linecap="round"/>
</g>
<mask id="mask1_2_231" style="mask-type:luminance" maskUnits="userSpaceOnUse" x="0" y="0" width="1443" height="226">
<path d="M1442.5 0.25H0.640625V225.598H1442.5V0.25Z" fill="white"/>
</mask>
<g mask="url(#mask1_2_231)">
<path d="M721.57 19.7333H814.966V32.5393H721.57V19.7333Z" fill="#E5DF88" stroke="white" stroke-linecap="round"/>
</g>
<mask id="mask2_2_231" style="mask-type:luminance" maskUnits="userSpaceOnUse" x="0" y="0" width="1443" height="226">
<path d="M1442.5 0.25H0.640625V225.598H1442.5V0.25Z" fill="white"/>
</mask>
<g mask="url(#mask2_2_231)">
<path d="M721.57 36.9908H830.772V49.7969H721.57V36.9908Z" fill="#E5DF88"/>
<path d="M830.772 36.9908H721.57V49.7969H830.772M830.772 36.9908C830.772 36.9908 830.772 36.9908 830.772 36.9908ZM830.772 36.9908V49.7969M830.772 49.7969C830.772 49.7969 830.772 49.7969 830.772 49.7969Z" stroke="white" stroke-linecap="round"/>
</g>
<mask id="mask3_2_231" style="mask-type:luminance" maskUnits="userSpaceOnUse" x="0" y="0" width="1443" height="226">
<path d="M1442.5 0.25H0.640625V225.598H1442.5V0.25Z" fill="white"/>
</mask>
<g mask="url(#mask3_2_231)">
<path d="M721.57 54.2484H848.014V67.0544H721.57V54.2484Z" fill="#E5DF88" stroke="white" stroke-linecap="round"/>
</g>
<mask id="mask4_2_231" style="mask-type:luminance" maskUnits="userSpaceOnUse" x="0" y="0" width="1443" height="226">
<path d="M1442.5 0.25H0.640625V225.598H1442.5V0.25Z" fill="white"/>
</mask>
<g mask="url(#mask4_2_231)">
<path d="M721.57 71.5059H937.099V84.3119H721.57V71.5059Z" fill="#E5DF88"/>
<path d="M937.099 71.5059H721.57V84.3119H937.099M937.099 71.5059C937.099 71.5059 937.099 71.5059 937.099 71.5059ZM937.099 71.5059V84.3119M937.099 84.3119C937.099 84.3119 937.099 84.3119 937.099 84.3119Z" stroke="white" stroke-linecap="round"/>
</g>
<mask id="mask5_2_231" style="mask-type:luminance" maskUnits="userSpaceOnUse" x="0" y="0" width="1443" height="226">
<path d="M1442.5 0.25H0.640625V225.598H1442.5V0.25Z" fill="white"/>
</mask>
<g mask="url(#mask5_2_231)">
<path d="M721.57 88.7634H1023.31V101.569H721.57V88.7634Z" fill="#E5DF88" stroke="white" stroke-linecap="round"/>
</g>
<mask id="mask6_2_231" style="mask-type:luminance" maskUnits="userSpaceOnUse" x="0" y="0" width="1443" height="226">
<path d="M1442.5 0.25H0.640625V225.598H1442.5V0.25Z" fill="white"/>
</mask>
<g mask="url(#mask6_2_231)">
<path d="M721.57 106.021H1138.26V118.827H721.57V106.021Z" fill="#E5DF88" stroke="white" stroke-linecap="round"/>
</g>
<mask id="mask7_2_231" style="mask-type:luminance" maskUnits="userSpaceOnUse" x="0" y="0" width="1443" height="226">
<path d="M1442.5 0.25H0.640625V225.598H1442.5V0.25Z" fill="white"/>
</mask>
<g mask="url(#mask7_2_231)">
<path d="M721.57 123.279H1310.68V136.085H721.57V123.279Z" fill="#E5DF88" stroke="white" stroke-linecap="round"/>
</g>
<mask id="mask8_2_231" style="mask-type:luminance" maskUnits="userSpaceOnUse" x="0" y="0" width="1443" height="226">
<path d="M1442.5 0.25H0.640625V225.598H1442.5V0.25Z" fill="white"/>
</mask>
<g mask="url(#mask8_2_231)">
<path d="M721.57 140.536H1325.05V153.342H721.57V140.536Z" fill="#E5DF88" stroke="white" stroke-linecap="round"/>
</g>
<mask id="mask9_2_231" style="mask-type:luminance" maskUnits="userSpaceOnUse" x="0" y="0" width="1443" height="226">
<path d="M1442.5 0.25H0.640625V225.598H1442.5V0.25Z" fill="white"/>
</mask>
<g mask="url(#mask9_2_231)">
<path d="M721.57 157.794H1368.16V170.6H721.57V157.794Z" fill="#E5DF88" stroke="white" stroke-linecap="round"/>
</g>
<mask id="mask10_2_231" style="mask-type:luminance" maskUnits="userSpaceOnUse" x="0" y="0" width="1443" height="226">
<path d="M1442.5 0.25H0.640625V225.598H1442.5V0.25Z" fill="white"/>
</mask>
<g mask="url(#mask10_2_231)">
<path d="M721.57 175.051H1281.95V187.857H721.57V175.051Z" fill="#E5DF88" stroke="white" stroke-linecap="round"/>
</g>
<mask id="mask11_2_231" style="mask-type:luminance" maskUnits="userSpaceOnUse" x="0" y="0" width="1443" height="226">
<path d="M1442.5 0.25H0.640625V225.598H1442.5V0.25Z" fill="white"/>
</mask>
<g mask="url(#mask11_2_231)">
<path d="M721.57 192.309H1224.47V205.115H721.57V192.309Z" fill="#E5DF88" stroke="white" stroke-linecap="round"/>
</g>
<mask id="mask12_2_231" style="mask-type:luminance" maskUnits="userSpaceOnUse" x="0" y="0" width="1443" height="226">
<path d="M1442.5 0.25H0.640625V225.598H1442.5V0.25Z" fill="white"/>
</mask>
<g mask="url(#mask12_2_231)">
<path d="M721.57 209.566H1152.63V222.372H721.57V209.566Z" fill="#E5DF88"/>
<path d="M1152.63 222.372V209.566H721.57V222.372H1152.63ZM1152.63 222.372C1152.63 222.372 1152.63 222.372 1152.63 222.372Z" stroke="white" stroke-linecap="round"/>
</g>
<mask id="mask13_2_231" style="mask-type:luminance" maskUnits="userSpaceOnUse" x="0" y="0" width="1443" height="226">
<path d="M1442.5 0.25H0.640625V225.598H1442.5V0.25Z" fill="white"/>
</mask>
<g mask="url(#mask13_2_231)">
<path d="M721.57 2.47575H606.622V15.2818H721.57V2.47575Z" fill="#7258DB" stroke="white" stroke-linecap="round"/>
</g>
<mask id="mask14_2_231" style="mask-type:luminance" maskUnits="userSpaceOnUse" x="0" y="0" width="1443" height="226">
<path d="M1442.5 0.25H0.640625V225.598H1442.5V0.25Z" fill="white"/>
</mask>
<g mask="url(#mask14_2_231)">
<path d="M721.57 19.7333H570.7V32.5393H721.57V19.7333Z" fill="#7258DB" stroke="white" stroke-linecap="round"/>
</g>
<mask id="mask15_2_231" style="mask-type:luminance" maskUnits="userSpaceOnUse" x="0" y="0" width="1443" height="226">
<path d="M1442.5 0.25H0.640625V225.598H1442.5V0.25Z" fill="white"/>
</mask>
<g mask="url(#mask15_2_231)">
<path d="M721.57 36.9908H569.263V49.7969H721.57V36.9908Z" fill="#7258DB" stroke="white" stroke-linecap="round"/>
</g>
<mask id="mask16_2_231" style="mask-type:luminance" maskUnits="userSpaceOnUse" x="0" y="0" width="1443" height="226">
<path d="M1442.5 0.25H0.640625V225.598H1442.5V0.25Z" fill="white"/>
</mask>
<g mask="url(#mask16_2_231)">
<path d="M721.57 54.2484H552.021V67.0544H721.57V54.2484Z" fill="#7258DB" stroke="white" stroke-linecap="round"/>
</g>
<mask id="mask17_2_231" style="mask-type:luminance" maskUnits="userSpaceOnUse" x="0" y="0" width="1443" height="226">
<path d="M1442.5 0.25H0.640625V225.598H1442.5V0.25Z" fill="white"/>
</mask>
<g mask="url(#mask17_2_231)">
<path d="M721.57 71.5059H520.41V84.3119H721.57V71.5059Z" fill="#7258DB" stroke="white" stroke-linecap="round"/>
</g>
<mask id="mask18_2_231" style="mask-type:luminance" maskUnits="userSpaceOnUse" x="0" y="0" width="1443" height="226">
<path d="M1442.5 0.25H0.640625V225.598H1442.5V0.25Z" fill="white"/>
</mask>
<g mask="url(#mask18_2_231)">
<path d="M721.57 88.7634H405.461V101.569H721.57V88.7634Z" fill="#7258DB" stroke="white" stroke-linecap="round"/>
</g>
<mask id="mask19_2_231" style="mask-type:luminance" maskUnits="userSpaceOnUse" x="0" y="0" width="1443" height="226">
<path d="M1442.5 0.25H0.640625V225.598H1442.5V0.25Z" fill="white"/>
</mask>
<g mask="url(#mask19_2_231)">
<path d="M721.57 106.021H89.3522V118.827H721.57V106.021Z" fill="#7258DB" stroke="white" stroke-linecap="round"/>
</g>
<mask id="mask20_2_231" style="mask-type:luminance" maskUnits="userSpaceOnUse" x="0" y="0" width="1443" height="226">
<path d="M1442.5 0.25H0.640625V225.598H1442.5V0.25Z" fill="white"/>
</mask>
<g mask="url(#mask20_2_231)">
<path d="M721.57 123.279H132.458V136.085H721.57V123.279Z" fill="#7258DB" stroke="white" stroke-linecap="round"/>
</g>
<mask id="mask21_2_231" style="mask-type:luminance" maskUnits="userSpaceOnUse" x="0" y="0" width="1443" height="226">
<path d="M1442.5 0.25H0.640625V225.598H1442.5V0.25Z" fill="white"/>
</mask>
<g mask="url(#mask21_2_231)">
<path d="M721.57 140.536H146.827V153.342H721.57V140.536Z" fill="#7258DB" stroke="white" stroke-linecap="round"/>
</g>
<mask id="mask22_2_231" style="mask-type:luminance" maskUnits="userSpaceOnUse" x="0" y="0" width="1443" height="226">
<path d="M1442.5 0.25H0.640625V225.598H1442.5V0.25Z" fill="white"/>
</mask>
<g mask="url(#mask22_2_231)">
<path d="M721.57 157.794H132.458V170.6H721.57V157.794Z" fill="#7258DB" stroke="white" stroke-linecap="round"/>
</g>
<mask id="mask23_2_231" style="mask-type:luminance" maskUnits="userSpaceOnUse" x="0" y="0" width="1443" height="226">
<path d="M1442.5 0.25H0.640625V225.598H1442.5V0.25Z" fill="white"/>
</mask>
<g mask="url(#mask23_2_231)">
<path d="M721.57 175.051H233.038V187.857H721.57V175.051Z" fill="#7258DB" stroke="white" stroke-linecap="round"/>
</g>
<mask id="mask24_2_231" style="mask-type:luminance" maskUnits="userSpaceOnUse" x="0" y="0" width="1443" height="226">
<path d="M1442.5 0.25H0.640625V225.598H1442.5V0.25Z" fill="white"/>
</mask>
<g mask="url(#mask24_2_231)">
<path d="M721.57 192.309H276.144V205.115H721.57V192.309Z" fill="#7258DB" stroke="white" stroke-linecap="round"/>
</g>
<mask id="mask25_2_231" style="mask-type:luminance" maskUnits="userSpaceOnUse" x="0" y="0" width="1443" height="226">
<path d="M1442.5 0.25H0.640625V225.598H1442.5V0.25Z" fill="white"/>
</mask>
<g mask="url(#mask25_2_231)">
<path d="M721.57 209.566H319.25V222.372H721.57V209.566Z" fill="#7258DB"/>
<path d="M319.25 222.372V209.566H721.57V222.372H319.25ZM319.25 222.372C319.25 222.372 319.25 222.372 319.25 222.372Z" stroke="white" stroke-linecap="round"/>
</g>
</svg>
