<svg width="1440" height="233" viewBox="0 0 1440 233" fill="none" xmlns="http://www.w3.org/2000/svg">
<path d="M1.14062 0.75H1438" stroke="#F0F0F0"/>
<path d="M1.14062 18.0075H1438" stroke="#F0F0F0"/>
<path d="M1.14062 35.2651H1438" stroke="#F0F0F0"/>
<path d="M1.14062 52.5226H1438" stroke="#F0F0F0"/>
<path d="M1.14062 69.7802H1438" stroke="#F0F0F0"/>
<path d="M1.14062 87.0377H1438" stroke="#F0F0F0"/>
<path d="M1.14062 104.295H1438" stroke="#F0F0F0"/>
<path d="M1.14062 121.553H1438" stroke="#F0F0F0"/>
<path d="M1.14062 138.81H1438" stroke="#F0F0F0"/>
<path d="M1.14062 156.068H1438" stroke="#F0F0F0"/>
<path d="M1.14062 173.325H1438" stroke="#F0F0F0"/>
<path d="M1.14062 190.583H1438" stroke="#F0F0F0"/>
<path d="M1.14062 207.84H1438" stroke="#F0F0F0"/>
<path d="M1.14062 225.098H1438" stroke="#F0F0F0"/>
<path d="M1.14062 226.098V232.098" stroke="#F0F0F0"/>
<path d="M288.812 226.098V232.098" stroke="#F0F0F0"/>
<path d="M576.484 226.098V232.098" stroke="#F0F0F0"/>
<path d="M864.156 226.098V232.098" stroke="#F0F0F0"/>
<path d="M1151.83 226.098V232.098" stroke="#F0F0F0"/>
<path d="M1439.5 226.098V232.098" stroke="#F0F0F0"/>
<path d="M1.14062 225.098H1438" stroke="#F0F0F0"/>
<path d="M1.14062 1.75V225.098" stroke="#F0F0F0"/>
</svg>
