<svg width="965" height="221" viewBox="0 0 965 221" fill="none" xmlns="http://www.w3.org/2000/svg">
<path d="M1 0.940002H964" stroke="#F0F0F0"/>
<path d="M1 22.1748H964" stroke="#F0F0F0"/>
<path d="M1 43.4096H964" stroke="#F0F0F0"/>
<path d="M1 64.6444H964" stroke="#F0F0F0"/>
<path d="M1 85.8792H964" stroke="#F0F0F0"/>
<path d="M1 107.114H964" stroke="#F0F0F0"/>
<path d="M1 128.349H964" stroke="#F0F0F0"/>
<path d="M1 149.584H964" stroke="#F0F0F0"/>
<path d="M1 170.818H964" stroke="#F0F0F0"/>
<path d="M1 192.053H964" stroke="#F0F0F0"/>
<path d="M1 213.288H964" stroke="#F0F0F0"/>
<path d="M1 214.288V220.288" stroke="#F0F0F0"/>
<path d="M161.5 214.288V220.288" stroke="#F0F0F0"/>
<path d="M322 214.288V220.288" stroke="#F0F0F0"/>
<path d="M482.5 214.288V220.288" stroke="#F0F0F0"/>
<path d="M643 214.288V220.288" stroke="#F0F0F0"/>
<path d="M803.5 214.288V220.288" stroke="#F0F0F0"/>
<path d="M964 214.288V220.288" stroke="#F0F0F0"/>
<path d="M1 213.288H964" stroke="#F0F0F0"/>
<path d="M1 1.94V213.288" stroke="#F0F0F0"/>
</svg>
